<?xml version="1.0" standalone="no"?>
<!DOCTYPE svg PUBLIC "-//W3C//DTD SVG 1.1//EN" "http://www.w3.org/Graphics/SVG/1.1/DTD/svg11.dtd" >
<svg>
<metadata>
Created by FontForge 20110222 at Wed Jun 11 01:05:34 2014
 By Orthosie Webhosting
DaltonMaag Ltd Copyright (c) Dalton Maag Ltd, 1999-2007. All rights reserved. These fonts are for use by ThyssenKrupp and in conjunction with ThyssenKrupp related material only.
</metadata>
<defs>
<font id="TKTypeRegularRegular" horiz-adv-x="717" >
  <font-face 
    font-family="TKTypeRegularRegular"
    font-weight="400"
    font-stretch="normal"
    units-per-em="2048"
    panose-1="2 11 5 3 4 2 2 2 2 4"
    ascent="1638"
    descent="-410"
    x-height="1040"
    cap-height="1475"
    bbox="-184 -434 2481 1861"
    underline-thickness="108"
    underline-position="-100"
    unicode-range="U+0020-FB04"
  />
<missing-glyph horiz-adv-x="528" 
 />
    <glyph glyph-name="ff" unicode="ff" horiz-adv-x="1084" 
d="M689 926h-384v-926h-149v926h-136v114h136v99q0 101 21 161t59 97q46 46 106.5 64t122.5 18q73 0 110 -6v-125q-37 6 -92 6q-34 0 -69 -8.5t-64 -40.5q-20 -23 -32.5 -61.5t-12.5 -108.5v-95h384v99q0 101 21 161t59 97q46 46 106.5 64t122.5 18q73 0 110 -6v-125
q-37 6 -92 6q-34 0 -69 -8.5t-64 -40.5q-20 -23 -32.5 -61.5t-12.5 -108.5v-95h238v-114h-238v-926h-149v926z" />
    <glyph glyph-name="fi" unicode="fi" horiz-adv-x="963" 
d="M156 0v926h-136v114h136v99q0 101 21 161t59 97q46 46 106.5 64t122.5 18q73 0 110 -6v-125q-37 6 -92 6q-34 0 -69 -8.5t-64 -40.5q-20 -23 -32.5 -61.5t-12.5 -108.5v-95h238v-114h-238v-926h-149zM678 0v1040h150v-1040h-150zM678 1303v172h150v-172h-150z" />
    <glyph glyph-name="fl" unicode="fl" horiz-adv-x="963" 
d="M156 0v926h-136v114h136v99q0 101 21 161t59 97q46 46 106.5 64t122.5 18q73 0 110 -6v-125q-37 6 -92 6q-34 0 -69 -8.5t-64 -40.5q-20 -23 -32.5 -61.5t-12.5 -108.5v-95h238v-114h-238v-926h-149zM678 0v1475h150v-1475h-150z" />
    <glyph glyph-name="ffi" unicode="ffi" horiz-adv-x="1496" 
d="M689 926h-384v-926h-149v926h-136v114h136v99q0 101 21 161t59 97q46 46 106.5 64t122.5 18q73 0 110 -6v-125q-37 6 -92 6q-34 0 -69 -8.5t-64 -40.5q-20 -23 -32.5 -61.5t-12.5 -108.5v-95h384v99q0 101 21 161t59 97q46 46 106.5 64t122.5 18q73 0 110 -6v-125
q-37 6 -92 6q-34 0 -69 -8.5t-64 -40.5q-20 -23 -32.5 -61.5t-12.5 -108.5v-95h238v-114h-238v-926h-149v926zM1211 0v1040h150v-1040h-150zM1211 1303v172h150v-172h-150z" />
    <glyph glyph-name="ffl" unicode="ffl" horiz-adv-x="1496" 
d="M689 926h-384v-926h-149v926h-136v114h136v99q0 101 21 161t59 97q46 46 106.5 64t122.5 18q73 0 110 -6v-125q-37 6 -92 6q-34 0 -69 -8.5t-64 -40.5q-20 -23 -32.5 -61.5t-12.5 -108.5v-95h384v99q0 101 21 161t59 97q46 46 106.5 64t122.5 18q73 0 110 -6v-125
q-37 6 -92 6q-34 0 -69 -8.5t-64 -40.5q-20 -23 -32.5 -61.5t-12.5 -108.5v-95h238v-114h-238v-926h-149v926zM1211 0v1475h150v-1475h-150z" />
    <glyph glyph-name=".notdef" horiz-adv-x="528" 
 />
    <glyph glyph-name=".null" horiz-adv-x="0" 
 />
    <glyph glyph-name="nonmarkingreturn" horiz-adv-x="528" 
 />
    <glyph glyph-name="space" unicode=" " horiz-adv-x="528" 
 />
    <glyph glyph-name="exclam" unicode="!" horiz-adv-x="586" 
d="M199 0v217h188v-217h-188zM223 385l-16 1090h170l-17 -1090h-137z" />
    <glyph glyph-name="quotedbl" unicode="&#x22;" horiz-adv-x="766" 
d="M164 928l-43 430v117h194v-117l-43 -430h-108zM496 928l-43 430v117h194v-117l-43 -430h-108z" />
    <glyph glyph-name="numbersign" unicode="#" horiz-adv-x="934" 
d="M90 0l86 416h-164v106h185l79 381h-163v107h184l86 415h117l-86 -415h235l86 415h117l-86 -415h166v-107h-187l-79 -381h165v-106h-186l-86 -416h-117l86 416h-235l-86 -416h-117zM313 522h236l80 381h-236z" />
    <glyph glyph-name="dollar" unicode="$" horiz-adv-x="1090" 
d="M465 -238v207q-102 8 -175.5 40.5t-127.5 86.5q-40 41 -64.5 79.5t-44.5 86.5l131 66q35 -80 81 -132t96 -72.5t104 -25.5v574q-30 9 -43 16q-110 45 -174 90t-96 90q-35 47 -51.5 100.5t-16.5 110.5q0 48 8 96.5t32.5 96t61.5 86.5q46 46 112 77t167 38v124h110v-122
q143 -8 237.5 -71.5t150.5 -180.5l-129 -68q-33 73 -79.5 116t-92 58t-87.5 21v-572q123 -47 176 -71t104 -65t79 -87q31 -58 40 -104.5t9 -88.5q0 -110 -51 -201t-147 -137.5t-210 -54.5v-207h-110zM575 98q53 6 101 24t90 56q29 29 45 72t16 102q0 84 -37 137.5t-112 94.5
q-8 4 -103 43v-529zM465 821v529q-59 -5 -104.5 -23.5t-77.5 -60.5t-43 -84.5t-11 -96.5q0 -44 15 -81t44.5 -69t73.5 -60t103 -54z" />
    <glyph glyph-name="percent" unicode="%" horiz-adv-x="1628" 
d="M516 -33l475 1508h121l-475 -1508h-121zM1270 -33q-68 0 -118 17t-85 49q-46 39 -68 100t-27 130t-5 134q0 103 10 176.5t34 116.5t56 72q35 32 85 48.5t118 16.5t117.5 -16.5t85.5 -48.5q68 -66 84 -160.5t16 -204.5q0 -104 -10 -173.5t-34.5 -116t-55.5 -74.5
q-36 -32 -85.5 -49t-117.5 -17zM1270 61q37 0 60.5 9t41.5 24q44 37 57 117t13 186q0 117 -10 177.5t-26.5 86.5t-31.5 39q-21 19 -48 26t-56 7q-65 0 -103 -33q-47 -40 -58 -120t-11 -183q0 -110 10.5 -176t26 -90t30.5 -37q22 -17 49 -25t56 -8zM358 614q-68 0 -117.5 17
t-84.5 49q-32 28 -51.5 64.5t-30.5 81.5t-15 99t-4 119t4 119.5t15 99.5t30.5 81t51.5 65q35 32 84.5 49t117.5 17q69 0 118.5 -17t84.5 -49q70 -68 85.5 -161t15.5 -204q0 -104 -10.5 -175.5t-35 -116t-55.5 -72.5q-35 -32 -84.5 -49t-118.5 -17zM358 709q38 0 61 8.5
t42 23.5q45 38 57 124t12 179q0 117 -10 177.5t-26 87.5t-31 39q-22 18 -49 25t-56 7q-38 0 -59 -7t-43 -25q-48 -42 -59 -119t-11 -185q0 -110 11 -178t26.5 -90.5t30.5 -34.5q22 -18 48.5 -25t55.5 -7z" />
    <glyph glyph-name="ampersand" unicode="&#x26;" horiz-adv-x="1276" 
d="M537 -33q-104 0 -180.5 32t-129.5 83q-116 114 -116 301q0 85 32 161.5t95 139.5q34 34 75.5 68.5t98.5 72.5q-32 46 -58 87t-44 81t-28 79.5t-10 82.5q0 70 22 127t62.5 98t98 63.5t129.5 22.5q109 0 182 -42t101 -107.5t28 -132.5q0 -59 -17 -108.5t-51.5 -96
t-87.5 -92t-125 -94.5q55 -81 301 -394q30 70 48.5 147t23.5 132l143 -39q-15 -87 -46.5 -185t-71.5 -175q42 -49 78 -84q21 -20 43 -35.5t47 -24.5q34 -14 88 -14v-133q-42 -3 -91 2.5t-87 23t-75 48.5t-85 83q-66 -76 -142 -116.5t-139.5 -51t-111.5 -10.5zM557 102
q51 0 104 19t98 55.5t79 81.5q-87 107 -346 457q-39 -25 -68.5 -49.5t-52.5 -47.5q-60 -62 -80.5 -120t-20.5 -129q0 -50 19 -100.5t59 -88.5q35 -35 87.5 -56.5t121.5 -21.5zM535 903q91 61 140.5 119.5t61 101t11.5 74.5q0 52 -28 89t-66.5 50t-69.5 13q-35 0 -65.5 -10.5
t-53 -33t-36 -56.5t-13.5 -81q0 -69 31 -131.5t88 -134.5z" />
    <glyph glyph-name="quotesingle" unicode="'" horiz-adv-x="442" 
d="M168 928l-43 430v117h194v-117l-43 -430h-108z" />
    <glyph glyph-name="parenleft" unicode="(" horiz-adv-x="600" 
d="M442 -393q-90 119 -151.5 239.5t-99 241.5t-55 238.5t-17.5 232.5t17.5 232.5t55 237.5t99 240t151.5 238l119 -65q-65 -96 -116.5 -196.5t-86 -208t-53 -226.5t-18.5 -252q0 -194 41 -366.5t104.5 -297t128.5 -223.5z" />
    <glyph glyph-name="parenright" unicode=")" horiz-adv-x="600" 
d="M39 -328q65 99 128.5 223.5t104.5 297t41 366.5q0 133 -18.5 252t-53 226.5t-86 208t-116.5 196.5l119 65q90 -118 151.5 -238t99 -240t55 -237.5t17.5 -232.5t-17.5 -232.5t-55 -238.5t-99 -241.5t-151.5 -239.5z" />
    <glyph glyph-name="asterisk" unicode="*" horiz-adv-x="854" 
d="M299 827l-125 88l39 56l137 143l-198 35l-64 22l51 146l64 -21l178 -92l-35 203v68h156v-68l-25 -203l178 90l64 21l47 -144l-64 -22l-196 -37l147 -141l39 -56l-125 -88l-39 56l-100 174l-90 -174z" />
    <glyph glyph-name="plus" unicode="+" horiz-adv-x="1090" 
d="M485 291v389h-389v119h389v387h119v-387h389v-119h-389v-389h-119z" />
    <glyph glyph-name="comma" unicode="," horiz-adv-x="586" 
d="M178 -317v98q44 11 66 33q24 24 32.5 60t8.5 85v41h-88v229h192v-270q0 -152 -72 -219q-26 -26 -60.5 -40t-78.5 -17z" />
    <glyph glyph-name="hyphen" unicode="-" horiz-adv-x="698" 
d="M80 453v153h538v-153h-538z" />
    <glyph glyph-name="period" unicode="." horiz-adv-x="586" 
d="M197 0v231h192v-231h-192z" />
    <glyph glyph-name="slash" unicode="/" horiz-adv-x="621" 
d="M18 0l455 1475h129l-455 -1475h-129z" />
    <glyph glyph-name="zero" unicode="0" horiz-adv-x="1090" 
d="M545 -33q-103 0 -177.5 28t-125.5 81q-68 67 -102.5 178.5t-42 235t-7.5 231.5q0 179 16 308.5t51.5 209t84.5 127.5q51 53 125.5 81t177.5 28t177.5 -28t125.5 -81q67 -68 101 -177.5t42 -234.5t8 -233q0 -188 -15.5 -310t-51.5 -204.5t-84 -130.5q-51 -53 -125.5 -81
t-177.5 -28zM545 92q55 0 98.5 15t77.5 47q46 46 73 133.5t34.5 201.5t7.5 232q0 183 -14.5 299t-42.5 176.5t-58 91.5q-34 32 -77.5 47t-98.5 15q-56 0 -99 -15t-77 -47q-46 -45 -73 -132t-34.5 -202t-7.5 -233q0 -184 14.5 -301.5t41.5 -176t59 -89.5q34 -32 77 -47
t99 -15z" />
    <glyph glyph-name="one" unicode="1" horiz-adv-x="1090" 
d="M297 0v129h227v1145l-221 -137l-70 112l332 209h113v-1329h213v-129h-594z" />
    <glyph glyph-name="two" unicode="2" horiz-adv-x="1090" 
d="M106 0v106l414 469q127 143 186.5 248.5t72 164.5t12.5 122q0 114 -64 180t-190 66q-69 0 -115 -18.5t-80 -55.5q-70 -76 -88 -221l-143 33q14 86 39.5 151.5t76.5 116.5q62 63 145 87t185 24q109 0 184.5 -30.5t123 -81.5t68.5 -117.5t21 -137.5q0 -100 -36.5 -198.5
t-116 -204t-180.5 -216.5l-328 -358h661v-129h-848z" />
    <glyph glyph-name="three" unicode="3" horiz-adv-x="1090" 
d="M516 -33q-111 0 -189 26.5t-130.5 75t-81.5 117t-41 152.5l141 14q26 -135 94.5 -197.5t190.5 -62.5q54 0 101.5 14.5t78.5 43.5q65 60 84.5 141.5t19.5 185.5q0 82 -20 146.5t-62 109.5q-41 41 -101.5 54.5t-94.5 13.5q-83 0 -158 -31l-61 80l450 463h-610v129h770v-129
l-391 -404q21 6 74 6q81 0 148 -30t103 -66q44 -48 69 -101.5t34.5 -122t9.5 -132.5q0 -90 -18 -168t-52.5 -135t-74.5 -94q-54 -50 -123.5 -74.5t-159.5 -24.5z" />
    <glyph glyph-name="four" unicode="4" horiz-adv-x="1090" 
d="M694 0v315h-592v119l596 1024h138v-1016h147v-127h-147v-315h-142zM244 442h450v775z" />
    <glyph glyph-name="five" unicode="5" horiz-adv-x="1090" 
d="M555 -33q-102 0 -178 26t-128.5 73.5t-83 114t-40.5 147.5l141 14q22 -128 91.5 -189t181.5 -61q54 0 97.5 13t74.5 42q65 60 82.5 146.5t17.5 189.5q0 82 -18 146.5t-60 109.5q-37 39 -84.5 54.5t-109.5 15.5q-75 0 -127 -22t-84.5 -58t-55.5 -78l-112 15l47 776h684
v-129h-557l-27 -475q80 63 143 77.5t140 14.5q90 0 155 -23t111 -71q75 -82 95 -174.5t20 -192.5q0 -96 -17.5 -174.5t-51 -136.5t-73.5 -95q-54 -49 -119 -72.5t-155 -23.5z" />
    <glyph glyph-name="six" unicode="6" horiz-adv-x="1090" 
d="M559 -33q-91 0 -162.5 23t-124.5 76q-59 56 -95.5 150.5t-49 220t-12.5 278.5q0 239 34 404t121 253q53 51 126.5 77t172.5 26q198 0 291 -95q75 -75 90 -188l-139 -33q-12 42 -26.5 75.5t-39.5 57.5q-60 62 -182 62q-112 0 -178 -66q-68 -66 -94.5 -200t-26.5 -345
q42 58 83 94.5t105 59.5t140 23q62 0 113.5 -10t95 -34t71.5 -53q68 -71 93.5 -170.5t25.5 -201.5q0 -133 -32 -225.5t-95 -155.5q-54 -53 -131 -78t-174 -25zM567 88q107 0 167.5 50t80 136t19.5 175q0 146 -39.5 230.5t-98.5 108t-116 23.5q-76 0 -131.5 -29t-91.5 -77
t-53 -110.5t-17 -129.5q0 -183 66.5 -280t213.5 -97z" />
    <glyph glyph-name="seven" unicode="7" horiz-adv-x="1090" 
d="M315 0l482 1305h-525v-191h-137v328h813v-129l-475 -1313h-158z" />
    <glyph glyph-name="eight" unicode="8" horiz-adv-x="1090" 
d="M545 -33q-95 0 -177 21.5t-143 71t-96 130.5t-35 199q0 65 12 126.5t42 112.5t80.5 88t127.5 54q-61 17 -101.5 51t-64.5 79.5t-33.5 90.5t-10.5 70.5t-1 44.5q0 74 21 141t68.5 117.5t123.5 80.5t187 30q155 0 249.5 -61.5t122 -147.5t27.5 -160q0 -50 -10 -102.5
t-34.5 -101.5t-67.5 -82.5t-99 -49.5q109 -25 169.5 -91.5t76.5 -145.5t16 -144q0 -118 -35 -199t-95.5 -130.5t-143 -71t-176.5 -21.5zM545 88q107 0 172.5 32t95 105.5t29.5 171.5q0 118 -44.5 188t-113.5 91.5t-139 21.5q-71 0 -126 -17t-93 -53.5t-58 -93.5t-20 -137
q0 -98 23.5 -158t64 -94t94.5 -45.5t115 -11.5zM545 821q124 0 188 68t64 211q0 135 -67 197.5t-185 62.5q-119 0 -185.5 -62.5t-66.5 -197.5q0 -143 64 -211t188 -68z" />
    <glyph glyph-name="nine" unicode="9" horiz-adv-x="1090" 
d="M520 -33q-99 0 -171.5 24t-119.5 70q-37 38 -59.5 85.5t-30.5 103.5l140 33q12 -42 26 -75.5t39 -57.5q62 -62 182 -62q113 0 179 66q68 66 94 197t26 329q-44 -60 -85.5 -96t-105 -58t-136.5 -22q-38 0 -76 4.5t-74 16t-69.5 31t-61.5 48.5q-54 56 -86.5 152.5
t-32.5 236.5q0 133 32 228.5t95 158.5q54 53 131 74t174 21q91 0 163 -22t124 -75q59 -60 93.5 -144t49.5 -216t15 -285q0 -188 -19.5 -326t-56 -216t-80.5 -121q-105 -103 -299 -103zM510 623q76 0 131.5 28.5t91.5 76.5t53 110t17 129q0 196 -66.5 291.5t-214.5 95.5
q-73 0 -123.5 -21.5t-82 -66t-46 -112t-14.5 -159.5q0 -104 18.5 -175t51.5 -114.5t80 -63t104 -19.5z" />
    <glyph glyph-name="colon" unicode=":" horiz-adv-x="586" 
d="M197 0v231h192v-231h-192zM197 809v231h192v-231h-192z" />
    <glyph glyph-name="semicolon" unicode=";" horiz-adv-x="586" 
d="M178 -317v98q44 11 66 33q24 24 32.5 60t8.5 85v41h-88v229h192v-270q0 -152 -72 -219q-26 -26 -60.5 -40t-78.5 -17zM197 809v231h192v-231h-192z" />
    <glyph glyph-name="less" unicode="&#x3c;" horiz-adv-x="1090" 
d="M883 264l-725 404v139l723 403l51 -108l-668 -365l668 -364z" />
    <glyph glyph-name="equal" unicode="=" horiz-adv-x="1090" 
d="M96 473v119h897v-119h-897zM96 885v119h897v-119h-897z" />
    <glyph glyph-name="greater" unicode="&#x3e;" horiz-adv-x="1090" 
d="M209 264l-51 109l667 364l-667 365l49 108l725 -403v-139z" />
    <glyph glyph-name="question" unicode="?" horiz-adv-x="971" 
d="M344 0v217h188v-217h-188zM365 385v57q0 133 45.5 228.5t102 151t95 93.5t62 74t34.5 76.5t11 81.5q0 89 -51 145q-28 29 -68.5 46.5t-103.5 17.5q-65 0 -111 -18t-80 -52q-32 -32 -51 -80t-27 -110l-141 20q11 94 42 152.5t69 95.5q34 34 82.5 60.5t105.5 38.5t111 12
q196 0 294 -103q42 -43 64 -100t22 -129t-24 -136t-55 -101t-58 -64q-38 -38 -77 -75t-71 -82t-52.5 -102t-20.5 -134v-64h-149z" />
    <glyph glyph-name="at" unicode="@" horiz-adv-x="1759" 
d="M922 -223q-168 0 -310.5 55t-249.5 160q-114 111 -178.5 270t-64.5 365q0 82 16.5 179t53.5 194.5t97.5 189t149 162t207 113t272.5 42.5q168 0 302.5 -54.5t228.5 -147t144 -215.5t50 -261q0 -154 -43.5 -280t-115 -216t-163.5 -139t-190 -49q-46 0 -74.5 12t-44.5 30.5
t-22 40t-6 40.5q0 37 12 78q-18 -38 -46 -74.5t-65 -64.5t-81.5 -45t-95.5 -17q-50 0 -93.5 16.5t-79.5 51.5q-40 40 -61.5 102t-21.5 152q0 128 22 240q28 137 71.5 232t100.5 157q48 51 109.5 75.5t132.5 24.5q78 0 130.5 -27.5t77 -67.5t37.5 -75l29 145h129l-168 -798
q-8 -39 -8 -66q0 -26 16 -35.5t50 -9.5q71 0 169.5 86.5t137.5 215t39 249.5q0 119 -39.5 225t-115.5 186t-188 126.5t-257 46.5q-137 0 -241.5 -39t-181 -103t-127.5 -146.5t-81.5 -169t-43.5 -170.5t-13 -151q0 -90 14.5 -167.5t40.5 -143.5t62.5 -121t80.5 -100
q73 -73 167.5 -120t178 -63t142.5 -16q125 0 241 36.5t197.5 94t132.5 119.5l88 -78q-32 -34 -61 -62t-59.5 -52t-64.5 -44.5t-75 -39.5q-179 -84 -399 -84zM754 264q75 0 142 74.5t108 184t59 210.5l6 35q8 58 8 84q0 70 -26 123.5t-69.5 76.5t-86.5 23t-83.5 -17
t-68.5 -46q-45 -45 -79 -127t-56 -207q-18 -111 -18 -186q0 -76 14 -121t39 -68q22 -22 50.5 -30.5t60.5 -8.5z" />
    <glyph glyph-name="A" unicode="A" horiz-adv-x="1188" 
d="M18 0l476 1475h165l510 -1475h-170l-141 422h-553l-133 -422h-154zM346 553h467l-240 717z" />
    <glyph glyph-name="B" unicode="B" horiz-adv-x="1200" 
d="M170 0v1475h500q131 0 224.5 -53t131 -140.5t37.5 -183.5q0 -116 -49.5 -202t-167.5 -136q106 -31 165 -91.5t75 -135.5t16 -142q0 -81 -24.5 -152t-75 -124t-128.5 -84t-186 -31h-518zM324 127h307q83 0 140.5 18t93 54t51.5 90.5t16 128.5q0 103 -45 166t-117 83.5
t-145 20.5h-301v-561zM324 815h319q80 0 143.5 41.5t89 107t25.5 130.5q0 88 -34 147t-98 83t-136 24h-309v-533z" />
    <glyph glyph-name="C" unicode="C" horiz-adv-x="1167" 
d="M666 -33q-152 0 -256 51.5t-169 150t-93.5 242t-28.5 326.5q0 209 35.5 355.5t104.5 238.5t170 134t233 42q176 0 281.5 -76t150.5 -214l-154 -58q-37 116 -105 165.5t-173 49.5q-92 0 -161 -34t-115 -109.5t-69.5 -197t-23.5 -296.5q0 -159 19.5 -278.5t63.5 -199
t114 -119.5t172 -40q76 0 138.5 29t100.5 86.5t57 126.5l146 -55q-21 -72 -56 -131t-88.5 -101t-126 -65t-167.5 -23z" />
    <glyph glyph-name="D" unicode="D" horiz-adv-x="1253" 
d="M170 0v1475h334q172 0 287.5 -42t189.5 -118q84 -88 119 -220.5t35 -310.5q0 -158 -20.5 -284.5t-65.5 -215.5t-103 -145q-66 -63 -163.5 -101t-237.5 -38h-375zM328 131h153q84 0 148 11.5t108 36t76 54.5q53 53 88 138.5t47.5 194t12.5 218.5q0 158 -28 266.5
t-91 176.5q-59 61 -145.5 88.5t-215.5 27.5h-153v-1212z" />
    <glyph glyph-name="E" unicode="E" horiz-adv-x="1047" 
d="M170 0v1475h780v-138h-622v-510h594v-137h-594v-553h639v-137h-797z" />
    <glyph glyph-name="F" unicode="F" horiz-adv-x="987" 
d="M170 0v1475h752v-138h-594v-489h565v-137h-565v-711h-158z" />
    <glyph glyph-name="G" unicode="G" horiz-adv-x="1221" 
d="M651 -33q-106 0 -184.5 26.5t-136 74t-96.5 113.5t-64 145q-28 88 -39.5 191t-11.5 220q0 131 15 234.5t38 175.5q37 125 109 209t171.5 117.5t206.5 33.5q177 0 282.5 -76t150.5 -214l-154 -58q-19 51 -41 89.5t-51 64.5q-37 32 -82.5 46.5t-104.5 14.5
q-80 0 -143 -27.5t-101 -72.5t-57 -96q-47 -131 -56 -221.5t-9 -215.5q0 -126 9 -215.5t23 -138t31 -90.5q41 -102 119 -149.5t180 -47.5q92 0 162.5 35.5t101.5 103t31 148.5v178h-297v137h453v-702h-137l-2 100q-57 -62 -135.5 -97.5t-180.5 -35.5z" />
    <glyph glyph-name="H" unicode="H" horiz-adv-x="1274" 
d="M170 0v1475h158v-607h618v607h158v-1475h-158v729h-618v-729h-158z" />
    <glyph glyph-name="I" unicode="I" horiz-adv-x="498" 
d="M170 0v1475h158v-1475h-158z" />
    <glyph glyph-name="J" unicode="J" horiz-adv-x="995" 
d="M434 -33q-79 0 -146.5 17.5t-102.5 41.5t-58 48q-29 29 -52 68t-40 91l147 58q15 -55 39 -91.5t54.5 -58.5t68.5 -31.5t82 -9.5q54 0 97 15.5t69 40.5q57 52 70.5 155t13.5 217v947h158v-938q0 -148 -9.5 -231t-36 -140t-63.5 -94q-50 -50 -119.5 -77.5t-171.5 -27.5z
" />
    <glyph glyph-name="K" unicode="K" horiz-adv-x="1155" 
d="M170 0v1475h158v-762l602 762h170l-445 -564l492 -911h-186l-414 776l-219 -280v-496h-158z" />
    <glyph glyph-name="L" unicode="L" horiz-adv-x="981" 
d="M170 0v1475h158v-1338h618v-137h-776z" />
    <glyph glyph-name="M" unicode="M" horiz-adv-x="1477" 
d="M170 0v1475h201l368 -887l377 887h191v-1475h-150v1255l-348 -845h-147l-343 841v-1251h-149z" />
    <glyph glyph-name="N" unicode="N" horiz-adv-x="1262" 
d="M170 0v1475h188l582 -1227v1227h152v-1475h-177l-593 1247v-1247h-152z" />
    <glyph glyph-name="O" unicode="O" horiz-adv-x="1331" 
d="M666 -33q-109 0 -191.5 26.5t-142.5 74.5t-99.5 114.5t-62.5 145.5q-26 88 -38.5 199.5t-12.5 209.5q0 72 6 154.5t18 145t27 110.5q38 127 111.5 210.5t174.5 116.5t210 33q104 0 186 -26.5t143 -74.5t102 -114t64 -145q25 -88 38 -200t13 -210q0 -109 -13 -218
t-38 -191q-39 -128 -113.5 -211t-176.5 -116.5t-205 -33.5zM666 100q78 0 145 27.5t106 73.5t58 98q38 106 50.5 210t12.5 228q0 164 -14.5 253.5t-48.5 185.5q-28 74 -84.5 120.5t-115.5 62t-109 15.5q-81 0 -145.5 -26.5t-105 -73.5t-59.5 -98q-45 -121 -54 -216t-9 -223
q0 -166 14 -255t49 -183q20 -52 52 -89.5t72.5 -62t87.5 -36t98 -11.5z" />
    <glyph glyph-name="P" unicode="P" horiz-adv-x="1110" 
d="M170 0v1475h440q156 0 253.5 -69t130 -171t32.5 -195q0 -98 -25.5 -178t-80 -137.5t-141.5 -89t-210 -31.5h-243v-604h-156zM326 731h245q137 0 211 77t74 234q0 119 -41.5 187.5t-113.5 93.5t-156 25h-219v-617z" />
    <glyph glyph-name="Q" unicode="Q" horiz-adv-x="1331" 
d="M1135 -117l-181 158q-57 -35 -128 -54.5t-160 -19.5q-109 0 -191.5 26.5t-142.5 74.5t-99.5 114.5t-62.5 145.5q-26 88 -38.5 199.5t-12.5 209.5q0 72 6 154.5t18 145t27 110.5q38 127 111.5 210.5t174.5 116.5t210 33q104 0 186 -26.5t143 -74.5t102 -114t64 -145
q25 -88 38 -200t13 -210q0 -109 -13 -218t-38 -191q-17 -54 -41.5 -103.5t-58.5 -89.5l166 -145zM666 100q48 0 91.5 10.5t84.5 30.5l-156 138l92 106l168 -147q19 34 29 61q38 106 50.5 210t12.5 228q0 164 -14.5 253.5t-48.5 185.5q-28 74 -84.5 120.5t-115.5 62
t-109 15.5q-81 0 -145.5 -26.5t-105 -73.5t-59.5 -98q-45 -121 -54 -216t-9 -223q0 -166 14 -255t49 -183q20 -52 52 -89.5t72.5 -62t87.5 -36t98 -11.5z" />
    <glyph glyph-name="R" unicode="R" horiz-adv-x="1145" 
d="M170 0v1475h465q108 0 186.5 -32t129.5 -89t75.5 -135.5t24.5 -171.5q0 -96 -27 -179t-82.5 -136t-128.5 -81l291 -651h-184l-265 618q-14 -2 -29 -2h-32h-268v-616h-156zM326 743h270q135 0 210 74.5t75 231.5q0 114 -41 182.5t-114 92.5t-157 24h-243v-605z" />
    <glyph glyph-name="S" unicode="S" horiz-adv-x="1157" 
d="M575 -33q-101 0 -180 21.5t-139.5 61.5t-103.5 95t-72 123l143 68q24 -50 55 -93t72 -75t94.5 -50t122.5 -18q71 0 139 19.5t117 66.5q31 29 48.5 71.5t17.5 100.5q0 66 -24.5 114t-60 73.5t-67.5 40.5q-19 9 -58.5 24.5t-81.5 31.5t-78.5 29.5t-49.5 18.5
q-116 45 -185 90.5t-104 91.5q-35 47 -52 106t-17 118q0 36 3.5 69t18.5 81t55.5 102.5t103 91t139 52t159.5 15.5q167 0 275.5 -65t170.5 -193l-139 -71q-41 82 -96 128t-112.5 59t-108.5 13q-81 0 -145.5 -22t-106.5 -72q-34 -41 -45 -84.5t-11 -97.5q0 -57 28 -102
t79 -81.5t121.5 -66.5t154.5 -57q128 -43 205 -85.5t105.5 -75t42.5 -54.5q28 -49 39.5 -101t11.5 -106q0 -119 -60.5 -217t-174 -143.5t-249.5 -45.5z" />
    <glyph glyph-name="T" unicode="T" horiz-adv-x="1036" 
d="M440 0v1337h-415v138h987v-138h-414v-1337h-158z" />
    <glyph glyph-name="U" unicode="U" horiz-adv-x="1237" 
d="M616 -33q-107 0 -193 24.5t-146 81.5t-92.5 149.5t-32.5 228.5v1024h157v-1024q0 -183 78.5 -265t228.5 -82q154 0 233 82t79 265v1024h157v-1024q0 -136 -32.5 -228.5t-93 -149.5t-147.5 -81.5t-196 -24.5z" />
    <glyph glyph-name="V" unicode="V" horiz-adv-x="1106" 
d="M469 0l-451 1475h170l365 -1262l379 1262h155l-452 -1475h-166z" />
    <glyph glyph-name="W" unicode="W" horiz-adv-x="1583" 
d="M356 0l-338 1475h170l250 -1252l281 1252h160l266 -1252l264 1252h156l-340 -1475h-166l-268 1182l-269 -1182h-166z" />
    <glyph glyph-name="X" unicode="X" horiz-adv-x="1044" 
d="M18 0l422 782l-368 693h170l282 -539l287 539h160l-367 -682l422 -793h-170l-338 641l-340 -641h-160z" />
    <glyph glyph-name="Y" unicode="Y" horiz-adv-x="1053" 
d="M436 0v600l-418 875h162l344 -736l355 736h155l-440 -875v-600h-158z" />
    <glyph glyph-name="Z" unicode="Z" horiz-adv-x="952" 
d="M29 0v127l704 1210h-680v138h846v-129l-702 -1209h727v-137h-895z" />
    <glyph glyph-name="bracketleft" unicode="[" horiz-adv-x="604" 
d="M152 -393v1868h403v-127h-254v-1614h254v-127h-403z" />
    <glyph glyph-name="backslash" unicode="\" horiz-adv-x="621" 
d="M473 0l-455 1475h129l455 -1475h-129z" />
    <glyph glyph-name="bracketright" unicode="]" horiz-adv-x="604" 
d="M49 -393v127h254v1614h-254v127h404v-1868h-404z" />
    <glyph glyph-name="asciicircum" unicode="^" horiz-adv-x="979" 
d="M133 819l-88 70l449 618l438 -622l-92 -64l-346 490z" />
    <glyph glyph-name="underscore" unicode="_" horiz-adv-x="1024" 
d="M0 -262v108h1024v-108h-1024z" />
    <glyph glyph-name="grave" unicode="`" horiz-adv-x="698" 
d="M352 1200l-215 260h217l105 -260h-107z" />
    <glyph glyph-name="a" unicode="a" horiz-adv-x="1016" 
d="M416 -27q-39 0 -77.5 7t-72.5 21t-62.5 34.5t-47.5 46.5q-31 43 -49.5 95t-18.5 118q0 59 15.5 107t41.5 83q47 63 127 93t195 30h264v137q0 85 -40 134t-91.5 62t-95.5 13q-96 0 -154 -37t-90 -108l-127 43q40 106 132 163.5t245 57.5q100 0 173.5 -25.5t123.5 -80.5
q42 -45 59 -98t17 -128v-741h-150v106q-51 -53 -105 -83.5t-109 -40t-103 -9.5zM463 96q78 0 144 38t96 90.5t30 101.5v174h-221q-74 0 -126 -13.5t-85 -39.5t-48 -63t-15 -85q0 -45 11 -81t36 -62q57 -60 178 -60z" />
    <glyph glyph-name="b" unicode="b" horiz-adv-x="1059" 
d="M594 -33q-102 0 -180 41.5t-129 126.5v-135h-150v1475h150v-543q58 70 132 105.5t181 35.5q103 0 177 -40t120 -130q32 -65 49 -157.5t17 -217.5q0 -106 -12 -186.5t-34 -142.5q-34 -96 -92 -151t-119.5 -68t-109.5 -13zM549 96q103 0 159 55.5t76 149.5q7 31 14 97
t7 130q0 66 -5.5 123.5t-19.5 108.5q-16 62 -47 104.5t-77.5 61t-100.5 18.5q-52 0 -101 -18.5t-86.5 -55.5t-60 -92.5t-22.5 -128.5v-254q0 -66 19 -121t53.5 -94.5t83.5 -61.5t108 -22z" />
    <glyph glyph-name="c" unicode="c" horiz-adv-x="905" 
d="M520 -33q-81 0 -144 19t-109.5 53.5t-78.5 82.5t-51 107q-23 72 -31 145.5t-8 145.5t8 146t31 143q32 97 91 157t137 83.5t161 23.5q103 0 176.5 -38t110.5 -95.5t53 -112.5l-135 -47q-17 45 -37 76.5t-46 52t-59 30t-75 9.5q-74 0 -130 -34.5t-85 -106.5
q-27 -66 -36 -125t-9 -162q0 -128 11.5 -182t31.5 -100q31 -76 91 -110t134 -34q76 0 135 39t93 127l127 -49q-33 -88 -89 -144t-126 -78t-142 -22z" />
    <glyph glyph-name="d" unicode="d" horiz-adv-x="1059" 
d="M465 -33q-48 0 -95 11.5t-88.5 38.5t-76.5 72t-60 112q-23 62 -35 142t-12 185q0 125 18.5 218t55.5 159q48 88 123.5 128t177.5 40q79 0 139.5 -21t98 -54t63.5 -66v543h150v-1475h-150v135q-51 -85 -129 -126.5t-180 -41.5zM510 96q89 0 152.5 48t87.5 116.5t24 134.5
v254q0 102 -46 173.5t-109 96.5t-115 25q-79 0 -128.5 -33t-68.5 -74t-28 -77q-14 -51 -19.5 -108.5t-5.5 -123.5q0 -74 6 -135t14 -92q10 -47 29 -85t48 -64.5t68.5 -41t90.5 -14.5z" />
    <glyph glyph-name="e" unicode="e" horiz-adv-x="989" 
d="M516 -33q-78 0 -140.5 18.5t-109 50.5t-77.5 74.5t-48 90.5q-23 65 -33 137t-10 160q0 120 14 210.5t44.5 154.5t70.5 104q48 49 118.5 77.5t172.5 28.5q93 0 158 -24.5t110 -69.5q66 -66 90.5 -169.5t24.5 -246.5v-92h-653v-22q0 -103 21.5 -171.5t59 -110t89.5 -58.5
t112 -17q61 0 111.5 21t79.5 51.5t47 56.5l115 -65q-38 -64 -91.5 -107.5t-125 -62.5t-150.5 -19zM250 590h504q0 153 -34.5 236.5t-93.5 105.5t-118 22q-54 0 -99.5 -16.5t-80 -58t-55 -111.5t-23.5 -178z" />
    <glyph glyph-name="f" unicode="f" horiz-adv-x="551" 
d="M156 0v926h-136v114h136v99q0 101 21 161t59 97q46 46 106.5 64t122.5 18q73 0 110 -6v-125q-37 6 -92 6q-34 0 -69 -8.5t-64 -40.5q-20 -23 -32.5 -61.5t-12.5 -108.5v-95h238v-114h-238v-926h-149z" />
    <glyph glyph-name="g" unicode="g" horiz-adv-x="1059" 
d="M524 -434q-152 0 -253.5 55t-139.5 154l127 43q31 -65 97.5 -99t162.5 -34q57 0 110.5 12t90.5 49q26 27 39.5 69t13.5 126v178q-50 -56 -102 -87t-103.5 -39.5t-101.5 -8.5q-48 0 -95 10.5t-88.5 36t-76.5 69t-60 109.5q-21 60 -34 140.5t-13 187.5q0 120 18 210.5
t52 155.5q46 90 123 130t182 40q108 0 185.5 -39t115.5 -121v127h150v-1106q0 -90 -18 -153t-62 -111q-51 -53 -135.5 -78.5t-184.5 -25.5zM510 113q89 0 152.5 48t87.5 116.5t24 134.5v237q0 102 -46 173.5t-109 96.5t-115 25q-79 0 -128.5 -33t-68.5 -74t-28 -77
q-14 -51 -19.5 -104t-5.5 -119q0 -62 5.5 -120.5t14.5 -99.5q10 -47 29 -84.5t48 -64t68.5 -41t90.5 -14.5z" />
    <glyph glyph-name="h" unicode="h" horiz-adv-x="1047" 
d="M135 0v1475h148v-580q65 97 149 137.5t186 40.5q93 0 162.5 -39t101 -110.5t31.5 -157.5v-766h-149v707q0 122 -48 175.5t-151 53.5q-60 0 -111 -28t-88.5 -74t-59 -104t-21.5 -118v-612h-150z" />
    <glyph glyph-name="i" unicode="i" horiz-adv-x="420" 
d="M135 0v1040h150v-1040h-150zM135 1303v172h150v-172h-150z" />
    <glyph glyph-name="j" unicode="j" horiz-adv-x="428" 
d="M-10 -393q-11 0 -22.5 1t-22.5 1v125q9 -2 17 -2h13q77 0 113 29.5t45.5 75.5t9.5 93v1110h150v-1132q0 -68 -15 -123.5t-53 -95.5q-35 -38 -92 -60t-143 -22zM143 1303v172h150v-172h-150z" />
    <glyph glyph-name="k" unicode="k" horiz-adv-x="909" 
d="M135 0v1475h150v-867l424 432h176l-334 -344l350 -696h-170l-295 580l-151 -158v-422h-150z" />
    <glyph glyph-name="l" unicode="l" horiz-adv-x="420" 
d="M135 0v1475h150v-1475h-150z" />
    <glyph glyph-name="m" unicode="m" horiz-adv-x="1610" 
d="M135 0v1040h148v-145q39 67 97.5 109t117.5 55.5t104 13.5t87 -9t76.5 -30.5t60.5 -57t40 -87.5q44 74 106.5 117t121.5 55t104 12q95 0 160.5 -38.5t92 -110t26.5 -158.5v-766h-150v707q0 97 -21 147.5t-64.5 66t-94.5 15.5q-79 0 -146.5 -60t-93.5 -132t-26 -132v-612
h-150v707q0 97 -21 147.5t-64.5 66t-94.5 15.5q-79 0 -146.5 -60t-93.5 -132t-26 -132v-612h-150z" />
    <glyph glyph-name="n" unicode="n" horiz-adv-x="1047" 
d="M135 0v1040h148v-145q65 97 149 137.5t186 40.5q93 0 162.5 -39t101 -110.5t31.5 -157.5v-766h-149v707q0 122 -48 175.5t-151 53.5q-60 0 -111 -28t-88.5 -74t-59 -104t-21.5 -118v-612h-150z" />
    <glyph glyph-name="o" unicode="o" horiz-adv-x="1032" 
d="M516 -33q-80 0 -142.5 19t-109 53.5t-78 82.5t-49.5 107q-23 72 -31 145.5t-8 145.5t9 146t30 143q30 96 88 156.5t134.5 84t156.5 23.5q112 0 196 -41.5t125.5 -103t59.5 -119.5q22 -71 29.5 -144t7.5 -145t-7 -145.5t-32 -145.5q-33 -93 -91 -152.5t-134.5 -84.5
t-153.5 -25zM516 92q72 0 130.5 34t86.5 105q22 57 33.5 119t11.5 170t-10.5 164t-34.5 123q-19 49 -56 81.5t-81.5 45t-79.5 12.5q-71 0 -130 -33.5t-87 -105.5q-27 -66 -36 -125t-9 -162q0 -114 10.5 -172.5t34.5 -116.5q28 -71 87 -105t130 -34z" />
    <glyph glyph-name="p" unicode="p" horiz-adv-x="1059" 
d="M135 -393v1433h150v-135q101 168 313 168q103 0 177 -40t120 -130q32 -65 49 -157.5t17 -217.5q0 -111 -13.5 -194.5t-36.5 -145.5q-35 -91 -92 -141.5t-117 -65t-108 -14.5q-101 0 -174.5 32t-134.5 107v-499h-150zM549 96q103 0 159 55.5t76 149.5q7 31 14 97t7 130
q0 66 -5.5 123.5t-19.5 108.5q-16 62 -47 104.5t-77.5 61t-100.5 18.5q-52 0 -101 -18.5t-86.5 -55.5t-60 -92.5t-22.5 -128.5v-254q0 -66 19 -121t53.5 -94.5t83.5 -61.5t108 -22z" />
    <glyph glyph-name="q" unicode="q" horiz-adv-x="1059" 
d="M772 -393v495q-53 -57 -103.5 -87t-102 -39t-101.5 -9q-48 0 -95 11.5t-88.5 38.5t-76.5 72t-60 112q-23 62 -35 142t-12 185q0 125 18.5 218t55.5 159q48 88 123.5 128t177.5 40q108 0 185.5 -39t115.5 -121v127h150v-1433h-152zM510 96q89 0 152.5 48t87.5 116.5
t24 134.5v254q0 102 -46 173.5t-109 96.5t-115 25q-79 0 -128.5 -33t-68.5 -74t-28 -77q-14 -51 -19.5 -108.5t-5.5 -123.5q0 -74 6 -135t14 -92q10 -47 29 -85t48 -64.5t68.5 -41t90.5 -14.5z" />
    <glyph glyph-name="r" unicode="r" horiz-adv-x="643" 
d="M135 0v1040h148v-225q40 91 104 144.5t122 69t97 15.5h21v-151h-39q-90 0 -152.5 -43t-95.5 -109t-44 -135t-11 -133v-473h-150z" />
    <glyph glyph-name="s" unicode="s" horiz-adv-x="915" 
d="M471 -33q-78 0 -140 17.5t-110 48.5q-88 61 -129 164l121 57q27 -57 65.5 -95.5t88 -53.5t98.5 -15q71 0 124.5 20.5t77 59.5t23.5 88q0 55 -26 90.5t-76 61.5q-104 37 -138.5 48.5t-58.5 22.5q-83 32 -139 65.5t-82 67.5t-38.5 74.5t-12.5 83.5q0 32 8.5 71t28.5 77
q27 48 73.5 84t111.5 52.5t140 16.5q127 0 213 -49.5t131 -149.5l-116 -61q-21 44 -47 72t-55 44.5t-61 22.5t-65 6q-57 0 -98.5 -11.5t-73.5 -39.5q-23 -20 -36 -49t-13 -70q0 -38 19 -68t56.5 -55.5t94 -48t131.5 -45.5q123 -38 169.5 -76t68.5 -71q15 -25 28 -61t13 -95
q0 -67 -19 -107.5t-49 -80.5q-43 -57 -131 -85t-170 -28z" />
    <glyph glyph-name="t" unicode="t" horiz-adv-x="553" 
d="M449 -16q-91 0 -148 24.5t-89.5 69t-44 107t-11.5 137.5v604h-136v114h136v283h149v-283h215v-114h-215v-604q0 -51 5 -90.5t22 -67t49 -41.5t86 -14q35 0 65 6v-125q-37 -6 -83 -6z" />
    <glyph glyph-name="u" unicode="u" horiz-adv-x="1049" 
d="M434 -33q-59 0 -113.5 16t-96 52.5t-66.5 95t-25 143.5v766h150v-702q0 -64 12.5 -108t37.5 -71.5t63 -40t89 -12.5q60 0 111 28t88.5 73t58.5 103t21 118v612h149v-1040h-147v145q-65 -97 -149 -137.5t-183 -40.5z" />
    <glyph glyph-name="v" unicode="v" horiz-adv-x="920" 
d="M391 0l-373 1040h150l297 -829l295 829h141l-373 -1040h-137z" />
    <glyph glyph-name="w" unicode="w" horiz-adv-x="1327" 
d="M309 0l-291 1040h150l215 -839l213 839h143l215 -839l213 839h142l-291 -1040h-137l-217 788l-218 -788h-137z" />
    <glyph glyph-name="x" unicode="x" horiz-adv-x="866" 
d="M29 0l327 524l-315 516h162l233 -389l240 389h149l-313 -505l326 -535h-162l-246 410l-250 -410h-151z" />
    <glyph glyph-name="y" unicode="y" horiz-adv-x="924" 
d="M139 -393q-11 0 -20 2v131h37q28 2 51 9.5t42.5 23.5t36 42t31.5 66l62 164l-361 995h150l289 -794l299 794h149l-452 -1190q-29 -75 -59.5 -122.5t-65.5 -74t-75.5 -36.5t-88.5 -10h-25z" />
    <glyph glyph-name="z" unicode="z" horiz-adv-x="739" 
d="M29 0v115l516 811h-490v114h652v-114l-517 -811h521v-115h-682z" />
    <glyph glyph-name="braceleft" unicode="{" horiz-adv-x="625" 
d="M575 -393q-65 0 -112 6t-80 22q-45 21 -80 63t-47 110.5t-12 185.5v168q0 133 -17 184q-14 47 -48 80t-130 41v147q37 2 72 11.5t63.5 35t42.5 74.5q17 49 17 185v167q0 70 7 145t36.5 130t95.5 84q33 14 80 21.5t112 7.5v-127q-61 0 -105 -13.5t-59.5 -60.5t-15.5 -168
v-186q0 -125 -18 -203q-6 -25 -16.5 -49.5t-30 -47t-47 -42t-68.5 -37.5q57 -27 101 -68t61 -108q18 -78 18 -203v-187q0 -71 7.5 -128.5t43 -85t129.5 -27.5v-127z" />
    <glyph glyph-name="bar" unicode="|" horiz-adv-x="465" 
d="M170 -176v1651h123v-1651h-123z" />
    <glyph glyph-name="braceright" unicode="}" horiz-adv-x="625" 
d="M49 -393v127q94 0 130 27.5t43 85t7 128.5v187q0 125 19 203q16 67 60 108t102 68q-41 18 -69 37.5t-47.5 42t-29.5 47t-16 49.5q-19 78 -19 203v186q0 121 -15 168t-59 60.5t-106 13.5v127q66 0 113 -7.5t80 -21.5q65 -29 95 -84t37 -130t7 -145v-167q0 -136 16 -185
q15 -49 43.5 -74.5t63.5 -35t71 -11.5v-147q-96 -8 -129.5 -41t-48.5 -80q-16 -51 -16 -184v-168q0 -117 -12.5 -185.5t-47 -110.5t-79.5 -63q-33 -16 -80 -22t-113 -6z" />
    <glyph glyph-name="asciitilde" unicode="~" horiz-adv-x="1024" 
d="M125 580l-86 65q31 64 82 115q38 38 85.5 62t102.5 24q37 0 91.5 -17t125.5 -49q144 -67 189 -67q32 0 59 13t51 38q36 34 74 94l86 -65q-17 -32 -38.5 -62.5t-47.5 -56.5q-38 -37 -84 -59.5t-100 -22.5q-37 0 -92.5 15.5t-126.5 49.5q-144 68 -187 68q-34 0 -62.5 -14.5
t-56.5 -42.5q-44 -56 -65 -88z" />
    <glyph glyph-name="uni00A0" unicode="&#xa0;" horiz-adv-x="528" 
 />
    <glyph glyph-name="exclamdown" unicode="&#xa1;" horiz-adv-x="586" 
d="M209 -434l16 1089h137l17 -1089h-170zM199 823v217h188v-217h-188z" />
    <glyph glyph-name="cent" unicode="&#xa2;" horiz-adv-x="1090" 
d="M522 -276v245q-100 9 -172.5 50.5t-107.5 99t-54 112.5q-24 72 -31 137t-7 152q0 72 8 146t32 143q31 89 80 145t115 83t137 34v209h111v-209q125 -12 200 -73.5t109 -170.5l-131 -43q-28 78 -73.5 115t-104.5 45v-846q66 10 114.5 48.5t77.5 113.5l127 -49
q-30 -80 -78.5 -133t-112.5 -78t-128 -31v-245h-111zM522 100v844q-62 -9 -102.5 -43t-65.5 -94q-23 -55 -36 -116t-13 -171q0 -120 10 -172.5t35 -109.5q25 -60 68.5 -93.5t103.5 -44.5z" />
    <glyph glyph-name="sterling" unicode="&#xa3;" horiz-adv-x="1090" 
d="M119 0v127q145 127 204.5 199t71 120t11.5 91q0 37 -27 100h-242v121h164q-58 77 -93 139t-50 116t-15 101q0 82 24 144t71 108q52 53 131.5 81t187.5 28q100 0 185.5 -27.5t144.5 -93.5q37 -42 60.5 -92t31.5 -103l-150 -35q-22 81 -57 130.5t-93 71.5t-128 22
q-80 0 -127 -21t-76 -53q-51 -60 -51 -148q0 -34 8 -66t21 -63q17 -38 38.5 -71.5t43.5 -61.5q59 -78 77 -106h357v-121h-295q12 -48 12 -72q0 -102 -28 -172t-88.5 -134.5t-135.5 -129.5h662v-129h-850z" />
    <glyph glyph-name="currency" unicode="&#xa4;" horiz-adv-x="1090" 
d="M176 289l-82 84l121 121q-38 51 -59 112.5t-21 130.5t22 132t60 116l-123 123l84 84l123 -123q51 37 113 58.5t131 21.5q62 0 122.5 -19t123.5 -61l122 123l82 -84l-123 -123q39 -53 60.5 -115t21.5 -133q0 -68 -20.5 -129.5t-59.5 -113.5l123 -121l-84 -84l-120 123
q-51 -41 -114 -62.5t-134 -21.5q-69 0 -132 21.5t-116 60.5zM545 440q91 0 163.5 49t103 117.5t30.5 130.5q0 91 -49.5 163t-118.5 103t-129 31q-92 0 -166 -50.5t-102.5 -118t-28.5 -128.5q0 -62 23.5 -116t63.5 -94t94 -63.5t116 -23.5z" />
    <glyph glyph-name="yen" unicode="&#xa5;" horiz-adv-x="1090" 
d="M455 0v330h-344v110h344v144l-15 28h-329v111h276l-350 719h162l344 -719l354 719h156l-369 -719h295v-111h-352l-15 -28v-144h367v-110h-367v-330h-157z" />
    <glyph glyph-name="brokenbar" unicode="&#xa6;" horiz-adv-x="465" 
d="M170 -176v549h123v-549h-123zM170 926v549h123v-549h-123z" />
    <glyph glyph-name="section" unicode="&#xa7;" horiz-adv-x="940" 
d="M475 -319q-148 0 -243 64t-140 185l123 64q29 -80 74 -124.5t94.5 -57.5t93.5 -13q100 0 150.5 45.5t50.5 126.5q0 55 -37.5 104t-93.5 85.5t-105 64.5q-53 30 -111.5 65.5t-107 80t-80.5 100.5t-32 127q0 66 30 129t87.5 102t123.5 54q-67 38 -118.5 85t-75 102
t-23.5 108q0 95 43.5 165.5t125.5 101t181 30.5q135 0 216.5 -63.5t123.5 -180.5l-127 -53q-26 77 -62.5 118t-78 52.5t-80.5 11.5q-55 0 -94 -13t-63.5 -35.5t-36 -53t-11.5 -66.5q0 -42 22 -77t59 -66.5t86 -60.5t102 -60q62 -35 118 -71t98 -79t66.5 -96t24.5 -123
q0 -38 -12.5 -80t-41 -81t-73.5 -70.5t-109 -48.5q85 -55 128.5 -100t63 -101t19.5 -111q0 -65 -22.5 -118t-67 -90.5t-109.5 -57.5t-149 -20zM473 360q66 1 123.5 27t84 72t26.5 98q0 57 -33 103t-84 80t-96 61q-70 0 -129 -24.5t-86 -70t-27 -100.5q0 -41 16 -73.5t45 -61
t69.5 -55.5t90.5 -56z" />
    <glyph glyph-name="dieresis" unicode="&#xa8;" horiz-adv-x="698" 
d="M123 1222v174h145v-174h-145zM432 1222v174h143v-174h-143z" />
    <glyph glyph-name="copyright" unicode="&#xa9;" horiz-adv-x="1679" 
d="M840 -33q-139 0 -267.5 47.5t-230 133t-166.5 197.5t-85.5 207.5t-20.5 184.5q0 164 66.5 313.5t185.5 257t254.5 153.5t263.5 46q106 0 204.5 -27.5t184.5 -77.5t156 -120t120 -156t77.5 -184.5t27.5 -204.5q0 -167 -67.5 -316t-186 -256t-255.5 -152.5t-261 -45.5z
M840 84q142 0 267 57.5t216.5 158.5t130.5 217.5t39 219.5q0 90 -23.5 173t-66 156t-102.5 132.5t-132.5 102.5t-156 66.5t-172.5 23.5q-135 0 -254 -51.5t-208 -140.5t-140.5 -208t-51.5 -254q0 -89 23.5 -172.5t66.5 -156t102.5 -132.5t132.5 -102.5t156 -66t173 -23.5z
M836 289q-119 0 -193 51.5t-113 161.5q-12 35 -22 87.5t-10 133.5q0 74 10 130.5t24 94.5q39 105 115 157t201 52q215 0 282 -194l-112 -41q-22 53 -51.5 82.5t-61.5 39t-57 9.5q-63 0 -109.5 -21.5t-70.5 -75.5q-22 -49 -31.5 -108t-9.5 -125q0 -110 10.5 -153.5
t30.5 -75.5q28 -51 74 -74t102 -23q43 0 79 15.5t62.5 51t42.5 77.5l109 -39q-34 -109 -107.5 -161t-193.5 -52z" />
    <glyph glyph-name="ordfeminine" unicode="&#xaa;" horiz-adv-x="670" 
d="M262 760q-54 0 -103 17t-77 54q-22 28 -33.5 61t-11.5 77q0 77 39 125q32 40 87.5 61t133.5 21h170v81q0 67 -39.5 96t-105.5 29q-68 0 -103.5 -24t-54.5 -66l-96 39q27 69 89.5 106.5t168.5 37.5q68 0 117.5 -17.5t84.5 -52.5q28 -29 40 -63t12 -82v-482h-101v68
q-49 -48 -100.5 -67t-116.5 -19zM295 856q56 0 98 25t58 55t16 55v96h-141q-85 0 -128.5 -24t-43.5 -90q0 -35 10 -57.5t29 -35.5t44.5 -18.5t57.5 -5.5z" />
    <glyph glyph-name="guillemotleft" unicode="&#xab;" horiz-adv-x="1040" 
d="M426 37l-342 483l342 484l111 -60l-263 -424l263 -424zM848 37l-342 483l342 484l111 -60l-263 -424l263 -424z" />
    <glyph glyph-name="logicalnot" unicode="&#xac;" horiz-adv-x="1090" 
d="M874 473v412h-778v119h897v-531h-119z" />
    <glyph glyph-name="uni00AD" unicode="&#xad;" horiz-adv-x="698" 
d="M80 453v153h538v-153h-538z" />
    <glyph glyph-name="registered" unicode="&#xae;" horiz-adv-x="1679" 
d="M840 -33q-139 0 -267.5 47.5t-230 133t-166.5 197.5t-85.5 207.5t-20.5 184.5q0 164 66.5 313.5t185.5 257t254.5 153.5t263.5 46q106 0 204.5 -27.5t184.5 -77.5t156 -120t120 -156t77.5 -184.5t27.5 -204.5q0 -167 -67.5 -316t-186 -256t-255.5 -152.5t-261 -45.5z
M840 84q142 0 267 57.5t216.5 158.5t130.5 217.5t39 219.5q0 90 -23.5 173t-66 156t-102.5 132.5t-132.5 102.5t-156 66.5t-172.5 23.5q-135 0 -254 -51.5t-208 -140.5t-140.5 -208t-51.5 -254q0 -89 23.5 -172.5t66.5 -156t102.5 -132.5t132.5 -102.5t156 -66t173 -23.5z
M557 307v832h317q87 0 145 -38t77.5 -96t19.5 -114q0 -72 -19 -117.5t-48 -69t-56 -36.5l160 -361h-133l-141 334h-205v-334h-117zM674 743h180q68 0 102.5 34.5t34.5 113.5q0 81 -35.5 113t-115.5 32h-166v-293z" />
    <glyph glyph-name="macron" unicode="&#xaf;" horiz-adv-x="698" 
d="M37 1237v131h625v-131h-625z" />
    <glyph glyph-name="degree" unicode="&#xb0;" horiz-adv-x="721" 
d="M360 885q-65 0 -121.5 24.5t-98.5 66.5t-66.5 98.5t-24.5 121.5q0 95 51.5 171.5t123 108t136.5 31.5q95 0 172 -52t108.5 -123.5t31.5 -135.5q0 -65 -24.5 -121.5t-67 -98.5t-99.5 -66.5t-121 -24.5zM360 1008q55 0 103.5 32t67 75t18.5 81q0 58 -32.5 104t-75.5 65
t-81 19q-59 0 -105 -32.5t-64.5 -75t-18.5 -80.5q0 -56 31.5 -103.5t75 -66t81.5 -18.5z" />
    <glyph glyph-name="plusminus" unicode="&#xb1;" horiz-adv-x="1090" 
d="M96 0v119h897v-119h-897zM485 291v389h-389v119h389v387h119v-387h389v-119h-389v-389h-119z" />
    <glyph glyph-name="twosuperior" unicode="&#xb2;" 
d="M57 633v84l267 252q80 75 120 137t44 94t4 51q0 42 -17.5 72.5t-52.5 45.5t-76 15q-40 0 -68.5 -11t-48 -32t-32 -52.5t-19.5 -72.5l-117 9q6 40 19 83.5t44.5 80.5t87.5 61t146 24q109 0 171.5 -40t78 -91t15.5 -92q0 -63 -20.5 -112.5t-68 -107t-112.5 -118.5
l-189 -176h390v-104h-566z" />
    <glyph glyph-name="threesuperior" unicode="&#xb3;" 
d="M360 614q-74 0 -126 16.5t-86.5 46.5t-54 71t-27.5 89l118 9q11 -51 35 -84t58 -43.5t75 -10.5q63 0 101.5 29.5t50.5 77.5t12 90q0 33 -12.5 71.5t-28.5 55.5q-39 41 -119 41q-54 0 -104 -18l-49 77l270 224h-364v100h499v-107l-239 -196q15 2 34 2q41 0 87.5 -13
t80.5 -42q41 -35 58.5 -83t17.5 -120q0 -65 -21 -122.5t-75 -100.5q-37 -28 -84 -44t-107 -16z" />
    <glyph glyph-name="acute" unicode="&#xb4;" horiz-adv-x="698" 
d="M240 1200l104 260h217l-215 -260h-106z" />
    <glyph glyph-name="mu" unicode="&#xb5;" horiz-adv-x="1051" 
d="M135 -393v1433h150v-702q0 -134 57 -184q48 -48 145 -48q86 0 155.5 56.5t96.5 131t27 134.5v612h149v-1040h-147v145q-46 -74 -97.5 -114.5t-96 -52t-80.5 -11.5q-53 0 -99 15.5t-86 52.5q-16 16 -24 31v-459h-150z" />
    <glyph glyph-name="paragraph" unicode="&#xb6;" horiz-adv-x="1169" 
d="M539 -393v1022h-39q-90 0 -163.5 29t-135.5 87q-123 120 -123 312q0 65 17 124t55 111q69 104 183.5 143.5t272.5 39.5h533v-132h-109v-1736h-139v1736h-213v-1736h-139z" />
    <glyph glyph-name="periodcentered" unicode="&#xb7;" horiz-adv-x="586" 
d="M197 604v232h192v-232h-192z" />
    <glyph glyph-name="cedilla" unicode="&#xb8;" horiz-adv-x="698" 
d="M217 -403q-21 0 -47 4l6 94q60 0 98.5 6t63.5 18q45 22 45 62q0 32 -35.5 49.5t-124.5 17.5l53 175h117l-41 -119q54 -3 96.5 -20.5t62 -49t19.5 -67.5q0 -82 -81 -125q-41 -23 -99 -34t-133 -11z" />
    <glyph glyph-name="onesuperior" unicode="&#xb9;" 
d="M156 633v92h153v622l-178 -94l-45 86l246 135h94v-749h143v-92h-413z" />
    <glyph glyph-name="ordmasculine" unicode="&#xba;" horiz-adv-x="713" 
d="M356 754q-54 0 -96.5 12.5t-74 35t-53 54t-34.5 70.5q-15 46 -21.5 93t-6.5 95t6.5 95t21.5 94q19 61 58 100t92 55.5t108 16.5q74 0 131 -26.5t86.5 -67t42.5 -78.5q16 -47 21.5 -94t5.5 -95t-6 -95t-23 -93q-24 -60 -66 -102t-91.5 -56t-100.5 -14zM356 848
q57 0 89.5 22.5t46.5 59.5q30 82 30 184q0 92 -30 182q-21 52 -60.5 67t-75.5 15q-57 0 -89 -22t-46 -60q-31 -86 -31 -182q0 -112 31 -184q34 -82 135 -82z" />
    <glyph glyph-name="guillemotright" unicode="&#xbb;" horiz-adv-x="1040" 
d="M193 37l-111 59l262 424l-262 424l111 60l342 -484zM615 37l-111 59l262 424l-262 424l111 60l342 -484z" />
    <glyph glyph-name="onequarter" unicode="&#xbc;" horiz-adv-x="1628" 
d="M156 633v92h153v622l-178 -94l-45 86l246 135h94v-749h143v-92h-413zM516 -33l475 1508h121l-475 -1508h-121zM1327 -12v161h-385v97l383 583h119v-583h88v-97h-88v-161h-117zM1047 246h280v428z" />
    <glyph glyph-name="onehalf" unicode="&#xbd;" horiz-adv-x="1628" 
d="M156 633v92h153v622l-178 -94l-45 86l246 135h94v-749h143v-92h-413zM516 -33l475 1508h121l-475 -1508h-121zM971 1v84l267 252q80 75 120 137t44 94t4 51q0 42 -17.5 72.5t-52.5 45.5t-76 15q-40 0 -68.5 -11t-48 -32t-32 -52.5t-19.5 -72.5l-117 9q6 40 19 83.5
t44.5 80.5t87.5 61t146 24q109 0 171.5 -40t78 -91t15.5 -92q0 -63 -20.5 -112.5t-68 -107t-112.5 -118.5l-189 -176h390v-104h-566z" />
    <glyph glyph-name="threequarters" unicode="&#xbe;" horiz-adv-x="1628" 
d="M360 614q-74 0 -126 16.5t-86.5 46.5t-54 71t-27.5 89l118 9q11 -51 35 -84t58 -43.5t75 -10.5q63 0 101.5 29.5t50.5 77.5t12 90q0 33 -12.5 71.5t-28.5 55.5q-39 41 -119 41q-54 0 -104 -18l-49 77l270 224h-364v100h499v-107l-239 -196q15 2 34 2q41 0 87.5 -13
t80.5 -42q41 -35 58.5 -83t17.5 -120q0 -65 -21 -122.5t-75 -100.5q-37 -28 -84 -44t-107 -16zM536 -33l475 1508h121l-475 -1508h-121zM1329 -12v161h-385v97l383 583h119v-583h88v-97h-88v-161h-117zM1049 246h280v428z" />
    <glyph glyph-name="questiondown" unicode="&#xbf;" horiz-adv-x="971" 
d="M479 -434q-195 0 -295 102q-42 44 -64 100.5t-22 129.5q0 77 24.5 137.5t55.5 98.5t58 65q37 37 76.5 74t71.5 82t52.5 102t20.5 135v63h149v-57q0 -134 -46 -229.5t-103 -151.5t-95 -92q-64 -64 -85 -119t-21 -112q0 -92 51 -146q28 -29 68.5 -46t103.5 -17
q65 0 111 17.5t80 51.5q32 32 51 80.5t27 110.5l141 -21q-14 -90 -43.5 -149t-67.5 -99q-49 -47 -122 -78.5t-177 -31.5zM438 823v217h189v-217h-189z" />
    <glyph glyph-name="Agrave" unicode="&#xc0;" horiz-adv-x="1188" 
d="M18 0l476 1475h165l510 -1475h-170l-141 422h-553l-133 -422h-154zM346 553h467l-240 717zM545 1548l-215 260h217l105 -260h-107z" />
    <glyph glyph-name="Aacute" unicode="&#xc1;" horiz-adv-x="1188" 
d="M18 0l476 1475h165l510 -1475h-170l-141 422h-553l-133 -422h-154zM346 553h467l-240 717zM506 1548l104 260h217l-215 -260h-106z" />
    <glyph glyph-name="Acircumflex" unicode="&#xc2;" horiz-adv-x="1188" 
d="M18 0l476 1475h165l510 -1475h-170l-141 422h-553l-133 -422h-154zM346 553h467l-240 717zM307 1546l194 260h162l189 -260h-150l-119 170l-125 -170h-151z" />
    <glyph glyph-name="Atilde" unicode="&#xc3;" horiz-adv-x="1188" 
d="M18 0l476 1475h165l510 -1475h-170l-141 422h-553l-133 -422h-154zM346 553h467l-240 717zM287 1579q0 106 43 145q23 22 47 31.5t53 9.5q25 0 63.5 -9.5t88.5 -31.5q42 -18 69 -26.5t39 -8.5q20 0 34.5 16.5t20.5 61.5h101q0 -95 -39 -141q-20 -23 -44 -35t-54 -12
q-28 0 -64.5 9.5t-81.5 29.5q-89 39 -115 39q-23 0 -38 -16.5t-21 -61.5h-102z" />
    <glyph glyph-name="Adieresis" unicode="&#xc4;" horiz-adv-x="1188" 
d="M18 0l476 1475h165l510 -1475h-170l-141 422h-553l-133 -422h-154zM346 553h467l-240 717zM361 1570v174h145v-174h-145zM670 1570v174h143v-174h-143z" />
    <glyph glyph-name="Aring" unicode="&#xc5;" horiz-adv-x="1188" 
d="M18 0l459 1421q-40 25 -63 63.5t-23 88.5q0 37 13.5 69t39.5 58q29 28 63 40.5t75 12.5q37 0 70 -12.5t61 -38.5q57 -51 57 -129q0 -37 -12.5 -69t-40.5 -58q-20 -18 -37 -29l489 -1417h-170l-141 422h-557l-133 -422h-150zM342 553h471l-242 723zM582 1475q33 0 58 17
t35.5 38t10.5 41q0 21 -8.5 39t-22.5 30q-32 31 -73 31t-76 -31q-14 -12 -21.5 -30t-7.5 -39q0 -42 30 -69t75 -27z" />
    <glyph glyph-name="AE" unicode="&#xc6;" horiz-adv-x="1706" 
d="M8 0l778 1475h824v-138h-598v-510h569v-137h-569v-553h614v-137h-772v438h-469l-227 -438h-150zM455 569h399v768z" />
    <glyph glyph-name="Ccedilla" unicode="&#xc7;" horiz-adv-x="1167" 
d="M537 -403q-21 0 -47 4l6 94q60 0 98.5 6t63.5 18q45 22 45 62q0 32 -35.5 49.5t-124.5 17.5l37 124q-97 10 -170 46q-104 52 -169 150.5t-93.5 242t-28.5 326.5q0 209 35.5 355.5t104.5 238.5t170 134t233 42q176 0 281.5 -76t150.5 -214l-154 -58q-37 116 -105 165.5
t-173 49.5q-92 0 -161 -34t-115 -109.5t-69.5 -197t-23.5 -296.5q0 -159 19.5 -278.5t63.5 -199t114 -119.5t172 -40q76 0 138.5 29t100.5 86.5t57 126.5l146 -55q-21 -72 -56 -131t-88.5 -101t-126.5 -65q-61 -19 -139 -22l-22 -64q54 -3 96.5 -20.5t62 -49t19.5 -67.5
q0 -82 -81 -125q-41 -23 -99 -34t-133 -11z" />
    <glyph glyph-name="Egrave" unicode="&#xc8;" horiz-adv-x="1047" 
d="M170 0v1475h780v-138h-622v-510h594v-137h-594v-553h639v-137h-797zM585 1548l-215 260h217l105 -260h-107z" />
    <glyph glyph-name="Eacute" unicode="&#xc9;" horiz-adv-x="1047" 
d="M170 0v1475h780v-138h-622v-510h594v-137h-594v-553h639v-137h-797zM486 1548l104 260h217l-215 -260h-106z" />
    <glyph glyph-name="Ecircumflex" unicode="&#xca;" horiz-adv-x="1047" 
d="M170 0v1475h780v-138h-622v-510h594v-137h-594v-553h639v-137h-797zM293 1546l194 260h162l189 -260h-150l-119 170l-125 -170h-151z" />
    <glyph glyph-name="Edieresis" unicode="&#xcb;" horiz-adv-x="1047" 
d="M170 0v1475h780v-138h-622v-510h594v-137h-594v-553h639v-137h-797zM332 1570v174h145v-174h-145zM641 1570v174h143v-174h-143z" />
    <glyph glyph-name="Igrave" unicode="&#xcc;" horiz-adv-x="498" 
d="M170 0v1475h158v-1475h-158zM257 1548l-215 260h217l105 -260h-107z" />
    <glyph glyph-name="Iacute" unicode="&#xcd;" horiz-adv-x="498" 
d="M170 0v1475h158v-1475h-158zM155 1548l104 260h217l-215 -260h-106z" />
    <glyph glyph-name="Icircumflex" unicode="&#xce;" horiz-adv-x="498" 
d="M170 0v1475h158v-1475h-158zM-19 1546l194 260h162l189 -260h-150l-119 170l-125 -170h-151z" />
    <glyph glyph-name="Idieresis" unicode="&#xcf;" horiz-adv-x="498" 
d="M170 0v1475h158v-1475h-158zM22 1570v174h145v-174h-145zM331 1570v174h143v-174h-143z" />
    <glyph glyph-name="Eth" unicode="&#xd0;" horiz-adv-x="1253" 
d="M170 0v694h-135v129h135v652h334q172 0 287.5 -42t189.5 -118q84 -88 119 -220.5t35 -310.5q0 -158 -20.5 -284.5t-65.5 -215.5t-103 -145q-66 -63 -163.5 -101t-237.5 -38h-375zM328 131h153q84 0 148 11.5t108 36t76 54.5q53 53 88 138.5t47.5 194t12.5 218.5
q0 158 -28 266.5t-91 176.5q-59 61 -145.5 88.5t-215.5 27.5h-153v-520h301v-129h-301v-563z" />
    <glyph glyph-name="Ntilde" unicode="&#xd1;" horiz-adv-x="1262" 
d="M170 0v1475h188l582 -1227v1227h152v-1475h-177l-593 1247v-1247h-152zM355 1579q0 106 43 145q23 22 47 31.5t53 9.5q25 0 63.5 -9.5t88.5 -31.5q42 -18 69 -26.5t39 -8.5q20 0 34.5 16.5t20.5 61.5h101q0 -95 -39 -141q-20 -23 -44 -35t-54 -12q-28 0 -64.5 9.5
t-81.5 29.5q-89 39 -115 39q-23 0 -38 -16.5t-21 -61.5h-102z" />
    <glyph glyph-name="Ograve" unicode="&#xd2;" horiz-adv-x="1331" 
d="M666 -33q-109 0 -191.5 26.5t-142.5 74.5t-99.5 114.5t-62.5 145.5q-26 88 -38.5 199.5t-12.5 209.5q0 72 6 154.5t18 145t27 110.5q38 127 111.5 210.5t174.5 116.5t210 33q104 0 186 -26.5t143 -74.5t102 -114t64 -145q25 -88 38 -200t13 -210q0 -109 -13 -218
t-38 -191q-39 -128 -113.5 -211t-176.5 -116.5t-205 -33.5zM666 100q78 0 145 27.5t106 73.5t58 98q38 106 50.5 210t12.5 228q0 164 -14.5 253.5t-48.5 185.5q-28 74 -84.5 120.5t-115.5 62t-109 15.5q-81 0 -145.5 -26.5t-105 -73.5t-59.5 -98q-45 -121 -54 -216t-9 -223
q0 -166 14 -255t49 -183q20 -52 52 -89.5t72.5 -62t87.5 -36t98 -11.5zM692 1548l-215 260h217l105 -260h-107z" />
    <glyph glyph-name="Oacute" unicode="&#xd3;" horiz-adv-x="1331" 
d="M666 -33q-109 0 -191.5 26.5t-142.5 74.5t-99.5 114.5t-62.5 145.5q-26 88 -38.5 199.5t-12.5 209.5q0 72 6 154.5t18 145t27 110.5q38 127 111.5 210.5t174.5 116.5t210 33q104 0 186 -26.5t143 -74.5t102 -114t64 -145q25 -88 38 -200t13 -210q0 -109 -13 -218
t-38 -191q-39 -128 -113.5 -211t-176.5 -116.5t-205 -33.5zM666 100q78 0 145 27.5t106 73.5t58 98q38 106 50.5 210t12.5 228q0 164 -14.5 253.5t-48.5 185.5q-28 74 -84.5 120.5t-115.5 62t-109 15.5q-81 0 -145.5 -26.5t-105 -73.5t-59.5 -98q-45 -121 -54 -216t-9 -223
q0 -166 14 -255t49 -183q20 -52 52 -89.5t72.5 -62t87.5 -36t98 -11.5zM559 1548l104 260h217l-215 -260h-106z" />
    <glyph glyph-name="Ocircumflex" unicode="&#xd4;" horiz-adv-x="1331" 
d="M666 -33q-109 0 -191.5 26.5t-142.5 74.5t-99.5 114.5t-62.5 145.5q-26 88 -38.5 199.5t-12.5 209.5q0 72 6 154.5t18 145t27 110.5q38 127 111.5 210.5t174.5 116.5t210 33q104 0 186 -26.5t143 -74.5t102 -114t64 -145q25 -88 38 -200t13 -210q0 -109 -13 -218
t-38 -191q-39 -128 -113.5 -211t-176.5 -116.5t-205 -33.5zM666 100q78 0 145 27.5t106 73.5t58 98q38 106 50.5 210t12.5 228q0 164 -14.5 253.5t-48.5 185.5q-28 74 -84.5 120.5t-115.5 62t-109 15.5q-81 0 -145.5 -26.5t-105 -73.5t-59.5 -98q-45 -121 -54 -216t-9 -223
q0 -166 14 -255t49 -183q20 -52 52 -89.5t72.5 -62t87.5 -36t98 -11.5zM391 1546l194 260h162l189 -260h-150l-119 170l-125 -170h-151z" />
    <glyph glyph-name="Otilde" unicode="&#xd5;" horiz-adv-x="1331" 
d="M666 -33q-109 0 -191.5 26.5t-142.5 74.5t-99.5 114.5t-62.5 145.5q-26 88 -38.5 199.5t-12.5 209.5q0 72 6 154.5t18 145t27 110.5q38 127 111.5 210.5t174.5 116.5t210 33q104 0 186 -26.5t143 -74.5t102 -114t64 -145q25 -88 38 -200t13 -210q0 -109 -13 -218
t-38 -191q-39 -128 -113.5 -211t-176.5 -116.5t-205 -33.5zM666 100q78 0 145 27.5t106 73.5t58 98q38 106 50.5 210t12.5 228q0 164 -14.5 253.5t-48.5 185.5q-28 74 -84.5 120.5t-115.5 62t-109 15.5q-81 0 -145.5 -26.5t-105 -73.5t-59.5 -98q-45 -121 -54 -216t-9 -223
q0 -166 14 -255t49 -183q20 -52 52 -89.5t72.5 -62t87.5 -36t98 -11.5zM398 1579q0 106 43 145q23 22 47 31.5t53 9.5q25 0 63.5 -9.5t88.5 -31.5q42 -18 69 -26.5t39 -8.5q20 0 34.5 16.5t20.5 61.5h101q0 -95 -39 -141q-20 -23 -44 -35t-54 -12q-28 0 -64.5 9.5
t-81.5 29.5q-89 39 -115 39q-23 0 -38 -16.5t-21 -61.5h-102z" />
    <glyph glyph-name="Odieresis" unicode="&#xd6;" horiz-adv-x="1331" 
d="M666 -33q-109 0 -191.5 26.5t-142.5 74.5t-99.5 114.5t-62.5 145.5q-26 88 -38.5 199.5t-12.5 209.5q0 72 6 154.5t18 145t27 110.5q38 127 111.5 210.5t174.5 116.5t210 33q104 0 186 -26.5t143 -74.5t102 -114t64 -145q25 -88 38 -200t13 -210q0 -109 -13 -218
t-38 -191q-39 -128 -113.5 -211t-176.5 -116.5t-205 -33.5zM666 100q78 0 145 27.5t106 73.5t58 98q38 106 50.5 210t12.5 228q0 164 -14.5 253.5t-48.5 185.5q-28 74 -84.5 120.5t-115.5 62t-109 15.5q-81 0 -145.5 -26.5t-105 -73.5t-59.5 -98q-45 -121 -54 -216t-9 -223
q0 -166 14 -255t49 -183q20 -52 52 -89.5t72.5 -62t87.5 -36t98 -11.5zM445 1570v174h145v-174h-145zM754 1570v174h143v-174h-143z" />
    <glyph glyph-name="multiply" unicode="&#xd7;" horiz-adv-x="1090" 
d="M260 340l-84 84l289 315l-289 316l84 84l285 -312l284 312l84 -84l-288 -316l288 -315l-84 -84l-284 311z" />
    <glyph glyph-name="Oslash" unicode="&#xd8;" horiz-adv-x="1331" 
d="M213 -92l-94 61l123 199q-23 35 -41.5 75t-30.5 85q-26 88 -38.5 199.5t-12.5 209.5q0 72 6 154.5t18 145t27 110.5q38 127 111.5 210.5t174.5 116.5t210 33q111 0 196 -29t148 -83l106 172l96 -60l-125 -200q50 -71 74 -160q25 -88 38 -200t13 -210q0 -109 -13 -218
t-38 -191q-39 -128 -113.5 -211t-176.5 -116.5t-205 -33.5q-115 0 -200 29t-147 82zM666 100q78 0 145 27.5t106 73.5t58 98q38 106 50.5 210t12.5 228q0 134 -12 229.5t-41 178.5l-582 -930q48 -60 116 -87.5t147 -27.5zM344 332l582 930q-48 57 -115.5 84.5t-144.5 27.5
q-81 0 -145.5 -26.5t-105 -73.5t-59.5 -98q-45 -121 -54 -216t-9 -223q0 -78 3.5 -138t10 -107t16 -85.5t21.5 -74.5z" />
    <glyph glyph-name="Ugrave" unicode="&#xd9;" horiz-adv-x="1237" 
d="M616 -33q-107 0 -193 24.5t-146 81.5t-92.5 149.5t-32.5 228.5v1024h157v-1024q0 -183 78.5 -265t228.5 -82q154 0 233 82t79 265v1024h157v-1024q0 -136 -32.5 -228.5t-93 -149.5t-147.5 -81.5t-196 -24.5zM598 1548l-215 260h217l105 -260h-107z" />
    <glyph glyph-name="Uacute" unicode="&#xda;" horiz-adv-x="1237" 
d="M616 -33q-107 0 -193 24.5t-146 81.5t-92.5 149.5t-32.5 228.5v1024h157v-1024q0 -183 78.5 -265t228.5 -82q154 0 233 82t79 265v1024h157v-1024q0 -136 -32.5 -228.5t-93 -149.5t-147.5 -81.5t-196 -24.5zM527 1548l104 260h217l-215 -260h-106z" />
    <glyph glyph-name="Ucircumflex" unicode="&#xdb;" horiz-adv-x="1237" 
d="M616 -33q-107 0 -193 24.5t-146 81.5t-92.5 149.5t-32.5 228.5v1024h157v-1024q0 -183 78.5 -265t228.5 -82q154 0 233 82t79 265v1024h157v-1024q0 -136 -32.5 -228.5t-93 -149.5t-147.5 -81.5t-196 -24.5zM340 1546l194 260h162l189 -260h-150l-119 170l-125 -170h-151
z" />
    <glyph glyph-name="Udieresis" unicode="&#xdc;" horiz-adv-x="1237" 
d="M616 -33q-107 0 -193 24.5t-146 81.5t-92.5 149.5t-32.5 228.5v1024h157v-1024q0 -183 78.5 -265t228.5 -82q154 0 233 82t79 265v1024h157v-1024q0 -136 -32.5 -228.5t-93 -149.5t-147.5 -81.5t-196 -24.5zM387 1570v174h145v-174h-145zM696 1570v174h143v-174h-143z
" />
    <glyph glyph-name="Yacute" unicode="&#xdd;" horiz-adv-x="1053" 
d="M436 0v600l-418 875h162l344 -736l355 736h155l-440 -875v-600h-158zM469 1548l104 260h217l-215 -260h-106z" />
    <glyph glyph-name="Thorn" unicode="&#xde;" horiz-adv-x="1130" 
d="M170 0v1475h156v-256h305q156 0 253.5 -69t130 -170.5t32.5 -195.5q0 -98 -25.5 -178t-80 -137.5t-141.5 -89t-210 -31.5h-264v-348h-156zM326 475h266q135 0 210 77.5t75 233.5q0 117 -42 186.5t-114 94.5t-156 25h-239v-617z" />
    <glyph glyph-name="germandbls" unicode="&#xdf;" horiz-adv-x="1059" 
d="M608 -12q-77 0 -118 7t-87 21l25 125q31 -14 66 -22t77 -8q51 0 92 11.5t70 39.5q35 35 53.5 97t18.5 159q0 88 -16.5 154.5t-59.5 109.5q-35 34 -89 52t-134 18h-82v125h39q63 0 113 14.5t86 48.5q32 32 49.5 82t17.5 121q0 57 -13 97.5t-38 66.5q-28 29 -70 43t-96 14
q-48 0 -92 -13.5t-76 -47.5q-28 -29 -43.5 -72.5t-15.5 -106.5v-1124h-150v1110q0 81 22.5 149t73.5 119q48 47 117.5 74t169.5 27q102 0 171.5 -25t113.5 -70q42 -43 60 -101.5t18 -129.5q0 -87 -21 -148.5t-63 -103.5q-25 -25 -57 -43.5t-72 -32.5q65 -8 114 -27t84 -55
q48 -49 71.5 -131t23.5 -209q0 -122 -33 -201.5t-82 -125.5q-39 -36 -88 -57t-86 -26t-64 -5z" />
    <glyph glyph-name="agrave" unicode="&#xe0;" horiz-adv-x="1016" 
d="M416 -27q-39 0 -77.5 7t-72.5 21t-62.5 34.5t-47.5 46.5q-31 43 -49.5 95t-18.5 118q0 59 15.5 107t41.5 83q47 63 127 93t195 30h264v137q0 85 -40 134t-91.5 62t-95.5 13q-96 0 -154 -37t-90 -108l-127 43q40 106 132 163.5t245 57.5q100 0 173.5 -25.5t123.5 -80.5
q42 -45 59 -98t17 -128v-741h-150v106q-51 -53 -105 -83.5t-109 -40t-103 -9.5zM463 96q78 0 144 38t96 90.5t30 101.5v174h-221q-74 0 -126 -13.5t-85 -39.5t-48 -63t-15 -85q0 -45 11 -81t36 -62q57 -60 178 -60zM561 1200l-215 260h217l105 -260h-107z" />
    <glyph glyph-name="aacute" unicode="&#xe1;" horiz-adv-x="1016" 
d="M416 -27q-39 0 -77.5 7t-72.5 21t-62.5 34.5t-47.5 46.5q-31 43 -49.5 95t-18.5 118q0 59 15.5 107t41.5 83q47 63 127 93t195 30h264v137q0 85 -40 134t-91.5 62t-95.5 13q-96 0 -154 -37t-90 -108l-127 43q40 106 132 163.5t245 57.5q100 0 173.5 -25.5t123.5 -80.5
q42 -45 59 -98t17 -128v-741h-150v106q-51 -53 -105 -83.5t-109 -40t-103 -9.5zM463 96q78 0 144 38t96 90.5t30 101.5v174h-221q-74 0 -126 -13.5t-85 -39.5t-48 -63t-15 -85q0 -45 11 -81t36 -62q57 -60 178 -60zM437 1200l104 260h217l-215 -260h-106z" />
    <glyph glyph-name="acircumflex" unicode="&#xe2;" horiz-adv-x="1016" 
d="M416 -27q-39 0 -77.5 7t-72.5 21t-62.5 34.5t-47.5 46.5q-31 43 -49.5 95t-18.5 118q0 59 15.5 107t41.5 83q47 63 127 93t195 30h264v137q0 85 -40 134t-91.5 62t-95.5 13q-96 0 -154 -37t-90 -108l-127 43q40 106 132 163.5t245 57.5q100 0 173.5 -25.5t123.5 -80.5
q42 -45 59 -98t17 -128v-741h-150v106q-51 -53 -105 -83.5t-109 -40t-103 -9.5zM463 96q78 0 144 38t96 90.5t30 101.5v174h-221q-74 0 -126 -13.5t-85 -39.5t-48 -63t-15 -85q0 -45 11 -81t36 -62q57 -60 178 -60zM262 1198l194 260h162l189 -260h-150l-119 170l-125 -170
h-151z" />
    <glyph glyph-name="atilde" unicode="&#xe3;" horiz-adv-x="1016" 
d="M416 -27q-39 0 -77.5 7t-72.5 21t-62.5 34.5t-47.5 46.5q-31 43 -49.5 95t-18.5 118q0 59 15.5 107t41.5 83q47 63 127 93t195 30h264v137q0 85 -40 134t-91.5 62t-95.5 13q-96 0 -154 -37t-90 -108l-127 43q40 106 132 163.5t245 57.5q100 0 173.5 -25.5t123.5 -80.5
q42 -45 59 -98t17 -128v-741h-150v106q-51 -53 -105 -83.5t-109 -40t-103 -9.5zM463 96q78 0 144 38t96 90.5t30 101.5v174h-221q-74 0 -126 -13.5t-85 -39.5t-48 -63t-15 -85q0 -45 11 -81t36 -62q57 -60 178 -60zM258 1231q0 106 43 145q23 22 47 31.5t53 9.5
q25 0 63.5 -9.5t88.5 -31.5q42 -18 69 -26.5t39 -8.5q20 0 34.5 16.5t20.5 61.5h101q0 -95 -39 -141q-20 -23 -44 -35t-54 -12q-28 0 -64.5 9.5t-81.5 29.5q-89 39 -115 39q-23 0 -38 -16.5t-21 -61.5h-102z" />
    <glyph glyph-name="adieresis" unicode="&#xe4;" horiz-adv-x="1016" 
d="M416 -27q-39 0 -77.5 7t-72.5 21t-62.5 34.5t-47.5 46.5q-31 43 -49.5 95t-18.5 118q0 59 15.5 107t41.5 83q47 63 127 93t195 30h264v137q0 85 -40 134t-91.5 62t-95.5 13q-96 0 -154 -37t-90 -108l-127 43q40 106 132 163.5t245 57.5q100 0 173.5 -25.5t123.5 -80.5
q42 -45 59 -98t17 -128v-741h-150v106q-51 -53 -105 -83.5t-109 -40t-103 -9.5zM463 96q78 0 144 38t96 90.5t30 101.5v174h-221q-74 0 -126 -13.5t-85 -39.5t-48 -63t-15 -85q0 -45 11 -81t36 -62q57 -60 178 -60zM307 1222v174h145v-174h-145zM616 1222v174h143v-174h-143
z" />
    <glyph glyph-name="aring" unicode="&#xe5;" horiz-adv-x="1016" 
d="M416 -27q-39 0 -77.5 7t-72.5 21t-62.5 34.5t-47.5 46.5q-31 43 -49.5 95t-18.5 118q0 59 15.5 107t41.5 83q47 63 127 93t195 30h264v137q0 85 -40 134t-91.5 62t-95.5 13q-96 0 -154 -37t-90 -108l-127 43q40 106 132 163.5t245 57.5q100 0 173.5 -25.5t123.5 -80.5
q42 -45 59 -98t17 -128v-741h-150v106q-51 -53 -105 -83.5t-109 -40t-103 -9.5zM463 96q78 0 144 38t96 90.5t30 101.5v174h-221q-74 0 -126 -13.5t-85 -39.5t-48 -63t-15 -85q0 -45 11 -81t36 -62q57 -60 178 -60zM532 1153q-40 0 -74.5 14t-60 38t-40.5 57t-15 71
q0 74 53 127q29 28 63 40.5t74 12.5q37 0 70 -12.5t61 -38.5q58 -52 58 -129q0 -76 -54 -127q-29 -28 -63 -40.5t-72 -12.5zM532 1235q34 0 59 17t35.5 38t10.5 41q0 22 -8.5 39.5t-22.5 30.5q-36 31 -74 31q-37 0 -76 -31q-28 -26 -28 -70q0 -42 29.5 -69t74.5 -27z" />
    <glyph glyph-name="ae" unicode="&#xe6;" horiz-adv-x="1624" 
d="M1155 -33q-76 0 -132.5 16t-97.5 40t-68 53.5t-44 56.5l-14 -14q-67 -67 -133.5 -100t-124.5 -39.5t-107 -6.5q-96 0 -168 29.5t-110 79.5q-32 42 -50 94.5t-18 118.5q0 59 15.5 107t41.5 83q47 63 127 93t195 30h272v148q0 78 -39 124.5t-94 60t-98 13.5q-96 0 -156 -37
t-92 -108l-127 43q40 106 134 163.5t247 57.5q41 0 81.5 -5t78 -17t71 -30.5t60.5 -45.5q30 -34 41 -55q34 57 89.5 93t115 48t106.5 12q93 0 157 -25.5t109 -70.5q48 -49 72.5 -120.5t32.5 -153t8 -148.5v-55h-645v-76q0 -94 21 -157.5t58 -102.5t88 -55.5t111 -16.5
q61 0 111.5 22t78 52t44.5 55l115 -65q-39 -66 -89.5 -108t-122.5 -61.5t-151 -19.5zM467 96q84 0 151.5 38t95 90.5t27.5 101.5v174h-229q-74 0 -126 -13.5t-85 -39.5t-48 -63t-15 -85q0 -45 12 -81t37 -62q29 -29 73.5 -44.5t106.5 -15.5zM893 608h496q0 140 -34 218.5
t-91 103t-117 24.5q-54 0 -99 -18t-78.5 -58.5t-53.5 -106.5t-23 -163z" />
    <glyph glyph-name="ccedilla" unicode="&#xe7;" horiz-adv-x="905" 
d="M369 -403q-21 0 -47 4l6 94q60 0 98.5 6t63.5 18q45 22 45 62q0 32 -35.5 49.5t-124.5 17.5l39 129q-20 4 -38 9q-63 19 -109.5 53.5t-78.5 82.5t-51 107q-23 72 -31 145.5t-8 145.5t8 146t31 143q32 97 91 157t137 83.5t161 23.5q103 0 176.5 -38t110.5 -95.5t53 -112.5
l-135 -47q-17 45 -37 76.5t-46 52t-59 30t-75 9.5q-74 0 -130 -34.5t-85 -106.5q-27 -66 -36 -125t-9 -162q0 -128 11.5 -182t31.5 -100q31 -76 91 -110t134 -34q76 0 135 39t93 127l127 -49q-33 -88 -89 -144t-126 -78q-68 -21 -137 -22l-21 -63q54 -3 96.5 -20.5t62 -49
t19.5 -67.5q0 -82 -81 -125q-41 -23 -99 -34t-133 -11z" />
    <glyph glyph-name="egrave" unicode="&#xe8;" horiz-adv-x="989" 
d="M516 -33q-78 0 -140.5 18.5t-109 50.5t-77.5 74.5t-48 90.5q-23 65 -33 137t-10 160q0 120 14 210.5t44.5 154.5t70.5 104q48 49 118.5 77.5t172.5 28.5q93 0 158 -24.5t110 -69.5q66 -66 90.5 -169.5t24.5 -246.5v-92h-653v-22q0 -103 21.5 -171.5t59 -110t89.5 -58.5
t112 -17q61 0 111.5 21t79.5 51.5t47 56.5l115 -65q-38 -64 -91.5 -107.5t-125 -62.5t-150.5 -19zM250 590h504q0 153 -34.5 236.5t-93.5 105.5t-118 22q-54 0 -99.5 -16.5t-80 -58t-55 -111.5t-23.5 -178zM534 1200l-215 260h217l105 -260h-107z" />
    <glyph glyph-name="eacute" unicode="&#xe9;" horiz-adv-x="989" 
d="M516 -33q-78 0 -140.5 18.5t-109 50.5t-77.5 74.5t-48 90.5q-23 65 -33 137t-10 160q0 120 14 210.5t44.5 154.5t70.5 104q48 49 118.5 77.5t172.5 28.5q93 0 158 -24.5t110 -69.5q66 -66 90.5 -169.5t24.5 -246.5v-92h-653v-22q0 -103 21.5 -171.5t59 -110t89.5 -58.5
t112 -17q61 0 111.5 21t79.5 51.5t47 56.5l115 -65q-38 -64 -91.5 -107.5t-125 -62.5t-150.5 -19zM250 590h504q0 153 -34.5 236.5t-93.5 105.5t-118 22q-54 0 -99.5 -16.5t-80 -58t-55 -111.5t-23.5 -178zM414 1200l104 260h217l-215 -260h-106z" />
    <glyph glyph-name="ecircumflex" unicode="&#xea;" horiz-adv-x="989" 
d="M516 -33q-78 0 -140.5 18.5t-109 50.5t-77.5 74.5t-48 90.5q-23 65 -33 137t-10 160q0 120 14 210.5t44.5 154.5t70.5 104q48 49 118.5 77.5t172.5 28.5q93 0 158 -24.5t110 -69.5q66 -66 90.5 -169.5t24.5 -246.5v-92h-653v-22q0 -103 21.5 -171.5t59 -110t89.5 -58.5
t112 -17q61 0 111.5 21t79.5 51.5t47 56.5l115 -65q-38 -64 -91.5 -107.5t-125 -62.5t-150.5 -19zM250 590h504q0 153 -34.5 236.5t-93.5 105.5t-118 22q-54 0 -99.5 -16.5t-80 -58t-55 -111.5t-23.5 -178zM252 1198l194 260h162l189 -260h-150l-119 170l-125 -170h-151z
" />
    <glyph glyph-name="edieresis" unicode="&#xeb;" horiz-adv-x="989" 
d="M516 -33q-78 0 -140.5 18.5t-109 50.5t-77.5 74.5t-48 90.5q-23 65 -33 137t-10 160q0 120 14 210.5t44.5 154.5t70.5 104q48 49 118.5 77.5t172.5 28.5q93 0 158 -24.5t110 -69.5q66 -66 90.5 -169.5t24.5 -246.5v-92h-653v-22q0 -103 21.5 -171.5t59 -110t89.5 -58.5
t112 -17q61 0 111.5 21t79.5 51.5t47 56.5l115 -65q-38 -64 -91.5 -107.5t-125 -62.5t-150.5 -19zM250 590h504q0 153 -34.5 236.5t-93.5 105.5t-118 22q-54 0 -99.5 -16.5t-80 -58t-55 -111.5t-23.5 -178zM289 1222v174h145v-174h-145zM598 1222v174h143v-174h-143z" />
    <glyph glyph-name="igrave" unicode="&#xec;" horiz-adv-x="420" 
d="M135 0v1040h150v-1040h-150zM191 1200l-215 260h217l105 -260h-107z" />
    <glyph glyph-name="iacute" unicode="&#xed;" horiz-adv-x="420" 
d="M135 0v1040h150v-1040h-150zM153 1200l104 260h217l-215 -260h-106z" />
    <glyph glyph-name="icircumflex" unicode="&#xee;" horiz-adv-x="420" 
d="M135 0v1040h150v-1040h-150zM-56 1198l194 260h162l189 -260h-150l-119 170l-125 -170h-151z" />
    <glyph glyph-name="idieresis" unicode="&#xef;" horiz-adv-x="420" 
d="M135 0v1040h150v-1040h-150zM-13 1222v174h145v-174h-145zM296 1222v174h143v-174h-143z" />
    <glyph glyph-name="eth" unicode="&#xf0;" horiz-adv-x="1032" 
d="M516 -33q-80 0 -142 19t-108.5 53.5t-78 82.5t-50.5 107q-26 75 -32.5 129t-6.5 131q0 87 8.5 141.5t30.5 117.5q28 89 83.5 150.5t123 85.5t133.5 24q74 0 130.5 -20t82.5 -42q-29 82 -73 146t-97 118l-151 -127l-58 64l144 121q-45 35 -93 62.5t-98 47.5l41 101
q63 -20 125 -50t125 -75l135 114l58 -63l-123 -105q24 -23 51 -49q86 -86 147 -208.5t86 -252.5t25 -249q0 -125 -11.5 -193.5t-27.5 -118.5q-33 -93 -91 -152.5t-134.5 -84.5t-153.5 -25zM516 92q72 0 130.5 34t86.5 105q22 56 33.5 115t11.5 143q0 102 -10.5 152.5
t-28.5 101.5q-29 72 -88 107t-133 35q-72 0 -131.5 -33.5t-87.5 -107t-33 -91.5t-8.5 -62t-3.5 -102q0 -137 45 -258q13 -35 35.5 -61.5t51 -43.5t62 -25.5t68.5 -8.5z" />
    <glyph glyph-name="ntilde" unicode="&#xf1;" horiz-adv-x="1047" 
d="M135 0v1040h148v-145q65 97 149 137.5t186 40.5q93 0 162.5 -39t101 -110.5t31.5 -157.5v-766h-149v707q0 122 -48 175.5t-151 53.5q-60 0 -111 -28t-88.5 -74t-59 -104t-21.5 -118v-612h-150zM258 1231q0 106 43 145q23 22 47 31.5t53 9.5q25 0 63.5 -9.5t88.5 -31.5
q42 -18 69 -26.5t39 -8.5q20 0 34.5 16.5t20.5 61.5h101q0 -95 -39 -141q-20 -23 -44 -35t-54 -12q-28 0 -64.5 9.5t-81.5 29.5q-89 39 -115 39q-23 0 -38 -16.5t-21 -61.5h-102z" />
    <glyph glyph-name="ograve" unicode="&#xf2;" horiz-adv-x="1032" 
d="M516 -33q-80 0 -142.5 19t-109 53.5t-78 82.5t-49.5 107q-23 72 -31 145.5t-8 145.5t9 146t30 143q30 96 88 156.5t134.5 84t156.5 23.5q112 0 196 -41.5t125.5 -103t59.5 -119.5q22 -71 29.5 -144t7.5 -145t-7 -145.5t-32 -145.5q-33 -93 -91 -152.5t-134.5 -84.5
t-153.5 -25zM516 92q72 0 130.5 34t86.5 105q22 57 33.5 119t11.5 170t-10.5 164t-34.5 123q-19 49 -56 81.5t-81.5 45t-79.5 12.5q-71 0 -130 -33.5t-87 -105.5q-27 -66 -36 -125t-9 -162q0 -114 10.5 -172.5t34.5 -116.5q28 -71 87 -105t130 -34zM538 1200l-215 260h217
l105 -260h-107z" />
    <glyph glyph-name="oacute" unicode="&#xf3;" horiz-adv-x="1032" 
d="M516 -33q-80 0 -142.5 19t-109 53.5t-78 82.5t-49.5 107q-23 72 -31 145.5t-8 145.5t9 146t30 143q30 96 88 156.5t134.5 84t156.5 23.5q112 0 196 -41.5t125.5 -103t59.5 -119.5q22 -71 29.5 -144t7.5 -145t-7 -145.5t-32 -145.5q-33 -93 -91 -152.5t-134.5 -84.5
t-153.5 -25zM516 92q72 0 130.5 34t86.5 105q22 57 33.5 119t11.5 170t-10.5 164t-34.5 123q-19 49 -56 81.5t-81.5 45t-79.5 12.5q-71 0 -130 -33.5t-87 -105.5q-27 -66 -36 -125t-9 -162q0 -114 10.5 -172.5t34.5 -116.5q28 -71 87 -105t130 -34zM424 1200l104 260h217
l-215 -260h-106z" />
    <glyph glyph-name="ocircumflex" unicode="&#xf4;" horiz-adv-x="1032" 
d="M516 -33q-80 0 -142.5 19t-109 53.5t-78 82.5t-49.5 107q-23 72 -31 145.5t-8 145.5t9 146t30 143q30 96 88 156.5t134.5 84t156.5 23.5q112 0 196 -41.5t125.5 -103t59.5 -119.5q22 -71 29.5 -144t7.5 -145t-7 -145.5t-32 -145.5q-33 -93 -91 -152.5t-134.5 -84.5
t-153.5 -25zM516 92q72 0 130.5 34t86.5 105q22 57 33.5 119t11.5 170t-10.5 164t-34.5 123q-19 49 -56 81.5t-81.5 45t-79.5 12.5q-71 0 -130 -33.5t-87 -105.5q-27 -66 -36 -125t-9 -162q0 -114 10.5 -172.5t34.5 -116.5q28 -71 87 -105t130 -34zM244 1198l194 260h162
l189 -260h-150l-119 170l-125 -170h-151z" />
    <glyph glyph-name="otilde" unicode="&#xf5;" horiz-adv-x="1032" 
d="M516 -33q-80 0 -142.5 19t-109 53.5t-78 82.5t-49.5 107q-23 72 -31 145.5t-8 145.5t9 146t30 143q30 96 88 156.5t134.5 84t156.5 23.5q112 0 196 -41.5t125.5 -103t59.5 -119.5q22 -71 29.5 -144t7.5 -145t-7 -145.5t-32 -145.5q-33 -93 -91 -152.5t-134.5 -84.5
t-153.5 -25zM516 92q72 0 130.5 34t86.5 105q22 57 33.5 119t11.5 170t-10.5 164t-34.5 123q-19 49 -56 81.5t-81.5 45t-79.5 12.5q-71 0 -130 -33.5t-87 -105.5q-27 -66 -36 -125t-9 -162q0 -114 10.5 -172.5t34.5 -116.5q28 -71 87 -105t130 -34zM236 1231q0 106 43 145
q23 22 47 31.5t53 9.5q25 0 63.5 -9.5t88.5 -31.5q42 -18 69 -26.5t39 -8.5q20 0 34.5 16.5t20.5 61.5h101q0 -95 -39 -141q-20 -23 -44 -35t-54 -12q-28 0 -64.5 9.5t-81.5 29.5q-89 39 -115 39q-23 0 -38 -16.5t-21 -61.5h-102z" />
    <glyph glyph-name="odieresis" unicode="&#xf6;" horiz-adv-x="1032" 
d="M516 -33q-80 0 -142.5 19t-109 53.5t-78 82.5t-49.5 107q-23 72 -31 145.5t-8 145.5t9 146t30 143q30 96 88 156.5t134.5 84t156.5 23.5q112 0 196 -41.5t125.5 -103t59.5 -119.5q22 -71 29.5 -144t7.5 -145t-7 -145.5t-32 -145.5q-33 -93 -91 -152.5t-134.5 -84.5
t-153.5 -25zM516 92q72 0 130.5 34t86.5 105q22 57 33.5 119t11.5 170t-10.5 164t-34.5 123q-19 49 -56 81.5t-81.5 45t-79.5 12.5q-71 0 -130 -33.5t-87 -105.5q-27 -66 -36 -125t-9 -162q0 -114 10.5 -172.5t34.5 -116.5q28 -71 87 -105t130 -34zM287 1222v174h145v-174
h-145zM596 1222v174h143v-174h-143z" />
    <glyph glyph-name="divide" unicode="&#xf7;" horiz-adv-x="1090" 
d="M545 317q-30 0 -54.5 17t-34.5 39.5t-10 42.5q0 28 17 53t39.5 35t42.5 10q28 0 52 -17t35 -39t11 -42q0 -30 -17 -54t-39 -34.5t-42 -10.5zM96 680v119h897v-119h-897zM545 965q-30 0 -55 17t-34.5 39t-9.5 42q0 28 17 53t39 35t43 10q28 0 52 -17t35 -39t11 -42
q0 -29 -17 -53t-39 -34.5t-42 -10.5z" />
    <glyph glyph-name="oslash" unicode="&#xf8;" horiz-adv-x="1032" 
d="M184 -86l-86 53l95 148q-19 26 -32.5 54.5t-23.5 59.5q-23 72 -31 145.5t-8 145.5t9 146t30 143q30 96 88 156.5t134.5 84t156.5 23.5q77 0 139.5 -19t110.5 -55l82 127l86 -53l-94 -147q36 -53 57 -117q22 -71 29.5 -144t7.5 -145t-7 -145.5t-32 -145.5
q-33 -93 -91 -152.5t-134.5 -84.5t-153.5 -25q-80 0 -142.5 19t-109.5 53zM516 92q72 0 130.5 34t86.5 105q22 57 33.5 119t11.5 170q0 79 -8.5 142.5t-26.5 117.5l-399 -620q34 -34 78.5 -51t93.5 -17zM289 260l399 621q-32 32 -76.5 48.5t-95.5 16.5q-71 0 -130 -33.5
t-87 -105.5q-27 -66 -36 -125t-9 -162q0 -109 8.5 -163t26.5 -97z" />
    <glyph glyph-name="ugrave" unicode="&#xf9;" horiz-adv-x="1049" 
d="M434 -33q-59 0 -113.5 16t-96 52.5t-66.5 95t-25 143.5v766h150v-702q0 -64 12.5 -108t37.5 -71.5t63 -40t89 -12.5q60 0 111 28t88.5 73t58.5 103t21 118v612h149v-1040h-147v145q-65 -97 -149 -137.5t-183 -40.5zM516 1200l-215 260h217l105 -260h-107z" />
    <glyph glyph-name="uacute" unicode="&#xfa;" horiz-adv-x="1049" 
d="M434 -33q-59 0 -113.5 16t-96 52.5t-66.5 95t-25 143.5v766h150v-702q0 -64 12.5 -108t37.5 -71.5t63 -40t89 -12.5q60 0 111 28t88.5 73t58.5 103t21 118v612h149v-1040h-147v145q-65 -97 -149 -137.5t-183 -40.5zM437 1200l104 260h217l-215 -260h-106z" />
    <glyph glyph-name="ucircumflex" unicode="&#xfb;" horiz-adv-x="1049" 
d="M434 -33q-59 0 -113.5 16t-96 52.5t-66.5 95t-25 143.5v766h150v-702q0 -64 12.5 -108t37.5 -71.5t63 -40t89 -12.5q60 0 111 28t88.5 73t58.5 103t21 118v612h149v-1040h-147v145q-65 -97 -149 -137.5t-183 -40.5zM226 1198l194 260h162l189 -260h-150l-119 170
l-125 -170h-151z" />
    <glyph glyph-name="udieresis" unicode="&#xfc;" horiz-adv-x="1049" 
d="M434 -33q-59 0 -113.5 16t-96 52.5t-66.5 95t-25 143.5v766h150v-702q0 -64 12.5 -108t37.5 -71.5t63 -40t89 -12.5q60 0 111 28t88.5 73t58.5 103t21 118v612h149v-1040h-147v145q-65 -97 -149 -137.5t-183 -40.5zM289 1222v174h145v-174h-145zM598 1222v174h143v-174
h-143z" />
    <glyph glyph-name="yacute" unicode="&#xfd;" horiz-adv-x="924" 
d="M139 -393q-11 0 -20 2v131h37q28 2 51 9.5t42.5 23.5t36 42t31.5 66l62 164l-361 995h150l289 -794l299 794h149l-452 -1190q-29 -75 -59.5 -122.5t-65.5 -74t-75.5 -36.5t-88.5 -10h-25zM404 1200l104 260h217l-215 -260h-106z" />
    <glyph glyph-name="thorn" unicode="&#xfe;" horiz-adv-x="1059" 
d="M135 -393v1868h150v-570q101 168 313 168q103 0 177 -40t120 -130q32 -65 49 -157.5t17 -217.5q0 -111 -13.5 -194.5t-36.5 -145.5q-35 -91 -92 -141.5t-117 -65t-108 -14.5q-101 0 -174.5 32t-134.5 107v-499h-150zM549 96q103 0 159 55.5t76 149.5q7 31 14 97t7 130
q0 66 -5.5 123.5t-19.5 108.5q-16 62 -47 104.5t-77.5 61t-100.5 18.5q-52 0 -101 -18.5t-86.5 -55.5t-60 -92.5t-22.5 -128.5v-254q0 -66 19 -121t53.5 -94.5t83.5 -61.5t108 -22z" />
    <glyph glyph-name="ydieresis" unicode="&#xff;" horiz-adv-x="924" 
d="M139 -393q-11 0 -20 2v131h37q28 2 51 9.5t42.5 23.5t36 42t31.5 66l62 164l-361 995h150l289 -794l299 794h149l-452 -1190q-29 -75 -59.5 -122.5t-65.5 -74t-75.5 -36.5t-88.5 -10h-25zM236 1222v174h145v-174h-145zM545 1222v174h143v-174h-143z" />
    <glyph glyph-name="Amacron" unicode="&#x100;" horiz-adv-x="1188" 
d="M18 0l476 1475h165l510 -1475h-170l-141 422h-553l-133 -422h-154zM346 553h467l-240 717zM279 1585v131h625v-131h-625z" />
    <glyph glyph-name="amacron" unicode="&#x101;" horiz-adv-x="1016" 
d="M416 -27q-39 0 -77.5 7t-72.5 21t-62.5 34.5t-47.5 46.5q-31 43 -49.5 95t-18.5 118q0 59 15.5 107t41.5 83q47 63 127 93t195 30h264v137q0 85 -40 134t-91.5 62t-95.5 13q-96 0 -154 -37t-90 -108l-127 43q40 106 132 163.5t245 57.5q100 0 173.5 -25.5t123.5 -80.5
q42 -45 59 -98t17 -128v-741h-150v106q-51 -53 -105 -83.5t-109 -40t-103 -9.5zM463 96q78 0 144 38t96 90.5t30 101.5v174h-221q-74 0 -126 -13.5t-85 -39.5t-48 -63t-15 -85q0 -45 11 -81t36 -62q57 -60 178 -60zM209 1237v131h625v-131h-625z" />
    <glyph glyph-name="Abreve" unicode="&#x102;" horiz-adv-x="1188" 
d="M18 0l476 1475h165l510 -1475h-170l-141 422h-553l-133 -422h-154zM346 553h467l-240 717zM579 1567q-62 0 -108.5 17.5t-78.5 49t-51.5 75t-27.5 96.5h121q11 -71 46.5 -103t98.5 -32q62 0 97.5 32t46.5 103h118q-5 -57 -24.5 -99.5t-57.5 -74.5q-70 -64 -180 -64z" />
    <glyph glyph-name="abreve" unicode="&#x103;" horiz-adv-x="1016" 
d="M416 -27q-39 0 -77.5 7t-72.5 21t-62.5 34.5t-47.5 46.5q-31 43 -49.5 95t-18.5 118q0 59 15.5 107t41.5 83q47 63 127 93t195 30h264v137q0 85 -40 134t-91.5 62t-95.5 13q-96 0 -154 -37t-90 -108l-127 43q40 106 132 163.5t245 57.5q100 0 173.5 -25.5t123.5 -80.5
q42 -45 59 -98t17 -128v-741h-150v106q-51 -53 -105 -83.5t-109 -40t-103 -9.5zM463 96q78 0 144 38t96 90.5t30 101.5v174h-221q-74 0 -126 -13.5t-85 -39.5t-48 -63t-15 -85q0 -45 11 -81t36 -62q57 -60 178 -60zM524 1192q-62 0 -108.5 17.5t-78.5 49t-51.5 75
t-27.5 96.5h121q11 -71 46.5 -103t98.5 -32q62 0 97.5 32t46.5 103h118q-5 -57 -24.5 -99.5t-57.5 -74.5q-70 -64 -180 -64z" />
    <glyph glyph-name="Aogonek" unicode="&#x104;" horiz-adv-x="1188" 
d="M1199 -370q-25 -11 -60 -20.5t-83 -9.5q-43 0 -76 12t-55 33.5t-33 50.5t-11 63q0 29 9 58.5t23 51.5q20 35 41.5 66t44.5 65l-141 422h-553l-133 -422h-154l476 1475h165l510 -1475q-24 -16 -50.5 -39.5t-49 -52t-37 -60.5t-14.5 -64q0 -33 21.5 -51.5t59.5 -18.5
q24 0 48.5 7t51.5 19v-110zM346 553h467l-240 717z" />
    <glyph glyph-name="aogonek" unicode="&#x105;" horiz-adv-x="1016" 
d="M929 -371q-25 -11 -60 -20.5t-83 -9.5q-43 0 -75 12t-53.5 33.5t-32 50.5t-10.5 63q0 29 8 59t22 52q21 35 43 65.5t45 65.5v106q-51 -53 -105 -83.5t-109 -40t-103 -9.5q-39 0 -77.5 7t-72.5 21t-62.5 34.5t-47.5 46.5q-31 43 -49.5 95t-18.5 118q0 59 15.5 107t41.5 83
q47 63 127 93t195 30h264v137q0 85 -40 134t-91.5 62t-95.5 13q-96 0 -154 -37t-90 -108l-127 43q40 106 132 163.5t245 57.5q100 0 173.5 -25.5t123.5 -80.5q42 -45 59 -98t17 -128v-741q-17 -16 -40 -40t-43 -52.5t-34 -60.5t-14 -64q0 -33 19.5 -51.5t57.5 -18.5
q24 0 48.5 7t51.5 19v-110zM463 96q78 0 144 38t96 90.5t30 101.5v174h-221q-74 0 -126 -13.5t-85 -39.5t-48 -63t-15 -85q0 -45 11 -81t36 -62q57 -60 178 -60z" />
    <glyph glyph-name="Cacute" unicode="&#x106;" horiz-adv-x="1167" 
d="M666 -33q-152 0 -256 51.5t-169 150t-93.5 242t-28.5 326.5q0 209 35.5 355.5t104.5 238.5t170 134t233 42q176 0 281.5 -76t150.5 -214l-154 -58q-37 116 -105 165.5t-173 49.5q-92 0 -161 -34t-115 -109.5t-69.5 -197t-23.5 -296.5q0 -159 19.5 -278.5t63.5 -199
t114 -119.5t172 -40q76 0 138.5 29t100.5 86.5t57 126.5l146 -55q-21 -72 -56 -131t-88.5 -101t-126 -65t-167.5 -23zM566 1548l104 260h217l-215 -260h-106z" />
    <glyph glyph-name="cacute" unicode="&#x107;" horiz-adv-x="905" 
d="M520 -33q-81 0 -144 19t-109.5 53.5t-78.5 82.5t-51 107q-23 72 -31 145.5t-8 145.5t8 146t31 143q32 97 91 157t137 83.5t161 23.5q103 0 176.5 -38t110.5 -95.5t53 -112.5l-135 -47q-17 45 -37 76.5t-46 52t-59 30t-75 9.5q-74 0 -130 -34.5t-85 -106.5
q-27 -66 -36 -125t-9 -162q0 -128 11.5 -182t31.5 -100q31 -76 91 -110t134 -34q76 0 135 39t93 127l127 -49q-33 -88 -89 -144t-126 -78t-142 -22zM433 1200l104 260h217l-215 -260h-106z" />
    <glyph glyph-name="Ccircumflex" unicode="&#x108;" horiz-adv-x="1167" 
d="M666 -33q-152 0 -256 51.5t-169 150t-93.5 242t-28.5 326.5q0 209 35.5 355.5t104.5 238.5t170 134t233 42q176 0 281.5 -76t150.5 -214l-154 -58q-37 116 -105 165.5t-173 49.5q-92 0 -161 -34t-115 -109.5t-69.5 -197t-23.5 -296.5q0 -159 19.5 -278.5t63.5 -199
t114 -119.5t172 -40q76 0 138.5 29t100.5 86.5t57 126.5l146 -55q-21 -72 -56 -131t-88.5 -101t-126 -65t-167.5 -23zM387 1573l194 260h162l189 -260h-150l-119 170l-125 -170h-151z" />
    <glyph glyph-name="ccircumflex" unicode="&#x109;" horiz-adv-x="905" 
d="M520 -33q-81 0 -144 19t-109.5 53.5t-78.5 82.5t-51 107q-23 72 -31 145.5t-8 145.5t8 146t31 143q32 97 91 157t137 83.5t161 23.5q103 0 176.5 -38t110.5 -95.5t53 -112.5l-135 -47q-17 45 -37 76.5t-46 52t-59 30t-75 9.5q-74 0 -130 -34.5t-85 -106.5
q-27 -66 -36 -125t-9 -162q0 -128 11.5 -182t31.5 -100q31 -76 91 -110t134 -34q76 0 135 39t93 127l127 -49q-33 -88 -89 -144t-126 -78t-142 -22zM236 1198l194 260h162l189 -260h-150l-119 170l-125 -170h-151z" />
    <glyph glyph-name="Cdotaccent" unicode="&#x10a;" horiz-adv-x="1167" 
d="M666 -33q-152 0 -256 51.5t-169 150t-93.5 242t-28.5 326.5q0 209 35.5 355.5t104.5 238.5t170 134t233 42q176 0 281.5 -76t150.5 -214l-154 -58q-37 116 -105 165.5t-173 49.5q-92 0 -161 -34t-115 -109.5t-69.5 -197t-23.5 -296.5q0 -159 19.5 -278.5t63.5 -199
t114 -119.5t172 -40q76 0 138.5 29t100.5 86.5t57 126.5l146 -55q-21 -72 -56 -131t-88.5 -101t-126 -65t-167.5 -23zM573 1592v193h190v-193h-190z" />
    <glyph glyph-name="cdotaccent" unicode="&#x10b;" horiz-adv-x="905" 
d="M520 -33q-81 0 -144 19t-109.5 53.5t-78.5 82.5t-51 107q-23 72 -31 145.5t-8 145.5t8 146t31 143q32 97 91 157t137 83.5t161 23.5q103 0 176.5 -38t110.5 -95.5t53 -112.5l-135 -47q-17 45 -37 76.5t-46 52t-59 30t-75 9.5q-74 0 -130 -34.5t-85 -106.5
q-27 -66 -36 -125t-9 -162q0 -128 11.5 -182t31.5 -100q31 -76 91 -110t134 -34q76 0 135 39t93 127l127 -49q-33 -88 -89 -144t-126 -78t-142 -22zM423 1212v193h190v-193h-190z" />
    <glyph glyph-name="Ccaron" unicode="&#x10c;" horiz-adv-x="1167" 
d="M666 -33q-152 0 -256 51.5t-169 150t-93.5 242t-28.5 326.5q0 209 35.5 355.5t104.5 238.5t170 134t233 42q176 0 281.5 -76t150.5 -214l-154 -58q-37 116 -105 165.5t-173 49.5q-92 0 -161 -34t-115 -109.5t-69.5 -197t-23.5 -296.5q0 -159 19.5 -278.5t63.5 -199
t114 -119.5t172 -40q76 0 138.5 29t100.5 86.5t57 126.5l146 -55q-21 -72 -56 -131t-88.5 -101t-126 -65t-167.5 -23zM581 1546l-190 260h149l121 -170l123 170h150l-191 -260h-162z" />
    <glyph glyph-name="ccaron" unicode="&#x10d;" horiz-adv-x="905" 
d="M520 -33q-81 0 -144 19t-109.5 53.5t-78.5 82.5t-51 107q-23 72 -31 145.5t-8 145.5t8 146t31 143q32 97 91 157t137 83.5t161 23.5q103 0 176.5 -38t110.5 -95.5t53 -112.5l-135 -47q-17 45 -37 76.5t-46 52t-59 30t-75 9.5q-74 0 -130 -34.5t-85 -106.5
q-27 -66 -36 -125t-9 -162q0 -128 11.5 -182t31.5 -100q31 -76 91 -110t134 -34q76 0 135 39t93 127l127 -49q-33 -88 -89 -144t-126 -78t-142 -22zM440 1198l-190 260h149l121 -170l123 170h150l-191 -260h-162z" />
    <glyph glyph-name="Dcaron" unicode="&#x10e;" horiz-adv-x="1253" 
d="M170 0v1475h334q172 0 287.5 -42t189.5 -118q84 -88 119 -220.5t35 -310.5q0 -158 -20.5 -284.5t-65.5 -215.5t-103 -145q-66 -63 -163.5 -101t-237.5 -38h-375zM328 131h153q84 0 148 11.5t108 36t76 54.5q53 53 88 138.5t47.5 194t12.5 218.5q0 158 -28 266.5
t-91 176.5q-59 61 -145.5 88.5t-215.5 27.5h-153v-1212zM489 1546l-190 260h149l121 -170l123 170h150l-191 -260h-162z" />
    <glyph glyph-name="dcaron" unicode="&#x10f;" horiz-adv-x="1059" 
d="M465 -33q-48 0 -95 11.5t-88.5 38.5t-76.5 72t-60 112q-23 62 -35 142t-12 185q0 125 18.5 218t55.5 159q48 88 123.5 128t177.5 40q79 0 139.5 -21t98 -54t63.5 -66v543h150v-1475h-150v135q-51 -85 -129 -126.5t-180 -41.5zM510 96q89 0 152.5 48t87.5 116.5t24 134.5
v254q0 102 -46 173.5t-109 96.5t-115 25q-79 0 -128.5 -33t-68.5 -74t-28 -77q-14 -51 -19.5 -108.5t-5.5 -123.5q0 -74 6 -135t14 -92q10 -47 29 -85t48 -64.5t68.5 -41t90.5 -14.5zM1046 1113v361h160l-49 -361h-111z" />
    <glyph glyph-name="Dcroat" unicode="&#x110;" horiz-adv-x="1253" 
d="M170 0v694h-135v129h135v652h334q172 0 287.5 -42t189.5 -118q84 -88 119 -220.5t35 -310.5q0 -158 -20.5 -284.5t-65.5 -215.5t-103 -145q-66 -63 -163.5 -101t-237.5 -38h-375zM328 131h153q84 0 148 11.5t108 36t76 54.5q53 53 88 138.5t47.5 194t12.5 218.5
q0 158 -28 266.5t-91 176.5q-59 61 -145.5 88.5t-215.5 27.5h-153v-520h301v-129h-301v-563z" />
    <glyph glyph-name="dcroat" unicode="&#x111;" horiz-adv-x="1059" 
d="M465 -33q-48 0 -95 11.5t-88.5 38.5t-76.5 72t-60 112q-23 62 -35 142t-12 185q0 125 18.5 218t55.5 159q48 88 123.5 128t177.5 40q79 0 139.5 -21t98 -54t63.5 -66v248h-309v129h309v166h150v-166h135v-129h-135v-1180h-150v135q-51 -85 -129 -126.5t-180 -41.5z
M510 96q89 0 152.5 48t87.5 116.5t24 134.5v254q0 102 -46 173.5t-109 96.5t-115 25q-79 0 -128.5 -33t-68.5 -74t-28 -77q-14 -51 -19.5 -108.5t-5.5 -123.5q0 -74 6 -135t14 -92q10 -47 29 -85t48 -64.5t68.5 -41t90.5 -14.5z" />
    <glyph glyph-name="Emacron" unicode="&#x112;" horiz-adv-x="1047" 
d="M170 0v1475h780v-138h-622v-510h594v-137h-594v-553h639v-137h-797zM244 1585v131h625v-131h-625z" />
    <glyph glyph-name="emacron" unicode="&#x113;" horiz-adv-x="989" 
d="M516 -33q-78 0 -140.5 18.5t-109 50.5t-77.5 74.5t-48 90.5q-23 65 -33 137t-10 160q0 120 14 210.5t44.5 154.5t70.5 104q48 49 118.5 77.5t172.5 28.5q93 0 158 -24.5t110 -69.5q66 -66 90.5 -169.5t24.5 -246.5v-92h-653v-22q0 -103 21.5 -171.5t59 -110t89.5 -58.5
t112 -17q61 0 111.5 21t79.5 51.5t47 56.5l115 -65q-38 -64 -91.5 -107.5t-125 -62.5t-150.5 -19zM250 590h504q0 153 -34.5 236.5t-93.5 105.5t-118 22q-54 0 -99.5 -16.5t-80 -58t-55 -111.5t-23.5 -178zM203 1237v131h625v-131h-625z" />
    <glyph glyph-name="Ebreve" unicode="&#x114;" horiz-adv-x="1047" 
d="M170 0v1475h780v-138h-622v-510h594v-137h-594v-553h639v-137h-797zM570 1567q-62 0 -108.5 17.5t-78.5 49t-51.5 75t-27.5 96.5h121q11 -71 46.5 -103t98.5 -32q62 0 97.5 32t46.5 103h118q-5 -57 -24.5 -99.5t-57.5 -74.5q-70 -64 -180 -64z" />
    <glyph glyph-name="ebreve" unicode="&#x115;" horiz-adv-x="989" 
d="M516 -33q-78 0 -140.5 18.5t-109 50.5t-77.5 74.5t-48 90.5q-23 65 -33 137t-10 160q0 120 14 210.5t44.5 154.5t70.5 104q48 49 118.5 77.5t172.5 28.5q93 0 158 -24.5t110 -69.5q66 -66 90.5 -169.5t24.5 -246.5v-92h-653v-22q0 -103 21.5 -171.5t59 -110t89.5 -58.5
t112 -17q61 0 111.5 21t79.5 51.5t47 56.5l115 -65q-38 -64 -91.5 -107.5t-125 -62.5t-150.5 -19zM250 590h504q0 153 -34.5 236.5t-93.5 105.5t-118 22q-54 0 -99.5 -16.5t-80 -58t-55 -111.5t-23.5 -178zM522 1192q-62 0 -108.5 17.5t-78.5 49t-51.5 75t-27.5 96.5h121
q11 -71 46.5 -103t98.5 -32q62 0 97.5 32t46.5 103h118q-5 -57 -24.5 -99.5t-57.5 -74.5q-70 -64 -180 -64z" />
    <glyph glyph-name="Edotaccent" unicode="&#x116;" horiz-adv-x="1047" 
d="M170 0v1475h780v-138h-622v-510h594v-137h-594v-553h639v-137h-797zM479 1592v193h190v-193h-190z" />
    <glyph glyph-name="edotaccent" unicode="&#x117;" horiz-adv-x="989" 
d="M516 -33q-78 0 -140.5 18.5t-109 50.5t-77.5 74.5t-48 90.5q-23 65 -33 137t-10 160q0 120 14 210.5t44.5 154.5t70.5 104q48 49 118.5 77.5t172.5 28.5q93 0 158 -24.5t110 -69.5q66 -66 90.5 -169.5t24.5 -246.5v-92h-653v-22q0 -103 21.5 -171.5t59 -110t89.5 -58.5
t112 -17q61 0 111.5 21t79.5 51.5t47 56.5l115 -65q-38 -64 -91.5 -107.5t-125 -62.5t-150.5 -19zM250 590h504q0 153 -34.5 236.5t-93.5 105.5t-118 22q-54 0 -99.5 -16.5t-80 -58t-55 -111.5t-23.5 -178zM424 1212v193h190v-193h-190z" />
    <glyph glyph-name="Eogonek" unicode="&#x118;" horiz-adv-x="1047" 
d="M967 -371q-25 -11 -60 -20.5t-83 -9.5q-43 0 -75 12t-53.5 33.5t-32 50.5t-10.5 63q0 29 8 57.5t22 50.5q21 35 48.5 70.5t50.5 63.5h-612v1475h780v-138h-622v-510h594v-137h-594v-553h639v-137q-35 -16 -66.5 -40t-56.5 -52.5t-39.5 -60.5t-14.5 -64q0 -33 19.5 -51.5
t57.5 -18.5q24 0 48.5 7t51.5 19v-110z" />
    <glyph glyph-name="eogonek" unicode="&#x119;" horiz-adv-x="989" 
d="M742 -371q-25 -11 -60 -20.5t-83 -9.5q-43 0 -75 12t-53.5 33.5t-32 50.5t-10.5 63q0 29 8 57.5t22 50.5q15 26 34 52t38 49h-14q-79 0 -141 18.5t-108.5 50.5t-77.5 74.5t-48 90.5q-23 66 -33 137.5t-10 159.5q0 181 33.5 294t95.5 175q48 49 118.5 77.5t172.5 28.5
q94 0 158.5 -24.5t109.5 -69.5q66 -66 90.5 -169t24.5 -247v-92h-653v-22q0 -103 21.5 -171.5t59 -110t89.5 -58.5t112 -17q61 0 111 21q51 21 80 51.5t47 56.5l115 -65q-37 -64 -92 -108q-23 -19 -52.5 -41.5t-51.5 -40.5q-14 -11 -34.5 -29.5t-40 -42.5t-33.5 -52.5
t-14 -58.5q0 -33 19.5 -51.5t57.5 -18.5q24 0 48.5 7t51.5 19v-110zM250 590h504q0 152 -35 236q-34 83 -93 106q-57 22 -118 22q-54 0 -99.5 -16.5t-80 -58t-55 -111.5t-23.5 -178z" />
    <glyph glyph-name="Ecaron" unicode="&#x11a;" horiz-adv-x="1047" 
d="M170 0v1475h780v-138h-622v-510h594v-137h-594v-553h639v-137h-797zM489 1546l-190 260h149l121 -170l123 170h150l-191 -260h-162z" />
    <glyph glyph-name="ecaron" unicode="&#x11b;" horiz-adv-x="989" 
d="M516 -33q-78 0 -140.5 18.5t-109 50.5t-77.5 74.5t-48 90.5q-23 65 -33 137t-10 160q0 120 14 210.5t44.5 154.5t70.5 104q48 49 118.5 77.5t172.5 28.5q93 0 158 -24.5t110 -69.5q66 -66 90.5 -169.5t24.5 -246.5v-92h-653v-22q0 -103 21.5 -171.5t59 -110t89.5 -58.5
t112 -17q61 0 111.5 21t79.5 51.5t47 56.5l115 -65q-38 -64 -91.5 -107.5t-125 -62.5t-150.5 -19zM250 590h504q0 153 -34.5 236.5t-93.5 105.5t-118 22q-54 0 -99.5 -16.5t-80 -58t-55 -111.5t-23.5 -178zM442 1198l-190 260h149l121 -170l123 170h150l-191 -260h-162z" />
    <glyph glyph-name="Gcircumflex" unicode="&#x11c;" horiz-adv-x="1221" 
d="M651 -33q-106 0 -184.5 26.5t-136 74t-96.5 113.5t-64 145q-28 88 -39.5 191t-11.5 220q0 131 15 234.5t38 175.5q37 125 109 209t171.5 117.5t206.5 33.5q177 0 282.5 -76t150.5 -214l-154 -58q-19 51 -41 89.5t-51 64.5q-37 32 -82.5 46.5t-104.5 14.5
q-80 0 -143 -27.5t-101 -72.5t-57 -96q-47 -131 -56 -221.5t-9 -215.5q0 -126 9 -215.5t23 -138t31 -90.5q41 -102 119 -149.5t180 -47.5q92 0 162.5 35.5t101.5 103t31 148.5v178h-297v137h453v-702h-137l-2 100q-57 -62 -135.5 -97.5t-180.5 -35.5zM378 1546l194 260h162
l189 -260h-150l-119 170l-125 -170h-151z" />
    <glyph glyph-name="gcircumflex" unicode="&#x11d;" horiz-adv-x="1059" 
d="M524 -434q-152 0 -253.5 55t-139.5 154l127 43q31 -65 97.5 -99t162.5 -34q57 0 110.5 12t90.5 49q26 27 39.5 69t13.5 126v178q-50 -56 -102 -87t-103.5 -39.5t-101.5 -8.5q-48 0 -95 10.5t-88.5 36t-76.5 69t-60 109.5q-21 60 -34 140.5t-13 187.5q0 120 18 210.5
t52 155.5q46 90 123 130t182 40q108 0 185.5 -39t115.5 -121v127h150v-1106q0 -90 -18 -153t-62 -111q-51 -53 -135.5 -78.5t-184.5 -25.5zM510 113q89 0 152.5 48t87.5 116.5t24 134.5v237q0 102 -46 173.5t-109 96.5t-115 25q-79 0 -128.5 -33t-68.5 -74t-28 -77
q-14 -51 -19.5 -104t-5.5 -119q0 -62 5.5 -120.5t14.5 -99.5q10 -47 29 -84.5t48 -64t68.5 -41t90.5 -14.5zM307 1198l194 260h162l189 -260h-150l-119 170l-125 -170h-151z" />
    <glyph glyph-name="Gbreve" unicode="&#x11e;" horiz-adv-x="1221" 
d="M651 -33q-106 0 -184.5 26.5t-136 74t-96.5 113.5t-64 145q-28 88 -39.5 191t-11.5 220q0 131 15 234.5t38 175.5q37 125 109 209t171.5 117.5t206.5 33.5q177 0 282.5 -76t150.5 -214l-154 -58q-19 51 -41 89.5t-51 64.5q-37 32 -82.5 46.5t-104.5 14.5
q-80 0 -143 -27.5t-101 -72.5t-57 -96q-47 -131 -56 -221.5t-9 -215.5q0 -126 9 -215.5t23 -138t31 -90.5q41 -102 119 -149.5t180 -47.5q92 0 162.5 35.5t101.5 103t31 148.5v178h-297v137h453v-702h-137l-2 100q-57 -62 -135.5 -97.5t-180.5 -35.5zM649 1567
q-62 0 -108.5 17.5t-78.5 49t-51.5 75t-27.5 96.5h121q11 -71 46.5 -103t98.5 -32q62 0 97.5 32t46.5 103h118q-5 -57 -24.5 -99.5t-57.5 -74.5q-70 -64 -180 -64z" />
    <glyph glyph-name="gbreve" unicode="&#x11f;" horiz-adv-x="1059" 
d="M524 -434q-152 0 -253.5 55t-139.5 154l127 43q31 -65 97.5 -99t162.5 -34q57 0 110.5 12t90.5 49q26 27 39.5 69t13.5 126v178q-50 -56 -102 -87t-103.5 -39.5t-101.5 -8.5q-48 0 -95 10.5t-88.5 36t-76.5 69t-60 109.5q-21 60 -34 140.5t-13 187.5q0 120 18 210.5
t52 155.5q46 90 123 130t182 40q108 0 185.5 -39t115.5 -121v127h150v-1106q0 -90 -18 -153t-62 -111q-51 -53 -135.5 -78.5t-184.5 -25.5zM510 113q89 0 152.5 48t87.5 116.5t24 134.5v237q0 102 -46 173.5t-109 96.5t-115 25q-79 0 -128.5 -33t-68.5 -74t-28 -77
q-14 -51 -19.5 -104t-5.5 -119q0 -62 5.5 -120.5t14.5 -99.5q10 -47 29 -84.5t48 -64t68.5 -41t90.5 -14.5zM518 1192q-62 0 -108.5 17.5t-78.5 49t-51.5 75t-27.5 96.5h121q11 -71 46.5 -103t98.5 -32q62 0 97.5 32t46.5 103h118q-5 -57 -24.5 -99.5t-57.5 -74.5
q-70 -64 -180 -64z" />
    <glyph glyph-name="Gdotaccent" unicode="&#x120;" horiz-adv-x="1221" 
d="M651 -33q-106 0 -184.5 26.5t-136 74t-96.5 113.5t-64 145q-28 88 -39.5 191t-11.5 220q0 131 15 234.5t38 175.5q37 125 109 209t171.5 117.5t206.5 33.5q177 0 282.5 -76t150.5 -214l-154 -58q-19 51 -41 89.5t-51 64.5q-37 32 -82.5 46.5t-104.5 14.5
q-80 0 -143 -27.5t-101 -72.5t-57 -96q-47 -131 -56 -221.5t-9 -215.5q0 -126 9 -215.5t23 -138t31 -90.5q41 -102 119 -149.5t180 -47.5q92 0 162.5 35.5t101.5 103t31 148.5v178h-297v137h453v-702h-137l-2 100q-57 -62 -135.5 -97.5t-180.5 -35.5zM575 1592v193h190v-193
h-190z" />
    <glyph glyph-name="gdotaccent" unicode="&#x121;" horiz-adv-x="1059" 
d="M524 -434q-152 0 -253.5 55t-139.5 154l127 43q31 -65 97.5 -99t162.5 -34q57 0 110.5 12t90.5 49q26 27 39.5 69t13.5 126v178q-50 -56 -102 -87t-103.5 -39.5t-101.5 -8.5q-48 0 -95 10.5t-88.5 36t-76.5 69t-60 109.5q-21 60 -34 140.5t-13 187.5q0 120 18 210.5
t52 155.5q46 90 123 130t182 40q108 0 185.5 -39t115.5 -121v127h150v-1106q0 -90 -18 -153t-62 -111q-51 -53 -135.5 -78.5t-184.5 -25.5zM510 113q89 0 152.5 48t87.5 116.5t24 134.5v237q0 102 -46 173.5t-109 96.5t-115 25q-79 0 -128.5 -33t-68.5 -74t-28 -77
q-14 -51 -19.5 -104t-5.5 -119q0 -62 5.5 -120.5t14.5 -99.5q10 -47 29 -84.5t48 -64t68.5 -41t90.5 -14.5zM425 1212v193h190v-193h-190z" />
    <glyph glyph-name="Gcommaaccent" unicode="&#x122;" horiz-adv-x="1221" 
d="M651 -33q-106 0 -184.5 26.5t-136 74t-96.5 113.5t-64 145q-28 88 -39.5 191t-11.5 220q0 131 15 234.5t38 175.5q37 125 109 209t171.5 117.5t206.5 33.5q177 0 282.5 -76t150.5 -214l-154 -58q-19 51 -41 89.5t-51 64.5q-37 32 -82.5 46.5t-104.5 14.5
q-80 0 -143 -27.5t-101 -72.5t-57 -96q-47 -131 -56 -221.5t-9 -215.5q0 -126 9 -215.5t23 -138t31 -90.5q41 -102 119 -149.5t180 -47.5q92 0 162.5 35.5t101.5 103t31 148.5v178h-297v137h453v-702h-137l-2 100q-57 -62 -135.5 -97.5t-180.5 -35.5zM507 -433q-21 0 -47 4
l6 94q60 0 98.5 6t63.5 18q45 22 45 62q0 32 -35.5 49.5t-124.5 17.5l29 95q42 0 84.5 -3t92 -22t75.5 -58.5t26 -92.5q0 -82 -81 -125q-41 -23 -99 -34t-133 -11z" />
    <glyph glyph-name="gcommaaccent" unicode="&#x123;" horiz-adv-x="1059" 
d="M524 -434q-152 0 -253.5 55t-139.5 154l127 43q31 -65 97.5 -99t162.5 -34q57 0 110.5 12t90.5 49q26 27 39.5 69t13.5 126v178q-50 -56 -102 -87t-103.5 -39.5t-101.5 -8.5q-48 0 -95 10.5t-88.5 36t-76.5 69t-60 109.5q-21 60 -34 140.5t-13 187.5q0 120 18 210.5
t52 155.5q46 90 123 130t182 40q108 0 185.5 -39t115.5 -121v127h150v-1106q0 -90 -18 -153t-62 -111q-51 -53 -135.5 -78.5t-184.5 -25.5zM510 113q89 0 152.5 48t87.5 116.5t24 134.5v237q0 102 -46 173.5t-109 96.5t-115 25q-79 0 -128.5 -33t-68.5 -74t-28 -77
q-14 -51 -19.5 -104t-5.5 -119q0 -62 5.5 -120.5t14.5 -99.5q10 -47 29 -84.5t48 -64t68.5 -41t90.5 -14.5zM627 1206q-14 0 -40 0.5t-57 4.5t-63 14t-58.5 29.5t-43.5 50.5t-17 77q0 40 21 71.5t61 53.5q40 23 98 34t134 11q20 0 47 -4l-6 -94q-60 0 -98.5 -6t-63.5 -19
q-45 -20 -45 -61q0 -32 35.5 -50t124.5 -18z" />
    <glyph glyph-name="Hcircumflex" unicode="&#x124;" horiz-adv-x="1274" 
d="M170 0v1475h158v-607h618v607h158v-1475h-158v729h-618v-729h-158zM370 1546l194 260h162l189 -260h-150l-119 170l-125 -170h-151z" />
    <glyph glyph-name="hcircumflex" unicode="&#x125;" horiz-adv-x="1047" 
d="M135 0v1475h148v-580q65 97 149 137.5t186 40.5q93 0 162.5 -39t101 -110.5t31.5 -157.5v-766h-149v707q0 122 -48 175.5t-151 53.5q-60 0 -111 -28t-88.5 -74t-59 -104t-21.5 -118v-612h-150zM135 1546l194 260h162l189 -260h-150l-119 170l-125 -170h-151z" />
    <glyph glyph-name="Hbar" unicode="&#x126;" horiz-adv-x="1274" 
d="M170 0v1090h-130v139h130v246h158v-246h618v246h158v-246h130v-139h-130v-1090h-158v729h-618v-729h-158zM946 868v222h-618v-222h618z" />
    <glyph glyph-name="hbar" unicode="&#x127;" horiz-adv-x="1047" 
d="M135 0v1197h-104v131h104v147h148v-147h393v-131h-393v-302q65 97 149 137.5t186 40.5q93 0 162.5 -39t101 -110.5t31.5 -157.5v-766h-149v707q0 122 -48 175.5t-151 53.5q-60 0 -111 -28t-88.5 -74t-59 -104t-21.5 -118v-612h-150z" />
    <glyph glyph-name="Itilde" unicode="&#x128;" horiz-adv-x="498" 
d="M170 0v1475h158v-1475h-158zM-28 1579q0 106 43 145q23 22 47 31.5t53 9.5q25 0 63.5 -9.5t88.5 -31.5q42 -18 69 -26.5t39 -8.5q20 0 34.5 16.5t20.5 61.5h101q0 -95 -39 -141q-20 -23 -44 -35t-54 -12q-28 0 -64.5 9.5t-81.5 29.5q-89 39 -115 39q-23 0 -38 -16.5
t-21 -61.5h-102z" />
    <glyph glyph-name="itilde" unicode="&#x129;" horiz-adv-x="420" 
d="M135 0v1040h150v-1040h-150zM-67 1231q0 106 43 145q23 22 47 31.5t53 9.5q25 0 63.5 -9.5t88.5 -31.5q42 -18 69 -26.5t39 -8.5q20 0 34.5 16.5t20.5 61.5h101q0 -95 -39 -141q-20 -23 -44 -35t-54 -12q-28 0 -64.5 9.5t-81.5 29.5q-89 39 -115 39q-23 0 -38 -16.5
t-21 -61.5h-102z" />
    <glyph glyph-name="Imacron" unicode="&#x12a;" horiz-adv-x="498" 
d="M170 0v1475h158v-1475h-158zM-60 1585v131h625v-131h-625z" />
    <glyph glyph-name="imacron" unicode="&#x12b;" horiz-adv-x="420" 
d="M135 0v1040h150v-1040h-150zM-99 1237v131h625v-131h-625z" />
    <glyph glyph-name="Ibreve" unicode="&#x12c;" horiz-adv-x="498" 
d="M170 0v1475h158v-1475h-158zM253 1567q-62 0 -108.5 17.5t-78.5 49t-51.5 75t-27.5 96.5h121q11 -71 46.5 -103t98.5 -32q62 0 97.5 32t46.5 103h118q-5 -57 -24.5 -99.5t-57.5 -74.5q-70 -64 -180 -64z" />
    <glyph glyph-name="ibreve" unicode="&#x12d;" horiz-adv-x="420" 
d="M135 0v1040h150v-1040h-150zM214 1192q-62 0 -108.5 17.5t-78.5 49t-51.5 75t-27.5 96.5h121q11 -71 46.5 -103t98.5 -32q62 0 97.5 32t46.5 103h118q-5 -57 -24.5 -99.5t-57.5 -74.5q-70 -64 -180 -64z" />
    <glyph glyph-name="Iogonek" unicode="&#x12e;" horiz-adv-x="498" 
d="M371 -371q-25 -11 -60 -20.5t-83 -9.5q-43 0 -75 12t-53.5 33.5t-32 50.5t-10.5 63q0 29 8 57.5t22 50.5q21 35 48.5 70.5t50.5 63.5h-16v1475h158v-1475q-18 -16 -41.5 -40t-44 -52.5t-34.5 -60.5t-14 -64q0 -33 19.5 -51.5t57.5 -18.5q24 0 48.5 7t51.5 19v-110z" />
    <glyph glyph-name="iogonek" unicode="&#x12f;" horiz-adv-x="420" 
d="M331 -371q-25 -11 -60 -20.5t-83 -9.5q-43 0 -75.5 12.5t-54 34t-32.5 50.5t-11 63q0 29 8 57.5t22 50.5q21 35 47 70t43 63v1040h150v-1040q-17 -16 -40 -40t-43 -52.5t-34 -60.5t-14 -64q0 -33 19.5 -51.5t57.5 -18.5q24 0 48.5 7t51.5 19v-110zM135 1303v172h150v-172
h-150z" />
    <glyph glyph-name="Idotaccent" unicode="&#x130;" horiz-adv-x="498" 
d="M170 0v1475h158v-1475h-158zM157 1592v193h190v-193h-190z" />
    <glyph glyph-name="dotlessi" unicode="&#x131;" horiz-adv-x="420" 
d="M135 0v1040h150v-1040h-150z" />
    <glyph glyph-name="IJ" unicode="&#x132;" horiz-adv-x="1493" 
d="M170 0v1475h158v-1475h-158zM932 -33q-79 0 -146.5 17.5t-102.5 41.5t-58 48q-29 29 -52 68t-40 91l147 58q15 -55 39 -91.5t54.5 -58.5t68.5 -31.5t82 -9.5q54 0 97 15.5t69 40.5q57 52 70.5 155t13.5 217v947h158v-938q0 -148 -9.5 -231t-36 -140t-63.5 -94
q-50 -50 -119.5 -77.5t-171.5 -27.5z" />
    <glyph glyph-name="ij" unicode="&#x133;" horiz-adv-x="848" 
d="M135 0v1040h150v-1040h-150zM135 1303v172h150v-172h-150zM410 -393q-11 0 -22.5 1t-22.5 1v125q9 -2 17 -2h13q77 0 113 29.5t45.5 75.5t9.5 93v1110h150v-1132q0 -68 -15 -123.5t-53 -95.5q-35 -38 -92 -60t-143 -22zM563 1303v172h150v-172h-150z" />
    <glyph glyph-name="Jcircumflex" unicode="&#x134;" horiz-adv-x="995" 
d="M434 -33q-79 0 -146.5 17.5t-102.5 41.5t-58 48q-29 29 -52 68t-40 91l147 58q15 -55 39 -91.5t54.5 -58.5t68.5 -31.5t82 -9.5q54 0 97 15.5t69 40.5q57 52 70.5 155t13.5 217v947h158v-938q0 -148 -9.5 -231t-36 -140t-63.5 -94q-50 -50 -119.5 -77.5t-171.5 -27.5z
M484 1546l194 260h162l189 -260h-150l-119 170l-125 -170h-151z" />
    <glyph glyph-name="jcircumflex" unicode="&#x135;" horiz-adv-x="428" 
d="M-10 -393q-11 0 -22.5 1t-22.5 1v125q9 -2 17 -2h13q77 0 113 29.5t45.5 75.5t9.5 93v1110h150v-1132q0 -68 -15 -123.5t-53 -95.5q-35 -38 -92 -60t-143 -22zM-56 1198l194 260h162l189 -260h-150l-119 170l-125 -170h-151z" />
    <glyph glyph-name="Kcommaaccent" unicode="&#x136;" horiz-adv-x="1155" 
d="M100 0v1475h158v-762l602 762h170l-445 -564l492 -911h-186l-414 776l-219 -280v-496h-158zM491 -433q-21 0 -47 4l6 94q60 0 98.5 6t63.5 18q45 22 45 62q0 32 -35.5 49.5t-124.5 17.5l29 95q42 0 84.5 -3t92 -22t75.5 -58.5t26 -92.5q0 -82 -81 -125q-41 -23 -99 -34
t-133 -11z" />
    <glyph glyph-name="kcommaaccent" unicode="&#x137;" horiz-adv-x="909" 
d="M135 0v1475h150v-867l424 432h176l-334 -344l350 -696h-170l-295 580l-151 -158v-422h-150zM369 -433q-21 0 -47 4l6 94q60 0 98.5 6t63.5 18q45 22 45 62q0 32 -35.5 49.5t-124.5 17.5l29 95q42 0 84.5 -3t92 -22t75.5 -58.5t26 -92.5q0 -82 -81 -125q-41 -23 -99 -34
t-133 -11z" />
    <glyph glyph-name="kgreenlandic" unicode="&#x138;" horiz-adv-x="909" 
d="M285 372v-372h-150v1040h150v-482l424 482h176l-319 -355l335 -685h-170l-276 561z" />
    <glyph glyph-name="Lacute" unicode="&#x139;" horiz-adv-x="981" 
d="M170 0v1475h158v-1338h618v-137h-776zM151 1548l104 260h217l-215 -260h-106z" />
    <glyph glyph-name="lacute" unicode="&#x13a;" horiz-adv-x="420" 
d="M135 0v1475h150v-1475h-150zM118 1550l104 260h217l-215 -260h-106z" />
    <glyph glyph-name="Lcommaaccent" unicode="&#x13b;" horiz-adv-x="981" 
d="M170 0v1475h158v-1338h618v-137h-776zM447 -433q-21 0 -47 4l6 94q60 0 98.5 6t63.5 18q45 22 45 62q0 32 -35.5 49.5t-124.5 17.5l29 95q42 0 84.5 -3t92 -22t75.5 -58.5t26 -92.5q0 -82 -81 -125q-41 -23 -99 -34t-133 -11z" />
    <glyph glyph-name="lcommaaccent" unicode="&#x13c;" horiz-adv-x="420" 
d="M135 0v1475h150v-1475h-150zM80 -433q-21 0 -47 4l6 94q60 0 98.5 6t63.5 18q45 22 45 62q0 32 -35.5 49.5t-124.5 17.5l29 95q42 0 84.5 -3t92 -22t75.5 -58.5t26 -92.5q0 -82 -81 -125q-41 -23 -99 -34t-133 -11z" />
    <glyph glyph-name="Lcaron" unicode="&#x13d;" horiz-adv-x="981" 
d="M170 0v1475h158v-1338h618v-137h-776zM534 1113v361h160l-49 -361h-111z" />
    <glyph glyph-name="lcaron" unicode="&#x13e;" horiz-adv-x="420" 
d="M135 0v1475h150v-1475h-150zM408 1113v361h160l-49 -361h-111z" />
    <glyph glyph-name="Ldot" unicode="&#x13f;" horiz-adv-x="981" 
d="M170 0v1475h158v-1338h618v-137h-776zM633 604v232h192v-232h-192z" />
    <glyph glyph-name="ldot" unicode="&#x140;" horiz-adv-x="612" 
d="M135 0v1475h150v-1475h-150zM420 604v232h192v-232h-192z" />
    <glyph glyph-name="Lslash" unicode="&#x141;" horiz-adv-x="981" 
d="M170 0v602l-162 -166v176l162 166v697h158v-541l272 272v-176l-272 -272v-621h618v-137h-776z" />
    <glyph glyph-name="lslash" unicode="&#x142;" horiz-adv-x="420" 
d="M135 0v584l-127 -127v151l127 127v740h150v-588l127 127v-152l-127 -127v-735h-150z" />
    <glyph glyph-name="Nacute" unicode="&#x143;" horiz-adv-x="1262" 
d="M170 0v1475h188l582 -1227v1227h152v-1475h-177l-593 1247v-1247h-152zM533 1548l104 260h217l-215 -260h-106z" />
    <glyph glyph-name="nacute" unicode="&#x144;" horiz-adv-x="1047" 
d="M135 0v1040h148v-145q65 97 149 137.5t186 40.5q93 0 162.5 -39t101 -110.5t31.5 -157.5v-766h-149v707q0 122 -48 175.5t-151 53.5q-60 0 -111 -28t-88.5 -74t-59 -104t-21.5 -118v-612h-150zM443 1200l104 260h217l-215 -260h-106z" />
    <glyph glyph-name="Ncommaaccent" unicode="&#x145;" horiz-adv-x="1262" 
d="M170 0v1475h188l582 -1227v1227h152v-1475h-177l-593 1247v-1247h-152zM522 -433q-21 0 -47 4l6 94q60 0 98.5 6t63.5 18q45 22 45 62q0 32 -35.5 49.5t-124.5 17.5l29 95q42 0 84.5 -3t92 -22t75.5 -58.5t26 -92.5q0 -82 -81 -125q-41 -23 -99 -34t-133 -11z" />
    <glyph glyph-name="ncommaaccent" unicode="&#x146;" horiz-adv-x="1047" 
d="M135 0v1040h148v-145q65 97 149 137.5t186 40.5q93 0 162.5 -39t101 -110.5t31.5 -157.5v-766h-149v707q0 122 -48 175.5t-151 53.5q-60 0 -111 -28t-88.5 -74t-59 -104t-21.5 -118v-612h-150zM393 -433q-21 0 -47 4l6 94q60 0 98.5 6t63.5 18q45 22 45 62
q0 32 -35.5 49.5t-124.5 17.5l29 95q42 0 84.5 -3t92 -22t75.5 -58.5t26 -92.5q0 -82 -81 -125q-41 -23 -99 -34t-133 -11z" />
    <glyph glyph-name="Ncaron" unicode="&#x147;" horiz-adv-x="1262" 
d="M170 0v1475h188l582 -1227v1227h152v-1475h-177l-593 1247v-1247h-152zM559 1546l-190 260h149l121 -170l123 170h150l-191 -260h-162z" />
    <glyph glyph-name="ncaron" unicode="&#x148;" horiz-adv-x="1047" 
d="M135 0v1040h148v-145q65 97 149 137.5t186 40.5q93 0 162.5 -39t101 -110.5t31.5 -157.5v-766h-149v707q0 122 -48 175.5t-151 53.5q-60 0 -111 -28t-88.5 -74t-59 -104t-21.5 -118v-612h-150zM469 1198l-190 260h149l121 -170l123 170h150l-191 -260h-162z" />
    <glyph glyph-name="napostrophe" unicode="&#x149;" horiz-adv-x="1137" 
d="M225 0v1040h148v-145q65 97 149 137.5t186 40.5q93 0 162.5 -39t101 -110.5t31.5 -157.5v-766h-149v707q0 122 -48 175.5t-151 53.5q-60 0 -111 -28t-88.5 -74t-59 -104t-21.5 -118v-612h-150zM-31 1002v89q44 9 66 29q24 23 32.5 55t8.5 76v15h-88v209h192v-224
q0 -137 -72 -197q-26 -24 -60.5 -36.5t-78.5 -15.5z" />
    <glyph glyph-name="Eng" unicode="&#x14a;" horiz-adv-x="1262" 
d="M941 0l-619 1247v-1247h-152v1475h188l582 -1183v1183h152v-1567q0 -68 -15 -123.5t-53 -95.5q-35 -38 -92 -60t-143 -22q-11 0 -22.5 1t-22.5 1v125q9 -2 17 -2h13q77 0 113 29.5t45.5 75.5t8.5 93v70z" />
    <glyph glyph-name="eng" unicode="&#x14b;" horiz-adv-x="1047" 
d="M764 -70v777q0 122 -48 175.5t-151 53.5q-60 0 -111 -28t-88.5 -74t-59 -104t-21.5 -118v-612h-150v1040h148v-145q65 97 149 137.5t186 40.5q93 0 162.5 -39t101 -110.5t31.5 -157.5v-858q0 -68 -14.5 -123.5t-52.5 -95.5q-35 -38 -92 -60t-143 -22q-11 0 -22.5 1
t-22.5 1v125q9 -2 17 -2q90 0 126 29.5t45.5 75.5t9.5 93z" />
    <glyph glyph-name="Omacron" unicode="&#x14c;" horiz-adv-x="1331" 
d="M666 -33q-109 0 -191.5 26.5t-142.5 74.5t-99.5 114.5t-62.5 145.5q-26 88 -38.5 199.5t-12.5 209.5q0 72 6 154.5t18 145t27 110.5q38 127 111.5 210.5t174.5 116.5t210 33q104 0 186 -26.5t143 -74.5t102 -114t64 -145q25 -88 38 -200t13 -210q0 -109 -13 -218
t-38 -191q-39 -128 -113.5 -211t-176.5 -116.5t-205 -33.5zM666 100q78 0 145 27.5t106 73.5t58 98q38 106 50.5 210t12.5 228q0 164 -14.5 253.5t-48.5 185.5q-28 74 -84.5 120.5t-115.5 62t-109 15.5q-81 0 -145.5 -26.5t-105 -73.5t-59.5 -98q-45 -121 -54 -216t-9 -223
q0 -166 14 -255t49 -183q20 -52 52 -89.5t72.5 -62t87.5 -36t98 -11.5zM356 1585v131h625v-131h-625z" />
    <glyph glyph-name="omacron" unicode="&#x14d;" horiz-adv-x="1032" 
d="M516 -33q-80 0 -142.5 19t-109 53.5t-78 82.5t-49.5 107q-23 72 -31 145.5t-8 145.5t9 146t30 143q30 96 88 156.5t134.5 84t156.5 23.5q112 0 196 -41.5t125.5 -103t59.5 -119.5q22 -71 29.5 -144t7.5 -145t-7 -145.5t-32 -145.5q-33 -93 -91 -152.5t-134.5 -84.5
t-153.5 -25zM516 92q72 0 130.5 34t86.5 105q22 57 33.5 119t11.5 170t-10.5 164t-34.5 123q-19 49 -56 81.5t-81.5 45t-79.5 12.5q-71 0 -130 -33.5t-87 -105.5q-27 -66 -36 -125t-9 -162q0 -114 10.5 -172.5t34.5 -116.5q28 -71 87 -105t130 -34zM205 1237v131h625v-131
h-625z" />
    <glyph glyph-name="Obreve" unicode="&#x14e;" horiz-adv-x="1331" 
d="M666 -33q-109 0 -191.5 26.5t-142.5 74.5t-99.5 114.5t-62.5 145.5q-26 88 -38.5 199.5t-12.5 209.5q0 72 6 154.5t18 145t27 110.5q38 127 111.5 210.5t174.5 116.5t210 33q104 0 186 -26.5t143 -74.5t102 -114t64 -145q25 -88 38 -200t13 -210q0 -109 -13 -218
t-38 -191q-39 -128 -113.5 -211t-176.5 -116.5t-205 -33.5zM666 100q78 0 145 27.5t106 73.5t58 98q38 106 50.5 210t12.5 228q0 164 -14.5 253.5t-48.5 185.5q-28 74 -84.5 120.5t-115.5 62t-109 15.5q-81 0 -145.5 -26.5t-105 -73.5t-59.5 -98q-45 -121 -54 -216t-9 -223
q0 -166 14 -255t49 -183q20 -52 52 -89.5t72.5 -62t87.5 -36t98 -11.5zM667 1567q-62 0 -108.5 17.5t-78.5 49t-51.5 75t-27.5 96.5h121q11 -71 46.5 -103t98.5 -32q62 0 97.5 32t46.5 103h118q-5 -57 -24.5 -99.5t-57.5 -74.5q-70 -64 -180 -64z" />
    <glyph glyph-name="obreve" unicode="&#x14f;" horiz-adv-x="1032" 
d="M516 -33q-80 0 -142.5 19t-109 53.5t-78 82.5t-49.5 107q-23 72 -31 145.5t-8 145.5t9 146t30 143q30 96 88 156.5t134.5 84t156.5 23.5q112 0 196 -41.5t125.5 -103t59.5 -119.5q22 -71 29.5 -144t7.5 -145t-7 -145.5t-32 -145.5q-33 -93 -91 -152.5t-134.5 -84.5
t-153.5 -25zM516 92q72 0 130.5 34t86.5 105q22 57 33.5 119t11.5 170t-10.5 164t-34.5 123q-19 49 -56 81.5t-81.5 45t-79.5 12.5q-71 0 -130 -33.5t-87 -105.5q-27 -66 -36 -125t-9 -162q0 -114 10.5 -172.5t34.5 -116.5q28 -71 87 -105t130 -34zM518 1192
q-62 0 -108.5 17.5t-78.5 49t-51.5 75t-27.5 96.5h121q11 -71 46.5 -103t98.5 -32q62 0 97.5 32t46.5 103h118q-5 -57 -24.5 -99.5t-57.5 -74.5q-70 -64 -180 -64z" />
    <glyph glyph-name="Ohungarumlaut" unicode="&#x150;" horiz-adv-x="1331" 
d="M666 -33q-109 0 -191.5 26.5t-142.5 74.5t-99.5 114.5t-62.5 145.5q-26 88 -38.5 199.5t-12.5 209.5q0 72 6 154.5t18 145t27 110.5q38 127 111.5 210.5t174.5 116.5t210 33q104 0 186 -26.5t143 -74.5t102 -114t64 -145q25 -88 38 -200t13 -210q0 -109 -13 -218
t-38 -191q-39 -128 -113.5 -211t-176.5 -116.5t-205 -33.5zM666 100q78 0 145 27.5t106 73.5t58 98q38 106 50.5 210t12.5 228q0 164 -14.5 253.5t-48.5 185.5q-28 74 -84.5 120.5t-115.5 62t-109 15.5q-81 0 -145.5 -26.5t-105 -73.5t-59.5 -98q-45 -121 -54 -216t-9 -223
q0 -166 14 -255t49 -183q20 -52 52 -89.5t72.5 -62t87.5 -36t98 -11.5zM448 1546l97 258h213l-199 -258h-111zM745 1546l105 258h211l-199 -258h-117z" />
    <glyph glyph-name="ohungarumlaut" unicode="&#x151;" horiz-adv-x="1032" 
d="M516 -33q-80 0 -142.5 19t-109 53.5t-78 82.5t-49.5 107q-23 72 -31 145.5t-8 145.5t9 146t30 143q30 96 88 156.5t134.5 84t156.5 23.5q112 0 196 -41.5t125.5 -103t59.5 -119.5q22 -71 29.5 -144t7.5 -145t-7 -145.5t-32 -145.5q-33 -93 -91 -152.5t-134.5 -84.5
t-153.5 -25zM516 92q72 0 130.5 34t86.5 105q22 57 33.5 119t11.5 170t-10.5 164t-34.5 123q-19 49 -56 81.5t-81.5 45t-79.5 12.5q-71 0 -130 -33.5t-87 -105.5q-27 -66 -36 -125t-9 -162q0 -114 10.5 -172.5t34.5 -116.5q28 -71 87 -105t130 -34zM297 1198l97 258h213
l-199 -258h-111zM594 1198l105 258h211l-199 -258h-117z" />
    <glyph glyph-name="OE" unicode="&#x152;" horiz-adv-x="1800" 
d="M633 -23q-97 0 -172.5 26t-132.5 73.5t-96 113t-62 144.5q-28 97 -39.5 202t-11.5 201q0 105 9.5 202t41.5 202q24 79 63.5 144.5t98 112.5t137 73t180.5 26q100 0 176.5 -24t122.5 -64v66h756v-138h-598v-510h569v-137h-569v-553h614v-137h-772v76q-79 -59 -158.5 -79
t-156.5 -20zM657 111q73 0 136.5 27.5t115.5 78.5q21 21 39 45v946q-16 32 -47 64q-48 49 -113 70.5t-133 21.5q-80 0 -142.5 -27t-100.5 -73.5t-56 -98.5q-46 -121 -54.5 -210.5t-8.5 -217.5q0 -165 13.5 -248.5t49.5 -179.5q20 -52 50.5 -89.5t69.5 -61.5t84.5 -35.5
t96.5 -11.5z" />
    <glyph glyph-name="oe" unicode="&#x153;" horiz-adv-x="1669" 
d="M516 -33q-80 0 -142.5 19t-109 53.5t-78 82.5t-49.5 107q-23 72 -31 145.5t-8 145.5t9 146t30 143q30 96 88 156.5t134.5 84t156.5 23.5q122 0 206.5 -50.5t133.5 -141.5q34 68 85.5 111t120 62t136.5 19q93 0 158 -24.5t110 -69.5q66 -66 90.5 -169.5t24.5 -246.5v-92
h-653v-47q0 -94 21.5 -157.5t59 -102.5t89.5 -55.5t112 -16.5q61 0 111.5 21t80 52t46.5 56l115 -65q-38 -64 -91.5 -107.5t-125 -62.5t-150.5 -19q-130 0 -217 48.5t-133 129.5q-44 -65 -95.5 -105t-113.5 -56.5t-121 -16.5zM516 92q72 0 130.5 34t86.5 105q22 57 33.5 119
t11.5 170t-10.5 164t-34.5 123q-19 50 -57.5 84t-81 44.5t-78.5 10.5q-71 0 -130 -33.5t-87 -105.5q-27 -66 -36 -125t-9 -162q0 -92 9.5 -160t35.5 -129q28 -71 87 -105t130 -34zM930 590h504q0 153 -34.5 236.5t-93 105.5t-118.5 22q-54 0 -100 -16.5t-80 -58
t-54.5 -111.5t-23.5 -178z" />
    <glyph glyph-name="Racute" unicode="&#x154;" horiz-adv-x="1145" 
d="M170 0v1475h465q108 0 186.5 -32t129.5 -89t75.5 -135.5t24.5 -171.5q0 -96 -27 -179t-82.5 -136t-128.5 -81l291 -651h-184l-265 618q-14 -2 -29 -2h-32h-268v-616h-156zM326 743h270q135 0 210 74.5t75 231.5q0 114 -41 182.5t-114 92.5t-157 24h-243v-605zM473 1548
l104 260h217l-215 -260h-106z" />
    <glyph glyph-name="racute" unicode="&#x155;" horiz-adv-x="643" 
d="M135 0v1040h148v-225q40 91 104 144.5t122 69t97 15.5h21v-151h-39q-90 0 -152.5 -43t-95.5 -109t-44 -135t-11 -133v-473h-150zM263 1200l104 260h217l-215 -260h-106z" />
    <glyph glyph-name="Rcommaaccent" unicode="&#x156;" horiz-adv-x="1145" 
d="M170 0v1475h465q108 0 186.5 -32t129.5 -89t75.5 -135.5t24.5 -171.5q0 -96 -27 -179t-82.5 -136t-128.5 -81l291 -651h-184l-265 618q-14 -2 -29 -2h-32h-268v-616h-156zM326 743h270q135 0 210 74.5t75 231.5q0 114 -41 182.5t-114 92.5t-157 24h-243v-605zM473 -433
q-21 0 -47 4l6 94q60 0 98.5 6t63.5 18q45 22 45 62q0 32 -35.5 49.5t-124.5 17.5l29 95q42 0 84.5 -3t92 -22t75.5 -58.5t26 -92.5q0 -82 -81 -125q-41 -23 -99 -34t-133 -11z" />
    <glyph glyph-name="rcommaaccent" unicode="&#x157;" horiz-adv-x="643" 
d="M135 0v1040h148v-225q40 91 104 144.5t122 69t97 15.5h21v-151h-39q-90 0 -152.5 -43t-95.5 -109t-44 -135t-11 -133v-473h-150zM103 -433q-21 0 -47 4l6 94q60 0 98.5 6t63.5 18q45 22 45 62q0 32 -35.5 49.5t-124.5 17.5l29 95q42 0 84.5 -3t92 -22t75.5 -58.5
t26 -92.5q0 -82 -81 -125q-41 -23 -99 -34t-133 -11z" />
    <glyph glyph-name="Rcaron" unicode="&#x158;" horiz-adv-x="1145" 
d="M170 0v1475h465q108 0 186.5 -32t129.5 -89t75.5 -135.5t24.5 -171.5q0 -96 -27 -179t-82.5 -136t-128.5 -81l291 -651h-184l-265 618q-14 -2 -29 -2h-32h-268v-616h-156zM326 743h270q135 0 210 74.5t75 231.5q0 114 -41 182.5t-114 92.5t-157 24h-243v-605zM489 1546
l-190 260h149l121 -170l123 170h150l-191 -260h-162z" />
    <glyph glyph-name="rcaron" unicode="&#x159;" horiz-adv-x="643" 
d="M135 0v1040h148v-225q40 91 104 144.5t122 69t97 15.5h21v-151h-39q-90 0 -152.5 -43t-95.5 -109t-44 -135t-11 -133v-473h-150zM293 1198l-190 260h149l121 -170l123 170h150l-191 -260h-162z" />
    <glyph glyph-name="Sacute" unicode="&#x15a;" horiz-adv-x="1157" 
d="M575 -33q-101 0 -180 21.5t-139.5 61.5t-103.5 95t-72 123l143 68q24 -50 55 -93t72 -75t94.5 -50t122.5 -18q71 0 139 19.5t117 66.5q31 29 48.5 71.5t17.5 100.5q0 66 -24.5 114t-60 73.5t-67.5 40.5q-19 9 -58.5 24.5t-81.5 31.5t-78.5 29.5t-49.5 18.5
q-116 45 -185 90.5t-104 91.5q-35 47 -52 106t-17 118q0 36 3.5 69t18.5 81t55.5 102.5t103 91t139 52t159.5 15.5q167 0 275.5 -65t170.5 -193l-139 -71q-41 82 -96 128t-112.5 59t-108.5 13q-81 0 -145.5 -22t-106.5 -72q-34 -41 -45 -84.5t-11 -97.5q0 -57 28 -102
t79 -81.5t121.5 -66.5t154.5 -57q128 -43 205 -85.5t105.5 -75t42.5 -54.5q28 -49 39.5 -101t11.5 -106q0 -119 -60.5 -217t-174 -143.5t-249.5 -45.5zM482 1548l104 260h217l-215 -260h-106z" />
    <glyph glyph-name="sacute" unicode="&#x15b;" horiz-adv-x="915" 
d="M471 -33q-78 0 -140 17.5t-110 48.5q-88 61 -129 164l121 57q27 -57 65.5 -95.5t88 -53.5t98.5 -15q71 0 124.5 20.5t77 59.5t23.5 88q0 55 -26 90.5t-76 61.5q-104 37 -138.5 48.5t-58.5 22.5q-83 32 -139 65.5t-82 67.5t-38.5 74.5t-12.5 83.5q0 32 8.5 71t28.5 77
q27 48 73.5 84t111.5 52.5t140 16.5q127 0 213 -49.5t131 -149.5l-116 -61q-21 44 -47 72t-55 44.5t-61 22.5t-65 6q-57 0 -98.5 -11.5t-73.5 -39.5q-23 -20 -36 -49t-13 -70q0 -38 19 -68t56.5 -55.5t94 -48t131.5 -45.5q123 -38 169.5 -76t68.5 -71q15 -25 28 -61t13 -95
q0 -67 -19 -107.5t-49 -80.5q-43 -57 -131 -85t-170 -28zM377 1200l104 260h217l-215 -260h-106z" />
    <glyph glyph-name="Scircumflex" unicode="&#x15c;" horiz-adv-x="1157" 
d="M575 -33q-101 0 -180 21.5t-139.5 61.5t-103.5 95t-72 123l143 68q24 -50 55 -93t72 -75t94.5 -50t122.5 -18q71 0 139 19.5t117 66.5q31 29 48.5 71.5t17.5 100.5q0 66 -24.5 114t-60 73.5t-67.5 40.5q-19 9 -58.5 24.5t-81.5 31.5t-78.5 29.5t-49.5 18.5
q-116 45 -185 90.5t-104 91.5q-35 47 -52 106t-17 118q0 36 3.5 69t18.5 81t55.5 102.5t103 91t139 52t159.5 15.5q167 0 275.5 -65t170.5 -193l-139 -71q-41 82 -96 128t-112.5 59t-108.5 13q-81 0 -145.5 -22t-106.5 -72q-34 -41 -45 -84.5t-11 -97.5q0 -57 28 -102
t79 -81.5t121.5 -66.5t154.5 -57q128 -43 205 -85.5t105.5 -75t42.5 -54.5q28 -49 39.5 -101t11.5 -106q0 -119 -60.5 -217t-174 -143.5t-249.5 -45.5zM316 1573l194 260h162l189 -260h-150l-119 170l-125 -170h-151z" />
    <glyph glyph-name="scircumflex" unicode="&#x15d;" horiz-adv-x="915" 
d="M471 -33q-78 0 -140 17.5t-110 48.5q-88 61 -129 164l121 57q27 -57 65.5 -95.5t88 -53.5t98.5 -15q71 0 124.5 20.5t77 59.5t23.5 88q0 55 -26 90.5t-76 61.5q-104 37 -138.5 48.5t-58.5 22.5q-83 32 -139 65.5t-82 67.5t-38.5 74.5t-12.5 83.5q0 32 8.5 71t28.5 77
q27 48 73.5 84t111.5 52.5t140 16.5q127 0 213 -49.5t131 -149.5l-116 -61q-21 44 -47 72t-55 44.5t-61 22.5t-65 6q-57 0 -98.5 -11.5t-73.5 -39.5q-23 -20 -36 -49t-13 -70q0 -38 19 -68t56.5 -55.5t94 -48t131.5 -45.5q123 -38 169.5 -76t68.5 -71q15 -25 28 -61t13 -95
q0 -67 -19 -107.5t-49 -80.5q-43 -57 -131 -85t-170 -28zM205 1198l194 260h162l189 -260h-150l-119 170l-125 -170h-151z" />
    <glyph glyph-name="Scedilla" unicode="&#x15e;" horiz-adv-x="1157" 
d="M453 -403q-21 0 -47 4l6 94q60 0 98.5 6t63.5 18q45 22 45 62q0 32 -35.5 49.5t-124.5 17.5l37 123q-55 5 -101 18q-79 21 -139.5 61t-103.5 95t-72 123l143 68q24 -50 55 -93t72 -75t94.5 -50t122.5 -18q71 0 139 19.5t117 66.5q31 29 48.5 71.5t17.5 100.5
q0 66 -24.5 114t-60 73.5t-67.5 40.5q-19 9 -58.5 24.5t-81.5 31.5t-78.5 29.5t-49.5 18.5q-116 45 -185 90.5t-104 91.5q-35 47 -52 106t-17 118q0 36 3.5 69t18.5 81t55.5 102.5t103 91t139 52t159.5 15.5q167 0 275.5 -65t170.5 -193l-139 -71q-41 82 -96 128t-112.5 59
t-108.5 13q-81 0 -145.5 -22t-106.5 -72q-34 -41 -45 -84.5t-11 -97.5q0 -57 28 -102t79 -81.5t121.5 -66.5t154.5 -57q128 -43 205 -85.5t105.5 -75t42.5 -54.5q28 -49 39.5 -101t11.5 -106q0 -119 -60.5 -217t-174.5 -144q-98 -39 -214 -44l-22 -64q54 -3 96.5 -20.5
t62 -49t19.5 -67.5q0 -82 -81 -125q-41 -23 -99 -34t-133 -11z" />
    <glyph glyph-name="scedilla" unicode="&#x15f;" horiz-adv-x="915" 
d="M356 -403q-21 0 -47 4l6 94q60 0 98.5 6t63.5 18q45 22 45 62q0 32 -35.5 49.5t-124.5 17.5l37 123q-36 5 -68 14q-62 17 -110 48q-88 61 -129 164l121 57q27 -57 65.5 -95.5t88 -53.5t98.5 -15q71 0 124.5 20.5t77 59.5t23.5 88q0 55 -26 90.5t-76 61.5
q-104 37 -138.5 48.5t-58.5 22.5q-83 32 -139 65.5t-82 67.5t-38.5 74.5t-12.5 83.5q0 32 8.5 71t28.5 77q27 48 73.5 84t111.5 52.5t140 16.5q127 0 213 -49.5t131 -149.5l-116 -61q-21 44 -47 72t-55 44.5t-61 22.5t-65 6q-57 0 -98.5 -11.5t-73.5 -39.5q-23 -20 -36 -49
t-13 -70q0 -38 19 -68t56.5 -55.5t94 -48t131.5 -45.5q123 -38 169.5 -76t68.5 -71q15 -25 28 -61t13 -95q0 -67 -19 -107.5t-49 -80.5q-43 -57 -131 -85q-66 -21 -128 -26l-22 -65q54 -3 96.5 -20.5t62 -49t19.5 -67.5q0 -82 -81 -125q-41 -23 -99 -34t-133 -11z" />
    <glyph glyph-name="Scaron" unicode="&#x160;" horiz-adv-x="1157" 
d="M575 -33q-101 0 -180 21.5t-139.5 61.5t-103.5 95t-72 123l143 68q24 -50 55 -93t72 -75t94.5 -50t122.5 -18q71 0 139 19.5t117 66.5q31 29 48.5 71.5t17.5 100.5q0 66 -24.5 114t-60 73.5t-67.5 40.5q-19 9 -58.5 24.5t-81.5 31.5t-78.5 29.5t-49.5 18.5
q-116 45 -185 90.5t-104 91.5q-35 47 -52 106t-17 118q0 36 3.5 69t18.5 81t55.5 102.5t103 91t139 52t159.5 15.5q167 0 275.5 -65t170.5 -193l-139 -71q-41 82 -96 128t-112.5 59t-108.5 13q-81 0 -145.5 -22t-106.5 -72q-34 -41 -45 -84.5t-11 -97.5q0 -57 28 -102
t79 -81.5t121.5 -66.5t154.5 -57q128 -43 205 -85.5t105.5 -75t42.5 -54.5q28 -49 39.5 -101t11.5 -106q0 -119 -60.5 -217t-174 -143.5t-249.5 -45.5zM514 1546l-190 260h149l121 -170l123 170h150l-191 -260h-162z" />
    <glyph glyph-name="scaron" unicode="&#x161;" horiz-adv-x="915" 
d="M471 -33q-78 0 -140 17.5t-110 48.5q-88 61 -129 164l121 57q27 -57 65.5 -95.5t88 -53.5t98.5 -15q71 0 124.5 20.5t77 59.5t23.5 88q0 55 -26 90.5t-76 61.5q-104 37 -138.5 48.5t-58.5 22.5q-83 32 -139 65.5t-82 67.5t-38.5 74.5t-12.5 83.5q0 32 8.5 71t28.5 77
q27 48 73.5 84t111.5 52.5t140 16.5q127 0 213 -49.5t131 -149.5l-116 -61q-21 44 -47 72t-55 44.5t-61 22.5t-65 6q-57 0 -98.5 -11.5t-73.5 -39.5q-23 -20 -36 -49t-13 -70q0 -38 19 -68t56.5 -55.5t94 -48t131.5 -45.5q123 -38 169.5 -76t68.5 -71q15 -25 28 -61t13 -95
q0 -67 -19 -107.5t-49 -80.5q-43 -57 -131 -85t-170 -28zM401 1198l-190 260h149l121 -170l123 170h150l-191 -260h-162z" />
    <glyph glyph-name="Tcommaaccent" unicode="&#x162;" horiz-adv-x="1036" 
d="M440 0v1337h-415v138h987v-138h-414v-1337h-158zM401 -433q-21 0 -47 4l6 94q60 0 98.5 6t63.5 18q45 22 45 62q0 32 -35.5 49.5t-124.5 17.5l29 95q42 0 84.5 -3t92 -22t75.5 -58.5t26 -92.5q0 -82 -81 -125q-41 -23 -99 -34t-133 -11z" />
    <glyph glyph-name="tcommaaccent" unicode="&#x163;" horiz-adv-x="553" 
d="M449 -16q-91 0 -148 24.5t-89.5 69t-44 107t-11.5 137.5v604h-136v114h136v283h149v-283h215v-114h-215v-604q0 -51 5 -90.5t22 -67t49 -41.5t86 -14q35 0 65 6v-125q-37 -6 -83 -6zM189 -433q-21 0 -47 4l6 94q60 0 98.5 6t63.5 18q45 22 45 62q0 32 -35.5 49.5
t-124.5 17.5l29 95q42 0 84.5 -3t92 -22t75.5 -58.5t26 -92.5q0 -82 -81 -125q-41 -23 -99 -34t-133 -11z" />
    <glyph glyph-name="Tcaron" unicode="&#x164;" horiz-adv-x="1036" 
d="M440 0v1337h-415v138h987v-138h-414v-1337h-158zM438 1546l-190 260h149l121 -170l123 170h150l-191 -260h-162z" />
    <glyph glyph-name="tcaron" unicode="&#x165;" horiz-adv-x="553" 
d="M449 -16q-91 0 -148 24.5t-89.5 69t-44 107t-11.5 137.5v604h-136v114h136v283h149v-283h215v-114h-215v-604q0 -51 5 -90.5t22 -67t49 -41.5t86 -14q35 0 65 6v-125q-37 -6 -83 -6zM420 1136v361h160l-49 -361h-111z" />
    <glyph glyph-name="Tbar" unicode="&#x166;" horiz-adv-x="1036" 
d="M922 695h-324v-695h-158v695h-324v139h324v503h-415v138h987v-138h-414v-503h324v-139z" />
    <glyph glyph-name="tbar" unicode="&#x167;" horiz-adv-x="553" 
d="M20 509v114h136v303h-136v114h136v283h149v-283h215v-114h-215v-303h215v-114h-215v-187q0 -51 5 -90.5t22 -67t49 -41.5t86 -14q35 0 65 6v-125q-37 -6 -83 -6q-91 0 -148 24.5t-89.5 69t-44 107t-11.5 137.5v187h-136z" />
    <glyph glyph-name="Utilde" unicode="&#x168;" horiz-adv-x="1237" 
d="M616 -33q-107 0 -193 24.5t-146 81.5t-92.5 149.5t-32.5 228.5v1024h157v-1024q0 -183 78.5 -265t228.5 -82q154 0 233 82t79 265v1024h157v-1024q0 -136 -32.5 -228.5t-93 -149.5t-147.5 -81.5t-196 -24.5zM339 1579q0 106 43 145q23 22 47 31.5t53 9.5q25 0 63.5 -9.5
t88.5 -31.5q42 -18 69 -26.5t39 -8.5q20 0 34.5 16.5t20.5 61.5h101q0 -95 -39 -141q-20 -23 -44 -35t-54 -12q-28 0 -64.5 9.5t-81.5 29.5q-89 39 -115 39q-23 0 -38 -16.5t-21 -61.5h-102z" />
    <glyph glyph-name="utilde" unicode="&#x169;" horiz-adv-x="1049" 
d="M434 -33q-59 0 -113.5 16t-96 52.5t-66.5 95t-25 143.5v766h150v-702q0 -64 12.5 -108t37.5 -71.5t63 -40t89 -12.5q60 0 111 28t88.5 73t58.5 103t21 118v612h149v-1040h-147v145q-65 -97 -149 -137.5t-183 -40.5zM245 1231q0 106 43 145q23 22 47 31.5t53 9.5
q25 0 63.5 -9.5t88.5 -31.5q42 -18 69 -26.5t39 -8.5q20 0 34.5 16.5t20.5 61.5h101q0 -95 -39 -141q-20 -23 -44 -35t-54 -12q-28 0 -64.5 9.5t-81.5 29.5q-89 39 -115 39q-23 0 -38 -16.5t-21 -61.5h-102z" />
    <glyph glyph-name="Umacron" unicode="&#x16a;" horiz-adv-x="1237" 
d="M616 -33q-107 0 -193 24.5t-146 81.5t-92.5 149.5t-32.5 228.5v1024h157v-1024q0 -183 78.5 -265t228.5 -82q154 0 233 82t79 265v1024h157v-1024q0 -136 -32.5 -228.5t-93 -149.5t-147.5 -81.5t-196 -24.5zM307 1585v131h625v-131h-625z" />
    <glyph glyph-name="umacron" unicode="&#x16b;" horiz-adv-x="1049" 
d="M434 -33q-59 0 -113.5 16t-96 52.5t-66.5 95t-25 143.5v766h150v-702q0 -64 12.5 -108t37.5 -71.5t63 -40t89 -12.5q60 0 111 28t88.5 73t58.5 103t21 118v612h149v-1040h-147v145q-65 -97 -149 -137.5t-183 -40.5zM209 1237v131h625v-131h-625z" />
    <glyph glyph-name="Ubreve" unicode="&#x16c;" horiz-adv-x="1237" 
d="M616 -33q-107 0 -193 24.5t-146 81.5t-92.5 149.5t-32.5 228.5v1024h157v-1024q0 -183 78.5 -265t228.5 -82q154 0 233 82t79 265v1024h157v-1024q0 -136 -32.5 -228.5t-93 -149.5t-147.5 -81.5t-196 -24.5zM620 1540q-62 0 -108.5 17.5t-78.5 49t-51.5 75t-27.5 96.5
h121q11 -71 46.5 -103t98.5 -32q62 0 97.5 32t46.5 103h118q-5 -57 -24.5 -99.5t-57.5 -74.5q-70 -64 -180 -64z" />
    <glyph glyph-name="ubreve" unicode="&#x16d;" horiz-adv-x="1049" 
d="M434 -33q-59 0 -113.5 16t-96 52.5t-66.5 95t-25 143.5v766h150v-702q0 -64 12.5 -108t37.5 -71.5t63 -40t89 -12.5q60 0 111 28t88.5 73t58.5 103t21 118v612h149v-1040h-147v145q-65 -97 -149 -137.5t-183 -40.5zM526 1192q-62 0 -108.5 17.5t-78.5 49t-51.5 75
t-27.5 96.5h121q11 -71 46.5 -103t98.5 -32q62 0 97.5 32t46.5 103h118q-5 -57 -24.5 -99.5t-57.5 -74.5q-70 -64 -180 -64z" />
    <glyph glyph-name="Uring" unicode="&#x16e;" horiz-adv-x="1237" 
d="M616 -33q-107 0 -193 24.5t-146 81.5t-92.5 149.5t-32.5 228.5v1024h157v-1024q0 -183 78.5 -265t228.5 -82q154 0 233 82t79 265v1024h157v-1024q0 -136 -32.5 -228.5t-93 -149.5t-147.5 -81.5t-196 -24.5zM614 1501q-40 0 -74.5 14t-60 38t-40.5 57t-15 71q0 74 53 127
q29 28 63 40.5t74 12.5q37 0 70 -12.5t61 -38.5q58 -52 58 -129q0 -76 -54 -127q-29 -28 -63 -40.5t-72 -12.5zM614 1583q34 0 59 17t35.5 38t10.5 41q0 22 -8.5 39.5t-22.5 30.5q-36 31 -74 31q-37 0 -76 -31q-28 -26 -28 -70q0 -42 29.5 -69t74.5 -27z" />
    <glyph glyph-name="uring" unicode="&#x16f;" horiz-adv-x="1049" 
d="M434 -33q-59 0 -113.5 16t-96 52.5t-66.5 95t-25 143.5v766h150v-702q0 -64 12.5 -108t37.5 -71.5t63 -40t89 -12.5q60 0 111 28t88.5 73t58.5 103t21 118v612h149v-1040h-147v145q-65 -97 -149 -137.5t-183 -40.5zM518 1153q-40 0 -74.5 14t-60 38t-40.5 57t-15 71
q0 74 53 127q29 28 63 40.5t74 12.5q37 0 70 -12.5t61 -38.5q58 -52 58 -129q0 -76 -54 -127q-29 -28 -63 -40.5t-72 -12.5zM518 1235q34 0 59 17t35.5 38t10.5 41q0 22 -8.5 39.5t-22.5 30.5q-36 31 -74 31q-37 0 -76 -31q-28 -26 -28 -70q0 -42 29.5 -69t74.5 -27z" />
    <glyph glyph-name="Uhungarumlaut" unicode="&#x170;" horiz-adv-x="1237" 
d="M616 -33q-107 0 -193 24.5t-146 81.5t-92.5 149.5t-32.5 228.5v1024h157v-1024q0 -183 78.5 -265t228.5 -82q154 0 233 82t79 265v1024h157v-1024q0 -136 -32.5 -228.5t-93 -149.5t-147.5 -81.5t-196 -24.5zM389 1546l97 258h213l-199 -258h-111zM686 1546l105 258h211
l-199 -258h-117z" />
    <glyph glyph-name="uhungarumlaut" unicode="&#x171;" horiz-adv-x="1049" 
d="M434 -33q-59 0 -113.5 16t-96 52.5t-66.5 95t-25 143.5v766h150v-702q0 -64 12.5 -108t37.5 -71.5t63 -40t89 -12.5q60 0 111 28t88.5 73t58.5 103t21 118v612h149v-1040h-147v145q-65 -97 -149 -137.5t-183 -40.5zM293 1198l97 258h213l-199 -258h-111zM590 1198
l105 258h211l-199 -258h-117z" />
    <glyph glyph-name="Uogonek" unicode="&#x172;" horiz-adv-x="1237" 
d="M860 -371q-25 -11 -60 -20.5t-83 -9.5q-43 0 -75 12t-53.5 33.5t-32 50.5t-10.5 63q0 29 8 57.5t22 50.5q15 26 34 52t38 50q-8 -1 -16 -1h-16q-107 0 -193 24.5t-146 81.5t-92.5 149.5t-32.5 228.5v1024h157v-1024q0 -183 78.5 -265t228.5 -82q154 0 233 82t79 265v1024
h157v-1024q0 -104 -18.5 -177t-52.5 -125.5t-82.5 -90.5t-108.5 -72q-22 -12 -46.5 -34.5t-45.5 -50t-34.5 -58t-13.5 -60.5q0 -33 19.5 -51.5t57.5 -18.5q24 0 48.5 7t51.5 19v-110z" />
    <glyph glyph-name="uogonek" unicode="&#x173;" horiz-adv-x="1049" 
d="M960 -371q-25 -11 -60 -20.5t-83 -9.5q-43 0 -75.5 12t-54.5 33.5t-33 50.5t-11 63q0 35 9.5 62.5t23.5 49.5q21 35 44 66.5t46 63.5v145q-66 -97 -149 -137.5t-183 -40.5q-59 0 -113.5 16t-96 52.5t-66.5 95t-25 143.5v766h150v-702q0 -64 12.5 -108t37.5 -71.5t63 -40
t89 -12.5q60 0 111 28t88.5 73t58.5 103t21 118v612h149v-1040q-17 -16 -40 -40t-43.5 -52.5t-35 -60.5t-14.5 -64q0 -33 21 -51.5t59 -18.5q24 0 48.5 7t51.5 19v-110z" />
    <glyph glyph-name="Wcircumflex" unicode="&#x174;" horiz-adv-x="1583" 
d="M356 0l-338 1475h170l250 -1252l281 1252h160l266 -1252l264 1252h156l-340 -1475h-166l-268 1182l-269 -1182h-166zM519 1546l194 260h162l189 -260h-150l-119 170l-125 -170h-151z" />
    <glyph glyph-name="wcircumflex" unicode="&#x175;" horiz-adv-x="1327" 
d="M309 0l-291 1040h150l215 -839l213 839h143l215 -839l213 839h142l-291 -1040h-137l-217 788l-218 -788h-137zM391 1198l194 260h162l189 -260h-150l-119 170l-125 -170h-151z" />
    <glyph glyph-name="Ycircumflex" unicode="&#x176;" horiz-adv-x="1053" 
d="M436 0v600l-418 875h162l344 -736l355 736h155l-440 -875v-600h-158zM254 1546l194 260h162l189 -260h-150l-119 170l-125 -170h-151z" />
    <glyph glyph-name="ycircumflex" unicode="&#x177;" horiz-adv-x="924" 
d="M139 -393q-11 0 -20 2v131h37q28 2 51 9.5t42.5 23.5t36 42t31.5 66l62 164l-361 995h150l289 -794l299 794h149l-452 -1190q-29 -75 -59.5 -122.5t-65.5 -74t-75.5 -36.5t-88.5 -10h-25zM189 1198l194 260h162l189 -260h-150l-119 170l-125 -170h-151z" />
    <glyph glyph-name="Ydieresis" unicode="&#x178;" horiz-adv-x="1053" 
d="M436 0v600l-418 875h162l344 -736l355 736h155l-440 -875v-600h-158zM295 1570v174h145v-174h-145zM604 1570v174h143v-174h-143z" />
    <glyph glyph-name="Zacute" unicode="&#x179;" horiz-adv-x="952" 
d="M29 0v127l704 1210h-680v138h846v-129l-702 -1209h727v-137h-895zM385 1548l104 260h217l-215 -260h-106z" />
    <glyph glyph-name="zacute" unicode="&#x17a;" horiz-adv-x="739" 
d="M29 0v115l516 811h-490v114h652v-114l-517 -811h521v-115h-682zM295 1200l104 260h217l-215 -260h-106z" />
    <glyph glyph-name="Zdotaccent" unicode="&#x17b;" horiz-adv-x="952" 
d="M29 0v127l704 1210h-680v138h846v-129l-702 -1209h727v-137h-895zM379 1592v193h190v-193h-190z" />
    <glyph glyph-name="zdotaccent" unicode="&#x17c;" horiz-adv-x="739" 
d="M29 0v115l516 811h-490v114h652v-114l-517 -811h521v-115h-682zM279 1212v193h190v-193h-190z" />
    <glyph glyph-name="Zcaron" unicode="&#x17d;" horiz-adv-x="952" 
d="M29 0v127l704 1210h-680v138h846v-129l-702 -1209h727v-137h-895zM411 1546l-190 260h149l121 -170l123 170h150l-191 -260h-162z" />
    <glyph glyph-name="zcaron" unicode="&#x17e;" horiz-adv-x="739" 
d="M29 0v115l516 811h-490v114h652v-114l-517 -811h521v-115h-682zM311 1198l-190 260h149l121 -170l123 170h150l-191 -260h-162z" />
    <glyph glyph-name="longs" unicode="&#x17f;" horiz-adv-x="418" 
d="M135 1139q0 101 21 161t59 97q46 46 106.5 64t122.5 18q73 0 110 -6v-125q-37 6 -92 6q-34 0 -69 -8.5t-64 -40.5q-20 -23 -32.5 -61.5t-12.5 -108.5v-1135h-149v1139z" />
    <glyph glyph-name="florin" unicode="&#x192;" horiz-adv-x="1090" 
d="M104 -393q-11 0 -22.5 1t-22.5 1l25 125q8 -2 15 -2h14q77 0 117.5 24t60 75.5t31.5 111.5l176 942h-136l23 114h135l35 170q30 158 115 230q55 46 121.5 63t128.5 17q53 0 108 -9l-22 -122q-40 6 -82 6t-80.5 -8.5t-73.5 -40.5q-25 -23 -44.5 -68t-33.5 -121l-22 -117
h235l-22 -114h-236l-176 -951q-20 -108 -49 -160.5t-64 -88.5q-42 -39 -101.5 -58.5t-152.5 -19.5z" />
    <glyph glyph-name="Scommaaccent" unicode="&#x218;" horiz-adv-x="1157" 
d="M575 -33q-101 0 -180 21.5t-139.5 61.5t-103.5 95t-72 123l143 68q24 -50 55 -93t72 -75t94.5 -50t122.5 -18q71 0 139 19.5t117 66.5q31 29 48.5 71.5t17.5 100.5q0 66 -24.5 114t-60 73.5t-67.5 40.5q-19 9 -58.5 24.5t-81.5 31.5t-78.5 29.5t-49.5 18.5
q-116 45 -185 90.5t-104 91.5q-35 47 -52 106t-17 118q0 36 3.5 69t18.5 81t55.5 102.5t103 91t139 52t159.5 15.5q167 0 275.5 -65t170.5 -193l-139 -71q-41 82 -96 128t-112.5 59t-108.5 13q-81 0 -145.5 -22t-106.5 -72q-34 -41 -45 -84.5t-11 -97.5q0 -57 28 -102
t79 -81.5t121.5 -66.5t154.5 -57q128 -43 205 -85.5t105.5 -75t42.5 -54.5q28 -49 39.5 -101t11.5 -106q0 -119 -60.5 -217t-174 -143.5t-249.5 -45.5zM457 -433q-21 0 -47 4l6 94q60 0 98.5 6t63.5 18q45 22 45 62q0 32 -35.5 49.5t-124.5 17.5l29 95q42 0 84.5 -3t92 -22
t75.5 -58.5t26 -92.5q0 -82 -81 -125q-41 -23 -99 -34t-133 -11z" />
    <glyph glyph-name="scommaaccent" unicode="&#x219;" horiz-adv-x="915" 
d="M471 -33q-78 0 -140 17.5t-110 48.5q-88 61 -129 164l121 57q27 -57 65.5 -95.5t88 -53.5t98.5 -15q71 0 124.5 20.5t77 59.5t23.5 88q0 55 -26 90.5t-76 61.5q-104 37 -138.5 48.5t-58.5 22.5q-83 32 -139 65.5t-82 67.5t-38.5 74.5t-12.5 83.5q0 32 8.5 71t28.5 77
q27 48 73.5 84t111.5 52.5t140 16.5q127 0 213 -49.5t131 -149.5l-116 -61q-21 44 -47 72t-55 44.5t-61 22.5t-65 6q-57 0 -98.5 -11.5t-73.5 -39.5q-23 -20 -36 -49t-13 -70q0 -38 19 -68t56.5 -55.5t94 -48t131.5 -45.5q123 -38 169.5 -76t68.5 -71q15 -25 28 -61t13 -95
q0 -67 -19 -107.5t-49 -80.5q-43 -57 -131 -85t-170 -28zM347 -433q-21 0 -47 4l6 94q60 0 98.5 6t63.5 18q45 22 45 62q0 32 -35.5 49.5t-124.5 17.5l29 95q42 0 84.5 -3t92 -22t75.5 -58.5t26 -92.5q0 -82 -81 -125q-41 -23 -99 -34t-133 -11z" />
    <glyph glyph-name="uni021A" unicode="&#x21a;" horiz-adv-x="1036" 
d="M440 0v1337h-415v138h987v-138h-414v-1337h-158zM401 -433q-21 0 -47 4l6 94q60 0 98.5 6t63.5 18q45 22 45 62q0 32 -35.5 49.5t-124.5 17.5l29 95q42 0 84.5 -3t92 -22t75.5 -58.5t26 -92.5q0 -82 -81 -125q-41 -23 -99 -34t-133 -11z" />
    <glyph glyph-name="uni021B" unicode="&#x21b;" horiz-adv-x="553" 
d="M449 -16q-91 0 -148 24.5t-89.5 69t-44 107t-11.5 137.5v604h-136v114h136v283h149v-283h215v-114h-215v-604q0 -51 5 -90.5t22 -67t49 -41.5t86 -14q35 0 65 6v-125q-37 -6 -83 -6zM146 -433q-21 0 -47 4l6 94q60 0 98.5 6t63.5 18q45 22 45 62q0 32 -35.5 49.5
t-124.5 17.5l29 95q42 0 84.5 -3t92 -22t75.5 -58.5t26 -92.5q0 -82 -81 -125q-41 -23 -99 -34t-133 -11z" />
    <glyph glyph-name="dotlessj" unicode="&#x237;" horiz-adv-x="428" 
d="M-10 -393q-11 0 -22.5 1t-22.5 1v125q9 -2 17 -2h13q77 0 113 29.5t45.5 75.5t9.5 93v1110h150v-1132q0 -68 -15 -123.5t-53 -95.5q-35 -38 -92 -60t-143 -22z" />
    <glyph glyph-name="apostrophe" unicode="&#x2bc;" horiz-adv-x="586" 
d="M197 1002v89q44 9 66 29q24 23 32.5 55t8.5 76v15h-88v209h192v-224q0 -137 -72 -197q-26 -24 -60.5 -36.5t-78.5 -15.5z" />
    <glyph glyph-name="circumflex" unicode="&#x2c6;" horiz-adv-x="698" 
d="M76 1198l194 260h162l189 -260h-150l-119 170l-125 -170h-151z" />
    <glyph glyph-name="caron" unicode="&#x2c7;" horiz-adv-x="698" 
d="M268 1198l-190 260h149l121 -170l123 170h150l-191 -260h-162z" />
    <glyph glyph-name="uni02C9" unicode="&#x2c9;" horiz-adv-x="698" 
d="M37 1237v131h625v-131h-625z" />
    <glyph glyph-name="breve" unicode="&#x2d8;" horiz-adv-x="698" 
d="M350 1192q-62 0 -108.5 17.5t-78.5 49t-51.5 75t-27.5 96.5h121q11 -71 46.5 -103t98.5 -32q62 0 97.5 32t46.5 103h118q-5 -57 -24.5 -99.5t-57.5 -74.5q-70 -64 -180 -64z" />
    <glyph glyph-name="dotaccent" unicode="&#x2d9;" horiz-adv-x="698" 
d="M254 1212v193h190v-193h-190z" />
    <glyph glyph-name="ring" unicode="&#x2da;" horiz-adv-x="698" 
d="M350 1153q-40 0 -74.5 14t-60 38t-40.5 57t-15 71q0 74 53 127q29 28 63 40.5t74 12.5q37 0 70 -12.5t61 -38.5q58 -52 58 -129q0 -76 -54 -127q-29 -28 -63 -40.5t-72 -12.5zM350 1235q34 0 59 17t35.5 38t10.5 41q0 22 -8.5 39.5t-22.5 30.5q-36 31 -74 31
q-37 0 -76 -31q-28 -26 -28 -70q0 -42 29.5 -69t74.5 -27z" />
    <glyph glyph-name="ogonek" unicode="&#x2db;" horiz-adv-x="698" 
d="M411 -371q-25 -11 -60 -20.5t-83 -9.5q-43 0 -75 12t-53.5 33.5t-32 50.5t-10.5 63q0 29 8 57.5t22 50.5q21 35 48.5 70.5t50.5 63.5h139q-17 -16 -40 -40t-43 -52.5t-34 -60.5t-14 -64q0 -33 19.5 -51.5t57.5 -18.5q24 0 48.5 7t51.5 19v-110z" />
    <glyph glyph-name="tilde" unicode="&#x2dc;" horiz-adv-x="698" 
d="M70 1231q0 106 43 145q23 22 47 31.5t53 9.5q25 0 63.5 -9.5t88.5 -31.5q42 -18 69 -26.5t39 -8.5q20 0 34.5 16.5t20.5 61.5h101q0 -95 -39 -141q-20 -23 -44 -35t-54 -12q-28 0 -64.5 9.5t-81.5 29.5q-89 39 -115 39q-23 0 -38 -16.5t-21 -61.5h-102z" />
    <glyph glyph-name="hungarumlaut" unicode="&#x2dd;" horiz-adv-x="698" 
d="M143 1198l97 258h213l-199 -258h-111zM440 1198l105 258h211l-199 -258h-117z" />
    <glyph glyph-name="pi" unicode="&#x3c0;" horiz-adv-x="1042" 
d="M147 0v926h-118v114h985v-114h-119v-926h-150v926h-448v-926h-150z" />
    <glyph glyph-name="Wgrave" unicode="&#x1e80;" horiz-adv-x="1583" 
d="M356 0l-338 1475h170l250 -1252l281 1252h160l266 -1252l264 1252h156l-340 -1475h-166l-268 1182l-269 -1182h-166zM795 1548l-215 260h217l105 -260h-107z" />
    <glyph glyph-name="wgrave" unicode="&#x1e81;" horiz-adv-x="1327" 
d="M309 0l-291 1040h150l215 -839l213 839h143l215 -839l213 839h142l-291 -1040h-137l-217 788l-218 -788h-137zM717 1200l-215 260h217l105 -260h-107z" />
    <glyph glyph-name="Wacute" unicode="&#x1e82;" horiz-adv-x="1583" 
d="M356 0l-338 1475h170l250 -1252l281 1252h160l266 -1252l264 1252h156l-340 -1475h-166l-268 1182l-269 -1182h-166zM701 1548l104 260h217l-215 -260h-106z" />
    <glyph glyph-name="wacute" unicode="&#x1e83;" horiz-adv-x="1327" 
d="M309 0l-291 1040h150l215 -839l213 839h143l215 -839l213 839h142l-291 -1040h-137l-217 788l-218 -788h-137zM503 1200l104 260h217l-215 -260h-106z" />
    <glyph glyph-name="Wdieresis" unicode="&#x1e84;" horiz-adv-x="1583" 
d="M356 0l-338 1475h170l250 -1252l281 1252h160l266 -1252l264 1252h156l-340 -1475h-166l-268 1182l-269 -1182h-166zM565 1570v174h145v-174h-145zM874 1570v174h143v-174h-143z" />
    <glyph glyph-name="wdieresis" unicode="&#x1e85;" horiz-adv-x="1327" 
d="M309 0l-291 1040h150l215 -839l213 839h143l215 -839l213 839h142l-291 -1040h-137l-217 788l-218 -788h-137zM437 1222v174h145v-174h-145zM746 1222v174h143v-174h-143z" />
    <glyph glyph-name="Ygrave" unicode="&#x1ef2;" horiz-adv-x="1053" 
d="M436 0v600l-418 875h162l344 -736l355 736h155l-440 -875v-600h-158zM540 1548l-215 260h217l105 -260h-107z" />
    <glyph glyph-name="ygrave" unicode="&#x1ef3;" horiz-adv-x="924" 
d="M139 -393q-11 0 -20 2v131h37q28 2 51 9.5t42.5 23.5t36 42t31.5 66l62 164l-361 995h150l289 -794l299 794h149l-452 -1190q-29 -75 -59.5 -122.5t-65.5 -74t-75.5 -36.5t-88.5 -10h-25zM516 1200l-215 260h217l105 -260h-107z" />
    <glyph glyph-name="endash" unicode="&#x2013;" horiz-adv-x="1024" 
d="M0 465v108h1024v-108h-1024z" />
    <glyph glyph-name="emdash" unicode="&#x2014;" horiz-adv-x="2048" 
d="M0 465v108h2048v-108h-2048z" />
    <glyph glyph-name="quoteleft" unicode="&#x2018;" horiz-adv-x="586" 
d="M197 928v270q0 151 71 219q26 26 61 40t79 18v-99q-46 -12 -66 -33q-25 -24 -33 -59.5t-8 -85.5v-41h88v-229h-192z" />
    <glyph glyph-name="quoteright" unicode="&#x2019;" horiz-adv-x="586" 
d="M178 928v98q44 11 66 33q24 25 32.5 60.5t8.5 84.5v41h-88v230h192v-271q0 -152 -72 -219q-26 -26 -60.5 -40t-78.5 -17z" />
    <glyph glyph-name="quotesinglbase" unicode="&#x201a;" horiz-adv-x="586" 
d="M178 -317v98q44 11 66 33q24 24 32.5 60t8.5 85v41h-88v229h192v-270q0 -152 -72 -219q-26 -26 -60.5 -40t-78.5 -17z" />
    <glyph glyph-name="quotedblleft" unicode="&#x201c;" horiz-adv-x="909" 
d="M197 928v270q0 151 71 219q26 26 61 40t79 18v-99q-46 -12 -66 -33q-25 -24 -33 -59.5t-8 -85.5v-41h88v-229h-192zM520 928v270q0 150 72 219q26 26 61 40t78 18v-99q-45 -12 -65 -33q-25 -24 -33 -59.5t-8 -85.5v-41h88v-229h-193z" />
    <glyph glyph-name="quotedblright" unicode="&#x201d;" horiz-adv-x="909" 
d="M178 928v98q44 11 66 33q24 25 32.5 60.5t8.5 84.5v41h-88v230h192v-271q0 -152 -72 -219q-26 -26 -60.5 -40t-78.5 -17zM502 928v98q46 12 65 33q25 25 33 60.5t8 84.5v41h-88v230h193v-271q0 -150 -72 -219q-51 -51 -139 -57z" />
    <glyph glyph-name="quotedblbase" unicode="&#x201e;" horiz-adv-x="909" 
d="M178 -317v98q44 11 66 33q24 24 32.5 60t8.5 85v41h-88v229h192v-270q0 -152 -72 -219q-26 -26 -60.5 -40t-78.5 -17zM502 -317v98q46 12 65 33q25 24 33 60t8 85v41h-88v229h193v-270q0 -150 -72 -219q-51 -51 -139 -57z" />
    <glyph glyph-name="dagger" unicode="&#x2020;" horiz-adv-x="934" 
d="M395 -319v1220h-315v127h313v445h144v-445h317v-127h-315v-1220h-144z" />
    <glyph glyph-name="daggerdbl" unicode="&#x2021;" horiz-adv-x="934" 
d="M395 -317v397h-315v127h315v743h-315v127h313v398h144v-398h317v-127h-317v-743h317v-127h-315v-397h-144z" />
    <glyph glyph-name="bullet" unicode="&#x2022;" horiz-adv-x="885" 
d="M442 481q-102 0 -176 74q-73 70 -73 176q0 109 75 178q75 72 174 72q101 0 176 -72q74 -70 74 -178q0 -103 -74 -176q-71 -74 -176 -74z" />
    <glyph glyph-name="ellipsis" unicode="&#x2026;" horiz-adv-x="2048" 
d="M242 0v231h200v-231h-200zM924 0v231h200v-231h-200zM1606 0v231h200v-231h-200z" />
    <glyph glyph-name="perthousand" unicode="&#x2030;" horiz-adv-x="2374" 
d="M516 -33l475 1508h121l-475 -1508h-121zM1270 -33q-68 0 -118 17t-85 49q-46 39 -68 100t-27 130t-5 134q0 103 10 176.5t34 116.5t56 72q35 32 85 48.5t118 16.5t117.5 -16.5t85.5 -48.5q68 -66 84 -160.5t16 -204.5q0 -104 -10 -173.5t-34.5 -116t-55.5 -74.5
q-36 -32 -85.5 -49t-117.5 -17zM2015 -33q-68 0 -117.5 17t-85.5 49q-31 28 -50.5 64.5t-30.5 81.5t-15 99t-4 119q0 108 11.5 180.5t34.5 114t54 70.5q36 32 85.5 48.5t117.5 16.5t118 -16.5t85 -48.5q70 -68 85 -165.5t15 -199.5q0 -104 -10.5 -177t-34.5 -116t-55 -71
q-35 -32 -85 -49t-118 -17zM1270 61q37 0 60.5 9t41.5 24q44 37 57 117t13 186q0 117 -10 177.5t-26.5 86.5t-31.5 39q-21 19 -48 26t-56 7q-65 0 -103 -33q-47 -40 -58 -120t-11 -183q0 -110 10.5 -176t26 -90t30.5 -37q22 -17 49 -25t56 -8zM2015 61q37 0 61.5 9t41.5 24
q45 38 57 124t12 179q0 109 -9 172.5t-26 91t-32 39.5q-20 19 -48 26t-57 7q-62 0 -102 -33q-47 -41 -58.5 -121.5t-11.5 -181.5q0 -80 5 -132.5t14 -86t21.5 -52.5t27.5 -32q21 -17 48 -25t56 -8zM358 614q-68 0 -117.5 17t-84.5 49q-32 28 -51.5 64.5t-30.5 81.5t-15 99
t-4 119t4 119.5t15 99.5t30.5 81t51.5 65q35 32 84.5 49t117.5 17q69 0 118.5 -17t84.5 -49q70 -68 85.5 -161t15.5 -204q0 -104 -10.5 -175.5t-35 -116t-55.5 -72.5q-35 -32 -84.5 -49t-118.5 -17zM358 709q38 0 61 8.5t42 23.5q45 38 57 124t12 179q0 117 -10 177.5
t-26 87.5t-31 39q-22 18 -49 25t-56 7q-38 0 -59 -7t-43 -25q-48 -42 -59 -119t-11 -185q0 -110 11 -178t26.5 -90.5t30.5 -34.5q22 -18 48.5 -25t55.5 -7z" />
    <glyph glyph-name="guilsinglleft" unicode="&#x2039;" horiz-adv-x="618" 
d="M426 37l-342 483l342 484l111 -60l-263 -424l263 -424z" />
    <glyph glyph-name="guilsinglright" unicode="&#x203a;" horiz-adv-x="618" 
d="M193 37l-111 59l262 424l-262 424l111 60l342 -484z" />
    <glyph glyph-name="fraction" unicode="&#x2044;" horiz-adv-x="227" 
d="M-184 -33l475 1508h121l-475 -1508h-121z" />
    <glyph glyph-name="zerosuperior" unicode="&#x2070;" 
d="M358 614q-68 0 -117.5 17t-84.5 49q-32 28 -51.5 64.5t-30.5 81.5t-15 99t-4 119q0 108 11.5 180.5t34.5 114t55 70.5q35 32 84.5 48.5t117.5 16.5q69 0 118.5 -16.5t84.5 -48.5q69 -67 85 -160.5t16 -204.5q0 -104 -10.5 -175.5t-35 -116t-55.5 -72.5q-35 -32 -84.5 -49
t-118.5 -17zM358 708q38 0 63 9t44 24q44 37 57 117t13 186q0 117 -10 177.5t-26.5 86.5t-31.5 39q-22 19 -51 26t-58 7q-38 0 -62 -8t-44 -25q-47 -41 -58.5 -121.5t-11.5 -181.5q0 -80 5 -132.5t14 -86t21.5 -52.5t27.5 -32q22 -17 50.5 -25t57.5 -8z" />
    <glyph glyph-name="foursuperior" unicode="&#x2074;" 
d="M446 633v161h-385v97l383 583h119v-583h88v-97h-88v-161h-117zM166 891h280v428z" />
    <glyph glyph-name="fivesuperior" unicode="&#x2075;" 
d="M367 614q-128 0 -200 55t-89 173l115 10q15 -76 59 -106.5t106 -30.5q34 0 62 9t47 23q26 22 43.5 60.5t17.5 101.5q0 48 -13.5 83.5t-33.5 53.5q-15 14 -41.5 25.5t-68.5 11.5q-60 0 -106 -21.5t-72 -52.5l-93 11l31 436h487v-102h-380l-17 -209q32 17 77.5 28t94.5 11
q62 0 105.5 -16t74.5 -44q38 -32 61 -90t23 -129q0 -77 -26 -135t-76 -98q-29 -25 -78.5 -41.5t-109.5 -16.5z" />
    <glyph glyph-name="sixsuperior" unicode="&#x2076;" 
d="M362 614q-128 0 -200 72q-35 33 -60 90t-34 124.5t-9 141.5q0 96 19.5 169.5t47 116.5t52.5 69q35 34 84.5 55.5t120.5 21.5q104 0 166 -41.5t88 -142.5l-113 -22q-15 57 -48.5 82.5t-96.5 25.5q-59 0 -96.5 -27t-60 -69.5t-32 -94t-10.5 -100.5q32 34 84.5 59t120.5 25
q95 0 157.5 -37.5t87.5 -102.5t25 -136q0 -69 -28 -125t-70 -90q-31 -28 -83 -46t-112 -18zM367 713q81 0 121 46t40 134q0 76 -22.5 119t-59 56t-71.5 13q-63 0 -107.5 -29.5t-59.5 -70t-15 -78.5q0 -96 45 -143t129 -47z" />
    <glyph glyph-name="sevensuperior" unicode="&#x2077;" 
d="M215 647l326 707h-365v-105h-113v207h609v-88l-332 -721h-125z" />
    <glyph glyph-name="eightsuperior" unicode="&#x2078;" 
d="M358 614q-71 0 -129 13.5t-99 43.5t-63 77t-22 114q0 51 22.5 98.5t56.5 74t66 38.5q-51 26 -83.5 74t-32.5 108q0 68 39.5 121.5t105.5 75.5t139 22q74 0 127.5 -18t88.5 -48t52 -69.5t17 -83.5q0 -60 -33 -108t-84 -74q82 -34 114 -96t32 -115q0 -96 -46.5 -154
t-121 -76t-146.5 -18zM358 715q71 0 112 16.5t57 53.5t16 83q0 78 -47 113t-138 35q-89 0 -136.5 -35t-47.5 -113q0 -46 12.5 -75.5t36.5 -47t58 -24t77 -6.5zM358 1114q160 0 160 137q0 62 -39 93.5t-121 31.5q-159 0 -159 -125q0 -69 41 -103t118 -34z" />
    <glyph glyph-name="ninesuperior" unicode="&#x2079;" 
d="M342 614q-48 0 -89 9t-74 30t-56 55.5t-35 85.5l111 25q5 -20 16 -41.5t25 -34.5q15 -15 44.5 -22.5t61.5 -7.5q37 0 62 9t47 29q37 36 60.5 96t25.5 150q-21 -24 -59.5 -46.5t-77.5 -31t-72 -8.5q-57 0 -108.5 16.5t-82.5 47.5q-34 32 -56 86.5t-22 132.5q0 72 27.5 127
t69.5 90q34 31 84.5 47t113.5 16q69 0 114.5 -16.5t76.5 -44.5q64 -60 87 -162t23 -201q0 -133 -31 -222t-89 -148q-31 -31 -79.5 -48.5t-117.5 -17.5zM342 1007q60 0 105.5 26.5t62 67t16.5 78.5q0 106 -47 151.5t-129 45.5q-160 0 -160 -180q0 -52 11.5 -88t32 -58.5
t48.5 -32.5t60 -10z" />
    <glyph glyph-name="zeroinferior" unicode="&#x2080;" 
d="M358 -17q-68 0 -117.5 17t-84.5 49q-32 28 -51.5 64.5t-30.5 81.5t-15 99t-4 119q0 108 11.5 180.5t34.5 114t55 70.5q35 32 84.5 48.5t117.5 16.5q69 0 118.5 -16.5t84.5 -48.5q69 -67 85 -160.5t16 -204.5q0 -104 -10.5 -175.5t-35 -116t-55.5 -72.5q-35 -32 -84.5 -49
t-118.5 -17zM358 77q38 0 63 9t44 24q44 37 57 117t13 186q0 117 -10 177.5t-26.5 86.5t-31.5 39q-22 19 -51 26t-58 7q-38 0 -62 -8t-44 -25q-47 -41 -58.5 -121.5t-11.5 -181.5q0 -80 5 -132.5t14 -86t21.5 -52.5t27.5 -32q22 -17 50.5 -25t57.5 -8z" />
    <glyph glyph-name="oneinferior" unicode="&#x2081;" 
d="M156 2v92h153v622l-178 -94l-45 86l246 135h94v-749h143v-92h-413z" />
    <glyph glyph-name="twoinferior" unicode="&#x2082;" 
d="M57 2v84l267 252q80 75 120 137t44 94t4 51q0 42 -17.5 72.5t-52.5 45.5t-76 15q-40 0 -68.5 -11t-48 -32t-32 -52.5t-19.5 -72.5l-117 9q6 40 19 83.5t44.5 80.5t87.5 61t146 24q109 0 171.5 -40t78 -91t15.5 -92q0 -63 -20.5 -112.5t-68 -107t-112.5 -118.5l-189 -176
h390v-104h-566z" />
    <glyph glyph-name="threeinferior" unicode="&#x2083;" 
d="M360 -17q-74 0 -126 16.5t-86.5 46.5t-54 71t-27.5 89l118 9q11 -51 35 -84t58 -43.5t75 -10.5q63 0 101.5 29.5t50.5 77.5t12 90q0 33 -12.5 71.5t-28.5 55.5q-39 41 -119 41q-54 0 -104 -18l-49 77l270 224h-364v100h499v-107l-239 -196q15 2 34 2q41 0 87.5 -13
t80.5 -42q41 -35 58.5 -83t17.5 -120q0 -65 -21 -122.5t-75 -100.5q-37 -28 -84 -44t-107 -16z" />
    <glyph glyph-name="fourinferior" unicode="&#x2084;" 
d="M446 2v161h-385v97l383 583h119v-583h88v-97h-88v-161h-117zM166 260h280v428z" />
    <glyph glyph-name="fiveinferior" unicode="&#x2085;" 
d="M367 -17q-128 0 -200 55t-89 173l115 10q15 -76 59 -106.5t106 -30.5q34 0 62 9t47 23q26 22 43.5 60.5t17.5 101.5q0 48 -13.5 83.5t-33.5 53.5q-15 14 -41.5 25.5t-68.5 11.5q-60 0 -106 -21.5t-72 -52.5l-93 11l31 436h487v-102h-380l-17 -209q32 17 77.5 28t94.5 11
q62 0 105.5 -16t74.5 -44q38 -32 61 -90t23 -129q0 -77 -26 -135t-76 -98q-29 -25 -78.5 -41.5t-109.5 -16.5z" />
    <glyph glyph-name="sixinferior" unicode="&#x2086;" 
d="M362 -17q-128 0 -200 72q-35 33 -60 90t-34 124.5t-9 141.5q0 96 19.5 169.5t47 116.5t52.5 69q35 34 84.5 55.5t120.5 21.5q104 0 166 -41.5t88 -142.5l-113 -22q-15 57 -48.5 82.5t-96.5 25.5q-59 0 -96.5 -27t-60 -69.5t-32 -94t-10.5 -100.5q32 34 84.5 59t120.5 25
q95 0 157.5 -37.5t87.5 -102.5t25 -136q0 -69 -28 -125t-70 -90q-31 -28 -83 -46t-112 -18zM367 82q81 0 121 46t40 134q0 76 -22.5 119t-59 56t-71.5 13q-63 0 -107.5 -29.5t-59.5 -70t-15 -78.5q0 -96 45 -143t129 -47z" />
    <glyph glyph-name="seveninferior" unicode="&#x2087;" 
d="M215 16l326 707h-365v-105h-113v207h609v-88l-332 -721h-125z" />
    <glyph glyph-name="eightinferior" unicode="&#x2088;" 
d="M358 -17q-71 0 -129 13.5t-99 43.5t-63 77t-22 114q0 51 22.5 98.5t56.5 74t66 38.5q-51 26 -83.5 74t-32.5 108q0 68 39.5 121.5t105.5 75.5t139 22q74 0 127.5 -18t88.5 -48t52 -69.5t17 -83.5q0 -60 -33 -108t-84 -74q82 -34 114 -96t32 -115q0 -96 -46.5 -154
t-121 -76t-146.5 -18zM358 84q71 0 112 16.5t57 53.5t16 83q0 78 -47 113t-138 35q-89 0 -136.5 -35t-47.5 -113q0 -46 12.5 -75.5t36.5 -47t58 -24t77 -6.5zM358 483q160 0 160 137q0 62 -39 93.5t-121 31.5q-159 0 -159 -125q0 -69 41 -103t118 -34z" />
    <glyph glyph-name="nineinferior" unicode="&#x2089;" 
d="M342 -17q-48 0 -89 9t-74 30t-56 55.5t-35 85.5l111 25q5 -20 16 -41.5t25 -34.5q15 -15 44.5 -22.5t61.5 -7.5q37 0 62 9t47 29q37 36 60.5 96t25.5 150q-21 -24 -59.5 -46.5t-77.5 -31t-72 -8.5q-57 0 -108.5 16.5t-82.5 47.5q-34 32 -56 86.5t-22 132.5q0 72 27.5 127
t69.5 90q34 31 84.5 47t113.5 16q69 0 114.5 -16.5t76.5 -44.5q64 -60 87 -162t23 -201q0 -133 -31 -222t-89 -148q-31 -31 -79.5 -48.5t-117.5 -17.5zM342 376q60 0 105.5 26.5t62 67t16.5 78.5q0 106 -47 151.5t-129 45.5q-160 0 -160 -180q0 -52 11.5 -88t32 -58.5
t48.5 -32.5t60 -10z" />
    <glyph glyph-name="Euro" unicode="&#x20ac;" horiz-adv-x="1090" 
d="M651 -33q-94 0 -166.5 28t-128.5 79q-77 74 -120.5 190.5t-57.5 274.5h-141l49 118h84v64v50q0 25 2 50h-135l49 119h94q17 139 56.5 241.5t105.5 168.5q59 60 142 92.5t202 32.5q106 0 188.5 -35.5t124.5 -79.5t60 -76l-76 -137q-40 69 -78.5 111.5t-99 65t-129.5 22.5
q-72 0 -121.5 -22t-87.5 -62q-56 -61 -83 -143.5t-38 -178.5h565l-49 -119h-524q-2 -23 -2 -48v-52v-64h457l-50 -118h-399q8 -121 40.5 -216.5t92.5 -152.5q73 -70 191 -70q94 0 165 52t103 151l131 -59q-34 -90 -88 -152t-140 -93.5t-188 -31.5z" />
    <glyph glyph-name="afii61289" unicode="&#x2113;" horiz-adv-x="942" 
d="M12 336q53 31 97.5 62.5t78.5 60.5v342q0 160 18 269t54 176t90 96.5t127 29.5q59 0 106 -13.5t80 -47t50.5 -92t17.5 -148.5q0 -192 -89 -353.5t-267 -309.5q0 -44 3.5 -92.5t16 -89.5t37.5 -68t68 -27q33 0 70.5 23.5t71 55t58 61.5t31.5 44l115 -112
q-31 -40 -68 -79.5t-81 -71t-94 -51t-107 -19.5q-78 0 -132 22.5t-88.5 61.5t-53 92t-25.5 114l-111 -71zM375 633q85 100 127.5 207.5t42.5 226.5q0 82 -18 119t-52 37q-23 0 -41.5 -25t-31.5 -81.5t-20 -148t-7 -225.5v-110z" />
    <glyph glyph-name="trademark" unicode="&#x2122;" horiz-adv-x="1591" 
d="M272 623v743h-252v109h623v-109h-250v-743h-121zM756 623v852h137l221 -480l225 480h131v-852h-114v661l-193 -434h-102l-191 432v-659h-114z" />
    <glyph glyph-name="Omega" unicode="&#x2126;" horiz-adv-x="1329" 
d="M131 0v137h213q-42 42 -82 106.5t-72 147t-51.5 183t-19.5 214.5q0 361 138.5 540t406.5 179t407 -179.5t139 -539.5q0 -160 -40.5 -301t-93 -225t-93.5 -125h213v-137h-442v113q76 26 130 93t87.5 159.5t49 202t15.5 220.5q0 207 -43.5 341.5t-131 189.5t-197.5 55
t-181.5 -45t-113.5 -124t-59 -186t-17 -231q0 -111 15 -220.5t48.5 -202t86.5 -159.5t130 -93v-113h-442z" />
    <glyph glyph-name="estimated" unicode="&#x212e;" horiz-adv-x="1229" 
d="M340 160q121 -121 297 -121q254 0 395 246l72 -43q-51 -75 -102.5 -128t-108 -86t-119.5 -48t-137 -15q-119 0 -216.5 42.5t-166.5 117.5t-107 178.5t-38 226.5q0 124 39 228t108.5 179t166.5 117t214 42q119 0 214.5 -40t163.5 -114t107 -178.5t45 -233.5h-827v-370z
M340 604h596v297q-129 123 -301 123t-295 -123v-297z" />
    <glyph glyph-name="onethird" unicode="&#x2153;" horiz-adv-x="1628" 
d="M156 633v92h153v622l-178 -94l-45 86l246 135h94v-749h143v-92h-413zM516 -33l475 1508h121l-475 -1508h-121zM1273 -30q-74 0 -126 16.5t-86.5 46.5t-54 71t-27.5 89l118 9q11 -51 35 -84t58 -43.5t75 -10.5q63 0 101.5 29.5t50.5 77.5t12 90q0 33 -12.5 71.5
t-28.5 55.5q-39 41 -119 41q-54 0 -104 -18l-49 77l270 224h-364v100h499v-107l-239 -196q15 2 34 2q41 0 87.5 -13t80.5 -42q41 -35 58.5 -83t17.5 -120q0 -65 -21 -122.5t-75 -100.5q-37 -28 -84 -44t-107 -16z" />
    <glyph glyph-name="twothirds" unicode="&#x2154;" horiz-adv-x="1628" 
d="M73 633v84l267 252q80 75 120 137t44 94t4 51q0 42 -17.5 72.5t-52.5 45.5t-76 15q-40 0 -68.5 -11t-48 -32t-32 -52.5t-19.5 -72.5l-117 9q6 40 19 83.5t44.5 80.5t87.5 61t146 24q109 0 171.5 -40t78 -91t15.5 -92q0 -63 -20.5 -112.5t-68 -107t-112.5 -118.5
l-189 -176h390v-104h-566zM516 -33l475 1508h121l-475 -1508h-121zM1273 -30q-74 0 -126 16.5t-86.5 46.5t-54 71t-27.5 89l118 9q11 -51 35 -84t58 -43.5t75 -10.5q63 0 101.5 29.5t50.5 77.5t12 90q0 33 -12.5 71.5t-28.5 55.5q-39 41 -119 41q-54 0 -104 -18l-49 77
l270 224h-364v100h499v-107l-239 -196q15 2 34 2q41 0 87.5 -13t80.5 -42q41 -35 58.5 -83t17.5 -120q0 -65 -21 -122.5t-75 -100.5q-37 -28 -84 -44t-107 -16z" />
    <glyph glyph-name="oneeighth" unicode="&#x215b;" horiz-adv-x="1628" 
d="M156 633v92h153v622l-178 -94l-45 86l246 135h94v-749h143v-92h-413zM516 -33l475 1508h121l-475 -1508h-121zM1282 -30q-71 0 -129 13.5t-99 43.5t-63 77t-22 114q0 51 22.5 98.5t56.5 74t66 38.5q-51 26 -83.5 74t-32.5 108q0 68 39.5 121.5t105.5 75.5t139 22
q74 0 127.5 -18t88.5 -48t52 -69.5t17 -83.5q0 -60 -33 -108t-84 -74q82 -34 114 -96t32 -115q0 -96 -46.5 -154t-121 -76t-146.5 -18zM1282 71q71 0 112 16.5t57 53.5t16 83q0 78 -47 113t-138 35q-89 0 -136.5 -35t-47.5 -113q0 -46 12.5 -75.5t36.5 -47t58 -24t77 -6.5z
M1282 470q160 0 160 137q0 62 -39 93.5t-121 31.5q-159 0 -159 -125q0 -69 41 -103t118 -34z" />
    <glyph glyph-name="threeeighths" unicode="&#x215c;" horiz-adv-x="1628" 
d="M360 614q-74 0 -126 16.5t-86.5 46.5t-54 71t-27.5 89l118 9q11 -51 35 -84t58 -43.5t75 -10.5q63 0 101.5 29.5t50.5 77.5t12 90q0 33 -12.5 71.5t-28.5 55.5q-39 41 -119 41q-54 0 -104 -18l-49 77l270 224h-364v100h499v-107l-239 -196q15 2 34 2q41 0 87.5 -13
t80.5 -42q41 -35 58.5 -83t17.5 -120q0 -65 -21 -122.5t-75 -100.5q-37 -28 -84 -44t-107 -16zM516 -33l475 1508h121l-475 -1508h-121zM1279 -30q-71 0 -129 13.5t-99 43.5t-63 77t-22 114q0 51 22.5 98.5t56.5 74t66 38.5q-51 26 -83.5 74t-32.5 108q0 68 39.5 121.5
t105.5 75.5t139 22q74 0 127.5 -18t88.5 -48t52 -69.5t17 -83.5q0 -60 -33 -108t-84 -74q82 -34 114 -96t32 -115q0 -96 -46.5 -154t-121 -76t-146.5 -18zM1279 71q71 0 112 16.5t57 53.5t16 83q0 78 -47 113t-138 35q-89 0 -136.5 -35t-47.5 -113q0 -46 12.5 -75.5
t36.5 -47t58 -24t77 -6.5zM1279 470q160 0 160 137q0 62 -39 93.5t-121 31.5q-159 0 -159 -125q0 -69 41 -103t118 -34z" />
    <glyph glyph-name="fiveeighths" unicode="&#x215d;" horiz-adv-x="1628" 
d="M367 614q-128 0 -200 55t-89 173l115 10q15 -76 59 -106.5t106 -30.5q34 0 62 9t47 23q26 22 43.5 60.5t17.5 101.5q0 48 -13.5 83.5t-33.5 53.5q-15 14 -41.5 25.5t-68.5 11.5q-60 0 -106 -21.5t-72 -52.5l-93 11l31 436h487v-102h-380l-17 -209q32 17 77.5 28t94.5 11
q62 0 105.5 -16t74.5 -44q38 -32 61 -90t23 -129q0 -77 -26 -135t-76 -98q-29 -25 -78.5 -41.5t-109.5 -16.5zM516 -33l475 1508h121l-475 -1508h-121zM1280 -30q-71 0 -129 13.5t-99 43.5t-63 77t-22 114q0 51 22.5 98.5t56.5 74t66 38.5q-51 26 -83.5 74t-32.5 108
q0 68 39.5 121.5t105.5 75.5t139 22q74 0 127.5 -18t88.5 -48t52 -69.5t17 -83.5q0 -60 -33 -108t-84 -74q82 -34 114 -96t32 -115q0 -96 -46.5 -154t-121 -76t-146.5 -18zM1280 71q71 0 112 16.5t57 53.5t16 83q0 78 -47 113t-138 35q-89 0 -136.5 -35t-47.5 -113
q0 -46 12.5 -75.5t36.5 -47t58 -24t77 -6.5zM1280 470q160 0 160 137q0 62 -39 93.5t-121 31.5q-159 0 -159 -125q0 -69 41 -103t118 -34z" />
    <glyph glyph-name="seveneighths" unicode="&#x215e;" horiz-adv-x="1628" 
d="M242 647l326 707h-365v-105h-113v207h609v-88l-332 -721h-125zM516 -33l475 1508h121l-475 -1508h-121zM1278 -30q-71 0 -129 13.5t-99 43.5t-63 77t-22 114q0 51 22.5 98.5t56.5 74t66 38.5q-51 26 -83.5 74t-32.5 108q0 68 39.5 121.5t105.5 75.5t139 22
q74 0 127.5 -18t88.5 -48t52 -69.5t17 -83.5q0 -60 -33 -108t-84 -74q82 -34 114 -96t32 -115q0 -96 -46.5 -154t-121 -76t-146.5 -18zM1278 71q71 0 112 16.5t57 53.5t16 83q0 78 -47 113t-138 35q-89 0 -136.5 -35t-47.5 -113q0 -46 12.5 -75.5t36.5 -47t58 -24t77 -6.5z
M1278 470q160 0 160 137q0 62 -39 93.5t-121 31.5q-159 0 -159 -125q0 -69 41 -103t118 -34z" />
    <glyph glyph-name="partialdiff" unicode="&#x2202;" horiz-adv-x="1032" 
d="M516 -33q-80 0 -142 19t-108.5 53.5t-78 82.5t-50.5 107q-39 112 -39 250q0 86 8.5 140.5t30.5 117.5q30 93 83.5 152.5t125.5 83.5t148 24q53 0 109 -15.5t95 -41.5t64 -55q-31 171 -73.5 252.5t-88.5 134.5q-42 43 -86.5 60.5t-91.5 17.5q-58 0 -103.5 -29.5
t-80.5 -73.5l-99 82q35 47 79 80.5t97 49.5t109 16q88 0 156.5 -29.5t128.5 -91.5q75 -80 128.5 -208t75 -272.5t21.5 -275.5q0 -123 -12.5 -214t-32.5 -153q-29 -90 -87 -152.5t-133.5 -87t-152.5 -24.5zM516 92q72 0 130.5 34t86.5 105q22 58 33.5 111.5t11.5 136.5
q0 102 -10.5 152.5t-28.5 101.5q-29 71 -88 106t-133 35q-72 0 -131.5 -33.5t-87.5 -105.5q-28 -74 -33 -92t-8.5 -62t-3.5 -102q0 -127 45 -248q13 -35 35.5 -61.5t51 -43.5t62 -25.5t68.5 -8.5z" />
    <glyph glyph-name="Delta" unicode="&#x2206;" horiz-adv-x="1188" 
d="M18 0l476 1475h165l510 -1475h-1151zM215 139h735l-379 1123z" />
    <glyph glyph-name="product" unicode="&#x220f;" horiz-adv-x="1274" 
d="M170 0v1475h934v-1475h-158v1333h-618v-1333h-158z" />
    <glyph glyph-name="summation" unicode="&#x2211;" horiz-adv-x="973" 
d="M31 0v127l528 641l-504 580v127h846v-138h-639l481 -553l-532 -647h715v-137h-895z" />
    <glyph glyph-name="minus" unicode="&#x2212;" horiz-adv-x="1090" 
d="M96 680v119h897v-119h-897z" />
    <glyph glyph-name="uni2215" unicode="&#x2215;" horiz-adv-x="227" 
d="M-184 -33l475 1508h121l-475 -1508h-121z" />
    <glyph glyph-name="uni2219" unicode="&#x2219;" horiz-adv-x="586" 
d="M197 604v232h192v-232h-192z" />
    <glyph glyph-name="radical" unicode="&#x221a;" horiz-adv-x="1399" 
d="M674 0l-299 842l-199 -103l-51 95l340 178l283 -797l583 1589h142l-662 -1804h-137z" />
    <glyph glyph-name="infinity" unicode="&#x221e;" horiz-adv-x="1090" 
d="M291 424q-91 0 -151 55t-78.5 125t-18.5 131q0 108 41 183t98.5 102t108.5 27q62 0 107.5 -23.5t81.5 -72t63 -107.5q39 86 80 130t87 57t91 13q74 0 133 -45.5t86 -117.5t27 -146q0 -86 -34.5 -164t-91 -112.5t-120.5 -34.5q-56 0 -103 22t-84.5 69t-70.5 110
q-41 -88 -88.5 -134t-90 -56.5t-73.5 -10.5zM297 530q62 0 105.5 60.5t76.5 144.5q-44 106 -85.5 155.5t-96.5 49.5q-54 0 -89 -38.5t-46.5 -85.5t-11.5 -81q0 -96 39.5 -150.5t107.5 -54.5zM795 530q52 0 88 40.5t45.5 88t9.5 78.5q0 70 -24.5 118.5t-58 67.5t-64.5 19
q-61 0 -100.5 -49t-84.5 -160q17 -41 37 -78t43 -65t50 -44t59 -16z" />
    <glyph glyph-name="integral" unicode="&#x222b;" horiz-adv-x="918" 
d="M131 -395q-53 0 -81 7t-42 13l17 123q32 -18 86 -18q72 0 110 37q29 29 47.5 84t30.5 149l145 1108q13 91 39 163t78 126q82 82 219 82q53 0 85 -8.5t44 -16.5l-16 -123q-12 6 -38 14.5t-58 8.5q-74 0 -116 -34t-64 -106.5t-33 -164.5l-138 -1082q-14 -109 -43 -178
t-75 -113q-39 -37 -88 -54t-109 -17z" />
    <glyph glyph-name="approxequal" unicode="&#x2248;" horiz-adv-x="1090" 
d="M731 463q-27 0 -51 6q-32 3 -51 14q-10 2 -38.5 11.5t-84.5 35.5q-51 22 -74 35q-50 13 -80 13q-68 0 -119 -37q-10 -8 -81 -76v143q66 52 102 68q40 18 100 18q35 0 84.5 -12.5t114.5 -40.5q63 -26 105.5 -39.5t70.5 -13.5q37 0 66.5 8t54.5 25q53 36 88 69v-141
q-63 -49 -100 -62q-26 -14 -51 -19t-56 -5zM731 784q-21 0 -49 4q-40 5 -53 11q-7 3 -123 49q-44 15 -74 35q-62 8 -80 8q-35 0 -63.5 -7t-52.5 -26q-43 -30 -84 -70v136q32 28 57 45.5t45 25.5q20 11 44.5 16t55.5 5q68 0 199 -55q135 -60 176 -60q76 0 141 51q20 17 37 30
t31 32v-148q-19 -14 -36 -24t-36 -23q-32 -20 -65 -27.5t-70 -7.5z" />
    <glyph glyph-name="notequal" unicode="&#x2260;" horiz-adv-x="1090" 
d="M356 236l-98 49l96 188h-258v119h318l147 293h-465v119h525l120 237l99 -49l-97 -188h250v-119h-309l-147 -293h456v-119h-516z" />
    <glyph glyph-name="lessequal" unicode="&#x2264;" horiz-adv-x="1090" 
d="M160 0v119h772v-119h-772zM883 264l-723 404v139l723 403l49 -108l-666 -365l666 -364z" />
    <glyph glyph-name="greaterequal" unicode="&#x2265;" horiz-adv-x="1090" 
d="M158 0v119h772v-119h-772zM207 264l-49 109l665 364l-665 365l49 108l723 -403v-139z" />
    <glyph glyph-name="lozenge" unicode="&#x25ca;" horiz-adv-x="1090" 
d="M543 -33l-430 764l430 744l434 -744zM543 205l295 526l-295 508l-293 -506z" />
    <glyph glyph-name="onefifth" unicode="&#xf500;" horiz-adv-x="1628" 
d="M156 633v92h153v622l-178 -94l-45 86l246 135h94v-749h143v-92h-413zM516 -33l475 1508h121l-475 -1508h-121zM1278 -30q-128 0 -200 55t-89 173l115 10q15 -76 59 -106.5t106 -30.5q34 0 62 9t47 23q26 22 43.5 60.5t17.5 101.5q0 48 -13.5 83.5t-33.5 53.5
q-15 14 -41.5 25.5t-68.5 11.5q-60 0 -106 -21.5t-72 -52.5l-93 11l31 436h487v-102h-380l-17 -209q32 17 77.5 28t94.5 11q62 0 105.5 -16t74.5 -44q38 -32 61 -90t23 -129q0 -77 -26 -135t-76 -98q-29 -25 -78.5 -41.5t-109.5 -16.5z" />
    <glyph glyph-name="twofifths" unicode="&#xf501;" horiz-adv-x="1628" 
d="M75 633v84l267 252q80 75 120 137t44 94t4 51q0 42 -17.5 72.5t-52.5 45.5t-76 15q-40 0 -68.5 -11t-48 -32t-32 -52.5t-19.5 -72.5l-117 9q6 40 19 83.5t44.5 80.5t87.5 61t146 24q109 0 171.5 -40t78 -91t15.5 -92q0 -63 -20.5 -112.5t-68 -107t-112.5 -118.5
l-189 -176h390v-104h-566zM516 -33l475 1508h121l-475 -1508h-121zM1277 -30q-128 0 -200 55t-89 173l115 10q15 -76 59 -106.5t106 -30.5q34 0 62 9t47 23q26 22 43.5 60.5t17.5 101.5q0 48 -13.5 83.5t-33.5 53.5q-15 14 -41.5 25.5t-68.5 11.5q-60 0 -106 -21.5
t-72 -52.5l-93 11l31 436h487v-102h-380l-17 -209q32 17 77.5 28t94.5 11q62 0 105.5 -16t74.5 -44q38 -32 61 -90t23 -129q0 -77 -26 -135t-76 -98q-29 -25 -78.5 -41.5t-109.5 -16.5z" />
    <glyph glyph-name="threefifths" unicode="&#xf502;" horiz-adv-x="1628" 
d="M360 614q-74 0 -126 16.5t-86.5 46.5t-54 71t-27.5 89l118 9q11 -51 35 -84t58 -43.5t75 -10.5q63 0 101.5 29.5t50.5 77.5t12 90q0 33 -12.5 71.5t-28.5 55.5q-39 41 -119 41q-54 0 -104 -18l-49 77l270 224h-364v100h499v-107l-239 -196q15 2 34 2q41 0 87.5 -13
t80.5 -42q41 -35 58.5 -83t17.5 -120q0 -65 -21 -122.5t-75 -100.5q-37 -28 -84 -44t-107 -16zM516 -33l475 1508h121l-475 -1508h-121zM1277 -30q-128 0 -200 55t-89 173l115 10q15 -76 59 -106.5t106 -30.5q34 0 62 9t47 23q26 22 43.5 60.5t17.5 101.5q0 48 -13.5 83.5
t-33.5 53.5q-15 14 -41.5 25.5t-68.5 11.5q-60 0 -106 -21.5t-72 -52.5l-93 11l31 436h487v-102h-380l-17 -209q32 17 77.5 28t94.5 11q62 0 105.5 -16t74.5 -44q38 -32 61 -90t23 -129q0 -77 -26 -135t-76 -98q-29 -25 -78.5 -41.5t-109.5 -16.5z" />
    <glyph glyph-name="fourfifths" unicode="&#xf503;" horiz-adv-x="1628" 
d="M446 633v161h-385v97l383 583h119v-583h88v-97h-88v-161h-117zM166 891h280v428zM516 -33l475 1508h121l-475 -1508h-121zM1277 -30q-128 0 -200 55t-89 173l115 10q15 -76 59 -106.5t106 -30.5q34 0 62 9t47 23q26 22 43.5 60.5t17.5 101.5q0 48 -13.5 83.5t-33.5 53.5
q-15 14 -41.5 25.5t-68.5 11.5q-60 0 -106 -21.5t-72 -52.5l-93 11l31 436h487v-102h-380l-17 -209q32 17 77.5 28t94.5 11q62 0 105.5 -16t74.5 -44q38 -32 61 -90t23 -129q0 -77 -26 -135t-76 -98q-29 -25 -78.5 -41.5t-109.5 -16.5z" />
    <glyph glyph-name="onesixth" unicode="&#xf504;" horiz-adv-x="1628" 
d="M156 633v92h153v622l-178 -94l-45 86l246 135h94v-749h143v-92h-413zM516 -33l475 1508h121l-475 -1508h-121zM1269 -30q-128 0 -200 72q-35 33 -60 90t-34 124.5t-9 141.5q0 96 19.5 169.5t47 116.5t52.5 69q35 34 84.5 55.5t120.5 21.5q104 0 166 -41.5t88 -142.5
l-113 -22q-15 57 -48.5 82.5t-96.5 25.5q-59 0 -96.5 -27t-60 -69.5t-32 -94t-10.5 -100.5q32 34 84.5 59t120.5 25q95 0 157.5 -37.5t87.5 -102.5t25 -136q0 -69 -28 -125t-70 -90q-31 -28 -83 -46t-112 -18zM1274 69q81 0 121 46t40 134q0 76 -22.5 119t-59 56t-71.5 13
q-63 0 -107.5 -29.5t-59.5 -70t-15 -78.5q0 -96 45 -143t129 -47z" />
    <glyph glyph-name="fivesixths" unicode="&#xf505;" horiz-adv-x="1628" 
d="M367 614q-128 0 -200 55t-89 173l115 10q15 -76 59 -106.5t106 -30.5q34 0 62 9t47 23q26 22 43.5 60.5t17.5 101.5q0 48 -13.5 83.5t-33.5 53.5q-15 14 -41.5 25.5t-68.5 11.5q-60 0 -106 -21.5t-72 -52.5l-93 11l31 436h487v-102h-380l-17 -209q32 17 77.5 28t94.5 11
q62 0 105.5 -16t74.5 -44q38 -32 61 -90t23 -129q0 -77 -26 -135t-76 -98q-29 -25 -78.5 -41.5t-109.5 -16.5zM516 -33l475 1508h121l-475 -1508h-121zM1269 -30q-128 0 -200 72q-35 33 -60 90t-34 124.5t-9 141.5q0 96 19.5 169.5t47 116.5t52.5 69q35 34 84.5 55.5
t120.5 21.5q104 0 166 -41.5t88 -142.5l-113 -22q-15 57 -48.5 82.5t-96.5 25.5q-59 0 -96.5 -27t-60 -69.5t-32 -94t-10.5 -100.5q32 34 84.5 59t120.5 25q95 0 157.5 -37.5t87.5 -102.5t25 -136q0 -69 -28 -125t-70 -90q-31 -28 -83 -46t-112 -18zM1274 69q81 0 121 46
t40 134q0 76 -22.5 119t-59 56t-71.5 13q-63 0 -107.5 -29.5t-59.5 -70t-15 -78.5q0 -96 45 -143t129 -47z" />
    <glyph glyph-name="oneseventh" unicode="&#xf506;" horiz-adv-x="1628" 
d="M156 633v92h153v622l-178 -94l-45 86l246 135h94v-749h143v-92h-413zM516 -33l475 1508h121l-475 -1508h-121zM1155 3l326 707h-365v-105h-113v207h609v-88l-332 -721h-125z" />
    <glyph glyph-name="twosevenths" unicode="&#xf507;" horiz-adv-x="1628" 
d="M82 633v84l267 252q80 75 120 137t44 94t4 51q0 42 -17.5 72.5t-52.5 45.5t-76 15q-40 0 -68.5 -11t-48 -32t-32 -52.5t-19.5 -72.5l-117 9q6 40 19 83.5t44.5 80.5t87.5 61t146 24q109 0 171.5 -40t78 -91t15.5 -92q0 -63 -20.5 -112.5t-68 -107t-112.5 -118.5
l-189 -176h390v-104h-566zM516 -33l475 1508h121l-475 -1508h-121zM1155 3l326 707h-365v-105h-113v207h609v-88l-332 -721h-125z" />
    <glyph glyph-name="threesevenths" unicode="&#xf508;" horiz-adv-x="1628" 
d="M381 614q-74 0 -126 16.5t-86.5 46.5t-54 71t-27.5 89l118 9q11 -51 35 -84t58 -43.5t75 -10.5q63 0 101.5 29.5t50.5 77.5t12 90q0 33 -12.5 71.5t-28.5 55.5q-39 41 -119 41q-54 0 -104 -18l-49 77l270 224h-364v100h499v-107l-239 -196q15 2 34 2q41 0 87.5 -13
t80.5 -42q41 -35 58.5 -83t17.5 -120q0 -65 -21 -122.5t-75 -100.5q-37 -28 -84 -44t-107 -16zM516 -33l475 1508h121l-475 -1508h-121zM1155 3l326 707h-365v-105h-113v207h609v-88l-332 -721h-125z" />
    <glyph glyph-name="foursevenths" unicode="&#xf509;" horiz-adv-x="1628" 
d="M454 633v161h-385v97l383 583h119v-583h88v-97h-88v-161h-117zM174 891h280v428zM516 -33l475 1508h121l-475 -1508h-121zM1155 3l326 707h-365v-105h-113v207h609v-88l-332 -721h-125z" />
    <glyph glyph-name="fivesevenths" unicode="&#xf50a;" horiz-adv-x="1628" 
d="M377 614q-128 0 -200 55t-89 173l115 10q15 -76 59 -106.5t106 -30.5q34 0 62 9t47 23q26 22 43.5 60.5t17.5 101.5q0 48 -13.5 83.5t-33.5 53.5q-15 14 -41.5 25.5t-68.5 11.5q-60 0 -106 -21.5t-72 -52.5l-93 11l31 436h487v-102h-380l-17 -209q32 17 77.5 28t94.5 11
q62 0 105.5 -16t74.5 -44q38 -32 61 -90t23 -129q0 -77 -26 -135t-76 -98q-29 -25 -78.5 -41.5t-109.5 -16.5zM516 -33l475 1508h121l-475 -1508h-121zM1155 3l326 707h-365v-105h-113v207h609v-88l-332 -721h-125z" />
    <glyph glyph-name="sixsevenths" unicode="&#xf50b;" horiz-adv-x="1628" 
d="M380 614q-128 0 -200 72q-35 33 -60 90t-34 124.5t-9 141.5q0 96 19.5 169.5t47 116.5t52.5 69q35 34 84.5 55.5t120.5 21.5q104 0 166 -41.5t88 -142.5l-113 -22q-15 57 -48.5 82.5t-96.5 25.5q-59 0 -96.5 -27t-60 -69.5t-32 -94t-10.5 -100.5q32 34 84.5 59t120.5 25
q95 0 157.5 -37.5t87.5 -102.5t25 -136q0 -69 -28 -125t-70 -90q-31 -28 -83 -46t-112 -18zM385 713q81 0 121 46t40 134q0 76 -22.5 119t-59 56t-71.5 13q-63 0 -107.5 -29.5t-59.5 -70t-15 -78.5q0 -96 45 -143t129 -47zM516 -33l475 1508h121l-475 -1508h-121zM1155 3
l326 707h-365v-105h-113v207h609v-88l-332 -721h-125z" />
    <glyph glyph-name="oneninth" unicode="&#xf50c;" horiz-adv-x="1628" 
d="M156 633v92h153v622l-178 -94l-45 86l246 135h94v-749h143v-92h-413zM516 -33l475 1508h121l-475 -1508h-121zM1270 -30q-48 0 -89 9t-74 30t-56 55.5t-35 85.5l111 25q5 -20 16 -41.5t25 -34.5q15 -15 44.5 -22.5t61.5 -7.5q37 0 62 9t47 29q37 36 60.5 96t25.5 150
q-21 -24 -59.5 -46.5t-77.5 -31t-72 -8.5q-57 0 -108.5 16.5t-82.5 47.5q-34 32 -56 86.5t-22 132.5q0 72 27.5 127t69.5 90q34 31 84.5 47t113.5 16q69 0 114.5 -16.5t76.5 -44.5q64 -60 87 -162t23 -201q0 -133 -31 -222t-89 -148q-31 -31 -79.5 -48.5t-117.5 -17.5z
M1270 363q60 0 105.5 26.5t62 67t16.5 78.5q0 106 -47 151.5t-129 45.5q-160 0 -160 -180q0 -52 11.5 -88t32 -58.5t48.5 -32.5t60 -10z" />
    <glyph glyph-name="twoninths" unicode="&#xf50d;" horiz-adv-x="1628" 
d="M80 633v84l267 252q80 75 120 137t44 94t4 51q0 42 -17.5 72.5t-52.5 45.5t-76 15q-40 0 -68.5 -11t-48 -32t-32 -52.5t-19.5 -72.5l-117 9q6 40 19 83.5t44.5 80.5t87.5 61t146 24q109 0 171.5 -40t78 -91t15.5 -92q0 -63 -20.5 -112.5t-68 -107t-112.5 -118.5
l-189 -176h390v-104h-566zM516 -33l475 1508h121l-475 -1508h-121zM1268 -30q-48 0 -89 9t-74 30t-56 55.5t-35 85.5l111 25q5 -20 16 -41.5t25 -34.5q15 -15 44.5 -22.5t61.5 -7.5q37 0 62 9t47 29q37 36 60.5 96t25.5 150q-21 -24 -59.5 -46.5t-77.5 -31t-72 -8.5
q-57 0 -108.5 16.5t-82.5 47.5q-34 32 -56 86.5t-22 132.5q0 72 27.5 127t69.5 90q34 31 84.5 47t113.5 16q69 0 114.5 -16.5t76.5 -44.5q64 -60 87 -162t23 -201q0 -133 -31 -222t-89 -148q-31 -31 -79.5 -48.5t-117.5 -17.5zM1268 363q60 0 105.5 26.5t62 67t16.5 78.5
q0 106 -47 151.5t-129 45.5q-160 0 -160 -180q0 -52 11.5 -88t32 -58.5t48.5 -32.5t60 -10z" />
    <glyph glyph-name="fourninths" unicode="&#xf50e;" horiz-adv-x="1628" 
d="M446 633v161h-385v97l383 583h119v-583h88v-97h-88v-161h-117zM166 891h280v428zM517 -33l475 1508h121l-475 -1508h-121zM1268 -30q-48 0 -89 9t-74 30t-56 55.5t-35 85.5l111 25q5 -20 16 -41.5t25 -34.5q15 -15 44.5 -22.5t61.5 -7.5q37 0 62 9t47 29q37 36 60.5 96
t25.5 150q-21 -24 -59.5 -46.5t-77.5 -31t-72 -8.5q-57 0 -108.5 16.5t-82.5 47.5q-34 32 -56 86.5t-22 132.5q0 72 27.5 127t69.5 90q34 31 84.5 47t113.5 16q69 0 114.5 -16.5t76.5 -44.5q64 -60 87 -162t23 -201q0 -133 -31 -222t-89 -148q-31 -31 -79.5 -48.5
t-117.5 -17.5zM1268 363q60 0 105.5 26.5t62 67t16.5 78.5q0 106 -47 151.5t-129 45.5q-160 0 -160 -180q0 -52 11.5 -88t32 -58.5t48.5 -32.5t60 -10z" />
    <glyph glyph-name="fiveninths" unicode="&#xf50f;" horiz-adv-x="1628" 
d="M367 614q-128 0 -200 55t-89 173l115 10q15 -76 59 -106.5t106 -30.5q34 0 62 9t47 23q26 22 43.5 60.5t17.5 101.5q0 48 -13.5 83.5t-33.5 53.5q-15 14 -41.5 25.5t-68.5 11.5q-60 0 -106 -21.5t-72 -52.5l-93 11l31 436h487v-102h-380l-17 -209q32 17 77.5 28t94.5 11
q62 0 105.5 -16t74.5 -44q38 -32 61 -90t23 -129q0 -77 -26 -135t-76 -98q-29 -25 -78.5 -41.5t-109.5 -16.5zM516 -33l475 1508h121l-475 -1508h-121zM1269 -30q-48 0 -89 9t-74 30t-56 55.5t-35 85.5l111 25q5 -20 16 -41.5t25 -34.5q15 -15 44.5 -22.5t61.5 -7.5
q37 0 62 9t47 29q37 36 60.5 96t25.5 150q-21 -24 -59.5 -46.5t-77.5 -31t-72 -8.5q-57 0 -108.5 16.5t-82.5 47.5q-34 32 -56 86.5t-22 132.5q0 72 27.5 127t69.5 90q34 31 84.5 47t113.5 16q69 0 114.5 -16.5t76.5 -44.5q64 -60 87 -162t23 -201q0 -133 -31 -222t-89 -148
q-31 -31 -79.5 -48.5t-117.5 -17.5zM1269 363q60 0 105.5 26.5t62 67t16.5 78.5q0 106 -47 151.5t-129 45.5q-160 0 -160 -180q0 -52 11.5 -88t32 -58.5t48.5 -32.5t60 -10z" />
    <glyph glyph-name="sevenninths" unicode="&#xf510;" horiz-adv-x="1628" 
d="M244 647l326 707h-365v-105h-113v207h609v-88l-332 -721h-125zM516 -33l475 1508h121l-475 -1508h-121zM1268 -30q-48 0 -89 9t-74 30t-56 55.5t-35 85.5l111 25q5 -20 16 -41.5t25 -34.5q15 -15 44.5 -22.5t61.5 -7.5q37 0 62 9t47 29q37 36 60.5 96t25.5 150
q-21 -24 -59.5 -46.5t-77.5 -31t-72 -8.5q-57 0 -108.5 16.5t-82.5 47.5q-34 32 -56 86.5t-22 132.5q0 72 27.5 127t69.5 90q34 31 84.5 47t113.5 16q69 0 114.5 -16.5t76.5 -44.5q64 -60 87 -162t23 -201q0 -133 -31 -222t-89 -148q-31 -31 -79.5 -48.5t-117.5 -17.5z
M1268 363q60 0 105.5 26.5t62 67t16.5 78.5q0 106 -47 151.5t-129 45.5q-160 0 -160 -180q0 -52 11.5 -88t32 -58.5t48.5 -32.5t60 -10z" />
    <glyph glyph-name="eightninths" unicode="&#xf511;" horiz-adv-x="1628" 
d="M358 614q-71 0 -129 13.5t-99 43.5t-63 77t-22 114q0 51 22.5 98.5t56.5 74t66 38.5q-51 26 -83.5 74t-32.5 108q0 68 39.5 121.5t105.5 75.5t139 22q74 0 127.5 -18t88.5 -48t52 -69.5t17 -83.5q0 -60 -33 -108t-84 -74q82 -34 114 -96t32 -115q0 -96 -46.5 -154
t-121 -76t-146.5 -18zM358 715q71 0 112 16.5t57 53.5t16 83q0 78 -47 113t-138 35q-89 0 -136.5 -35t-47.5 -113q0 -46 12.5 -75.5t36.5 -47t58 -24t77 -6.5zM358 1114q160 0 160 137q0 62 -39 93.5t-121 31.5q-159 0 -159 -125q0 -69 41 -103t118 -34zM516 -33l475 1508
h121l-475 -1508h-121zM1269 -30q-48 0 -89 9t-74 30t-56 55.5t-35 85.5l111 25q5 -20 16 -41.5t25 -34.5q15 -15 44.5 -22.5t61.5 -7.5q37 0 62 9t47 29q37 36 60.5 96t25.5 150q-21 -24 -59.5 -46.5t-77.5 -31t-72 -8.5q-57 0 -108.5 16.5t-82.5 47.5q-34 32 -56 86.5
t-22 132.5q0 72 27.5 127t69.5 90q34 31 84.5 47t113.5 16q69 0 114.5 -16.5t76.5 -44.5q64 -60 87 -162t23 -201q0 -133 -31 -222t-89 -148q-31 -31 -79.5 -48.5t-117.5 -17.5zM1269 363q60 0 105.5 26.5t62 67t16.5 78.5q0 106 -47 151.5t-129 45.5q-160 0 -160 -180
q0 -52 11.5 -88t32 -58.5t48.5 -32.5t60 -10z" />
    <glyph glyph-name="fb" unicode="&#xf600;" horiz-adv-x="1602" 
d="M157 0v926h-136v114h136v99q0 101 21 161t59 97q46 46 106.5 64t122.5 18q73 0 110 -6v-125q-37 6 -92 6q-34 0 -69 -8.5t-64 -40.5q-20 -23 -32.5 -61.5t-12.5 -108.5v-95h238v-114h-238v-926h-149zM1138 -33q-102 0 -180 41.5t-129 126.5v-135h-150v1475h150v-543
q58 70 132 105.5t181 35.5q103 0 177 -40t120 -130q32 -65 49 -157.5t17 -217.5q0 -106 -12 -186.5t-34 -142.5q-34 -96 -92 -151t-119.5 -68t-109.5 -13zM1093 96q103 0 159 55.5t76 149.5q7 31 14 97t7 130q0 66 -5.5 123.5t-19.5 108.5q-16 62 -47 104.5t-77.5 61
t-100.5 18.5q-52 0 -101 -18.5t-86.5 -55.5t-60 -92.5t-22.5 -128.5v-254q0 -66 19 -121t53.5 -94.5t83.5 -61.5t108 -22z" />
    <glyph glyph-name="fj" unicode="&#xf601;" horiz-adv-x="963" 
d="M156 0v926h-136v114h136v99q0 101 21 161t59 97q46 46 106.5 64t122.5 18q73 0 110 -6v-125q-37 6 -92 6q-34 0 -69 -8.5t-64 -40.5q-20 -23 -32.5 -61.5t-12.5 -108.5v-95h238v-114h-238v-926h-149zM525 -393q-11 0 -22.5 1t-22.5 1v125q9 -2 17 -2h13q77 0 113 29.5
t45.5 75.5t9.5 93v1110h150v-1132q0 -68 -15 -123.5t-53 -95.5q-35 -38 -92 -60t-143 -22zM678 1303v172h150v-172h-150z" />
    <glyph glyph-name="fk" unicode="&#xf602;" horiz-adv-x="1452" 
d="M156 0v926h-136v114h136v99q0 101 21 161t59 97q46 46 106.5 64t122.5 18q73 0 110 -6v-125q-37 6 -92 6q-34 0 -69 -8.5t-64 -40.5q-20 -23 -32.5 -61.5t-12.5 -108.5v-95h238v-114h-238v-926h-149zM678 0v1475h150v-867l424 432h176l-334 -344l350 -696h-170l-295 580
l-151 -158v-422h-150z" />
    <glyph glyph-name="ft" unicode="&#xf603;" horiz-adv-x="1046" 
d="M305 926v-926h-149v926h-136v114h136v99q0 101 21 161t59 97q46 46 106.5 64t122.5 18q73 0 110 -6v-125q-37 6 -92 6q-34 0 -69 -8.5t-64 -40.5q-20 -23 -32.5 -61.5t-12.5 -108.5v-95h344v248h149v-248h215v-114h-215v-604q0 -51 5 -90.5t22 -67t49 -41.5t86 -14
q35 0 65 6v-125q-37 -6 -83 -6q-91 0 -148 24.5t-89.5 69t-44 107t-11.5 137.5v604h-344z" />
    <glyph glyph-name="fh" unicode="&#xf604;" horiz-adv-x="1590" 
d="M156 0v926h-136v114h136v99q0 101 21 161t59 97q46 46 106.5 64t122.5 18q73 0 110 -6v-125q-37 6 -92 6q-34 0 -69 -8.5t-64 -40.5q-20 -23 -32.5 -61.5t-12.5 -108.5v-95h238v-114h-238v-926h-149zM678 0v1475h148v-580q65 97 149 137.5t186 40.5q93 0 162.5 -39
t101 -110.5t31.5 -157.5v-766h-149v707q0 122 -48 175.5t-151 53.5q-60 0 -111 -28t-88.5 -74t-59 -104t-21.5 -118v-612h-150z" />
    <glyph glyph-name="a.smcp" unicode="&#xf605;" horiz-adv-x="1026" 
d="M18 0l394 1135h172l424 -1135h-162l-107 299h-473l-100 -299h-148zM305 414h393l-202 571z" />
    <glyph glyph-name="b.smcp" unicode="&#xf606;" horiz-adv-x="1034" 
d="M143 0v1135h428q72 0 134 -18t107.5 -54.5t71 -91.5t25.5 -129q0 -85 -39.5 -149t-136.5 -107q88 -26 135 -73t60.5 -103t13.5 -105q0 -63 -20.5 -118.5t-64 -97t-110.5 -65.5t-159 -24h-445zM289 119h250q99 0 154.5 27.5t72 78t16.5 103.5q0 99 -63.5 144.5
t-183.5 45.5h-246v-399zM289 637h260q67 0 117 30t71 76t21 93q0 64 -27.5 105.5t-79 58t-110.5 16.5h-252v-379z" />
    <glyph glyph-name="c.smcp" unicode="&#xf607;" horiz-adv-x="985" 
d="M551 -29q-126 0 -212.5 41t-140 117.5t-77 187t-23.5 250.5q0 159 30.5 272t89.5 185t145.5 105.5t199.5 33.5q150 0 240.5 -61.5t132.5 -173.5l-145 -58q-32 91 -88 127.5t-140 36.5q-74 0 -130 -23t-94 -77.5t-57.5 -144t-19.5 -222.5q0 -121 16 -209t50.5 -145.5
t89 -85t131.5 -27.5q69 0 122.5 21.5t85.5 65.5t48 98l139 -56q-30 -91 -88.5 -151t-139 -83.5t-165.5 -23.5z" />
    <glyph glyph-name="d.smcp" unicode="&#xf608;" horiz-adv-x="1069" 
d="M143 0v1135h289q151 0 254 -34.5t166.5 -102t91 -167t27.5 -229.5q0 -118 -17.5 -214t-55.5 -166t-89 -113q-57 -50 -140 -79.5t-202 -29.5h-324zM293 125h121q121 0 175 17t97 55q45 40 73 103.5t38 141t10 160.5q0 120 -23 198t-75 128q-47 45 -117 63.5t-178 18.5
h-121v-885z" />
    <glyph glyph-name="e.smcp" unicode="&#xf609;" horiz-adv-x="897" 
d="M143 0v1135h674v-127h-524v-361h500v-127h-500v-393h536v-127h-686z" />
    <glyph glyph-name="f.smcp" unicode="&#xf60a;" horiz-adv-x="834" 
d="M143 0v1135h650v-127h-500v-349h475v-129h-475v-530h-150z" />
    <glyph glyph-name="g.smcp" unicode="&#xf60b;" horiz-adv-x="1065" 
d="M543 -29q-87 0 -152.5 20.5t-113.5 57t-81 87.5t-55 112q-27 76 -35 159.5t-8 159.5q0 84 11.5 167t33.5 151q20 60 53.5 110.5t83.5 88t119.5 58.5t161.5 21q150 0 240.5 -59.5t132.5 -171.5l-146 -58q-42 104 -101.5 133t-129.5 29q-81 0 -144.5 -34.5t-97.5 -108.5
q-28 -60 -41.5 -133.5t-13.5 -196.5q0 -96 7.5 -159.5t20 -99.5t25.5 -66q32 -76 95 -108t147 -32q73 0 132.5 26t84.5 75.5t25 107.5v123h-250v127h397v-557h-133v76q-95 -105 -268 -105z" />
    <glyph glyph-name="h.smcp" unicode="&#xf60c;" horiz-adv-x="1087" 
d="M143 0v1135h150v-457h502v457h149v-1135h-149v549h-502v-549h-150z" />
    <glyph glyph-name="i.smcp" unicode="&#xf60d;" horiz-adv-x="436" 
d="M143 0v1135h150v-1135h-150z" />
    <glyph glyph-name="j.smcp" unicode="&#xf60e;" horiz-adv-x="852" 
d="M375 -25q-70 0 -125 13.5t-87 32.5t-52 38q-25 23 -44.5 53t-33.5 76l135 58q22 -66 56.5 -99t71 -40t73.5 -7q43 0 77 11.5t56 29.5q38 32 52.5 93.5t14.5 181.5v719h150v-721q0 -107 -8.5 -174.5t-31 -110t-54.5 -72.5q-44 -38 -104 -60t-146 -22z" />
    <glyph glyph-name="k.smcp" unicode="&#xf60f;" horiz-adv-x="985" 
d="M143 0v1135h150v-560l487 560h170l-381 -437l416 -698h-180l-336 582l-176 -191v-391h-150z" />
    <glyph glyph-name="l.smcp" unicode="&#xf610;" horiz-adv-x="834" 
d="M143 0v1135h150v-1008h520v-127h-670z" />
    <glyph glyph-name="m.smcp" unicode="&#xf611;" horiz-adv-x="1298" 
d="M143 0v1135h193l313 -691l322 691h184v-1135h-143v956l-297 -645h-135l-293 645v-956h-144z" />
    <glyph glyph-name="n.smcp" unicode="&#xf612;" horiz-adv-x="1077" 
d="M143 0v1135h183l465 -926v926h143v-1135h-172l-475 942v-942h-144z" />
    <glyph glyph-name="o.smcp" unicode="&#xf613;" horiz-adv-x="1130" 
d="M565 -29q-89 0 -158.5 22t-121.5 60t-87.5 90.5t-54.5 114.5q-23 74 -34 155.5t-11 153.5q0 73 11 154t34 156q30 97 96 164.5t151.5 94.5t174.5 27q126 0 219.5 -46t138.5 -112.5t64 -127.5q23 -75 34 -156t11 -154q0 -72 -11 -153.5t-34 -155.5q-31 -100 -96 -166.5
t-151 -93.5t-175 -27zM565 98q84 0 151.5 40t98.5 114q35 86 45 158t10 157q0 114 -13 178.5t-42 137.5q-31 74 -98.5 113.5t-151.5 39.5q-83 0 -151 -39.5t-99 -113.5q-38 -91 -46.5 -156.5t-8.5 -159.5q0 -64 4 -110t11.5 -82t17.5 -65t22 -58q31 -74 99 -114t151 -40z
" />
    <glyph glyph-name="p.smcp" unicode="&#xf614;" horiz-adv-x="950" 
d="M143 0v1135h379q130 0 216.5 -55.5t113.5 -135t27 -151.5q0 -75 -21.5 -138t-69 -108.5t-122 -70.5t-179.5 -25h-198v-451h-146zM289 569h200q109 0 169.5 54.5t60.5 171.5q0 83 -32.5 134.5t-92 69t-127.5 17.5h-178v-447z" />
    <glyph glyph-name="q.smcp" unicode="&#xf615;" horiz-adv-x="1130" 
d="M950 -92l-135 125q-49 -29 -110.5 -45.5t-139.5 -16.5q-89 0 -158.5 22t-121.5 60t-87.5 90.5t-54.5 114.5q-23 74 -34 155.5t-11 153.5q0 73 11 154t34 156q30 97 96 164.5t151.5 94.5t174.5 27q126 0 219.5 -46t138.5 -112.5t64 -127.5q23 -75 34 -156t11 -154
q0 -72 -11 -152.5t-36 -154.5q-14 -40 -33 -75t-45 -66l129 -121zM565 98q38 0 75.5 9t68.5 26l-109 103l86 90l113 -105q32 49 51.5 131.5t19.5 214.5q0 114 -13 178.5t-42 137.5q-31 74 -98.5 113.5t-151.5 39.5q-83 0 -151 -39.5t-99 -113.5q-38 -91 -46.5 -156.5
t-8.5 -159.5q0 -64 4 -110t11.5 -82t17.5 -65t22 -58q31 -74 99 -114t151 -40z" />
    <glyph glyph-name="r.smcp" unicode="&#xf616;" horiz-adv-x="993" 
d="M143 0v1135h400q92 0 159 -25t111 -70t65 -106t21 -133q0 -64 -18.5 -126t-64.5 -111.5t-109 -74.5l241 -489h-172l-219 461h-33h-235v-461h-146zM289 580h221q109 0 169 53t60 166q0 84 -32 133t-91.5 66.5t-128.5 17.5h-198v-436z" />
    <glyph glyph-name="s.smcp" unicode="&#xf617;" horiz-adv-x="991" 
d="M496 -29q-86 0 -153.5 17.5t-119.5 49t-89.5 76.5t-63.5 99l135 63q30 -60 75.5 -104t101 -60t112.5 -16q82 0 143 23.5t88 67.5t27 96q0 61 -32 98.5t-91 62.5q-54 23 -121 43.5t-133 44.5q-65 25 -122.5 57.5t-94.5 76.5q-31 37 -45.5 83t-14.5 93q0 103 52 178.5
t142 109t195 33.5q120 0 205 -33t129 -82t70 -96l-127 -67q-61 104 -130.5 130.5t-137.5 26.5q-66 0 -117.5 -16t-83.5 -51q-28 -31 -36.5 -62t-8.5 -71q0 -57 48.5 -101t123 -72t145.5 -48q140 -44 212.5 -88t102 -108t29.5 -138q0 -56 -21 -112t-70 -101.5t-128 -74
t-196 -28.5z" />
    <glyph glyph-name="t.smcp" unicode="&#xf618;" horiz-adv-x="883" 
d="M367 0v1008h-349v127h846v-127h-348v-1008h-149z" />
    <glyph glyph-name="u.smcp" unicode="&#xf619;" horiz-adv-x="1067" 
d="M532 -29q-92 0 -166 19t-125.5 63.5t-79.5 116t-28 176.5v789h150v-781q0 -102 36.5 -162t94 -77t118.5 -17q62 0 109.5 14.5t79 45.5t47.5 79.5t16 116.5v781h150v-789q0 -152 -61 -239.5t-154.5 -111.5t-186.5 -24z" />
    <glyph glyph-name="v.smcp" unicode="&#xf61a;" horiz-adv-x="956" 
d="M397 0l-379 1135h166l295 -963l299 963h160l-381 -1135h-160z" />
    <glyph glyph-name="w.smcp" unicode="&#xf61b;" horiz-adv-x="1393" 
d="M311 0l-293 1135h160l213 -942l234 942h155l224 -942l223 942h147l-293 -1135h-161l-224 893l-225 -893h-160z" />
    <glyph glyph-name="x.smcp" unicode="&#xf61c;" horiz-adv-x="930" 
d="M29 0l358 598l-313 537h157l236 -416l240 416h149l-311 -529l356 -606h-166l-272 483l-277 -483h-157z" />
    <glyph glyph-name="y.smcp" unicode="&#xf61d;" horiz-adv-x="899" 
d="M365 0v461l-355 674h154l285 -549l290 549h150l-375 -674v-461h-149z" />
    <glyph glyph-name="z.smcp" unicode="&#xf61e;" horiz-adv-x="825" 
d="M29 0v106l577 910h-557v119h727v-107l-577 -909h598v-119h-768z" />
    <glyph glyph-name="ae.smcp" unicode="&#xf61f;" horiz-adv-x="1479" 
d="M0 0l633 1135h766v-127h-525v-361h500v-127h-500v-393h537v-127h-686v297h-412l-166 -297h-147zM377 412h348v624z" />
    <glyph glyph-name="eng.smcp" unicode="&#xf620;" horiz-adv-x="1077" 
d="M784 0l-497 942v-942h-144v1135h183l465 -882v882h143v-1227q0 -68 -15 -123.5t-53 -95.5q-35 -38 -92 -60t-143 -22q-11 0 -22.5 1t-22.5 1v125q9 -2 17 -2h13q77 0 113 29.5t45.5 75.5t9.5 93v70z" />
    <glyph glyph-name="oe.smcp" unicode="&#xf621;" horiz-adv-x="1561" 
d="M539 -16q-83 0 -148 19.5t-113 55.5t-81.5 86.5t-53.5 112.5q-23 74 -34 154.5t-11 154.5q0 81 8.5 155t36.5 155q21 61 55 111.5t83.5 86.5t116.5 56t155 20q91 0 153 -25.5t89 -48.5v58h673v-127h-524v-361h500v-127h-500v-393h537v-127h-686v66q-47 -41 -107 -61.5
t-149 -20.5zM561 111q57 0 109.5 20.5t97.5 58.5q11 13 27 25v703q-9 13 -33 38q-42 36 -94.5 52t-108.5 16q-85 0 -149.5 -35t-96.5 -112q-31 -69 -42 -133.5t-11 -176.5q0 -83 8 -147t20.5 -99.5t24.5 -62.5q35 -78 99 -112.5t149 -34.5z" />
    <glyph glyph-name="eth.smcp" unicode="&#xf622;" horiz-adv-x="1069" 
d="M143 0v539h-108v120h108v476h289q151 0 254 -34.5t166.5 -102t91 -167t27.5 -229.5q0 -118 -17.5 -214t-55.5 -166t-89 -113q-57 -50 -140 -79.5t-202 -29.5h-324zM293 125h121q121 0 175 17t97 55q45 40 73 103.5t38 141t10 160.5q0 120 -23 198t-75 128
q-47 45 -117 63.5t-178 18.5h-121v-351h229v-120h-229v-414z" />
    <glyph glyph-name="hbar.smcp" unicode="&#xf623;" horiz-adv-x="1087" 
d="M143 0v836h-100v129h100v170h150v-170h502v170h149v-170h100v-129h-100v-836h-149v549h-502v-549h-150zM795 678v158h-502v-158h502z" />
    <glyph glyph-name="ij.smcp" unicode="&#xf624;" horiz-adv-x="1288" 
d="M143 0v1135h150v-1135h-150zM811 -25q-70 0 -125 13.5t-87 32.5t-52 38q-25 23 -44.5 53t-33.5 76l135 58q22 -66 56.5 -99t71 -40t73.5 -7q43 0 77 11.5t56 29.5q38 32 52.5 93.5t14.5 181.5v719h150v-721q0 -107 -8.5 -174.5t-31 -110t-54.5 -72.5q-44 -38 -104 -60
t-146 -22z" />
    <glyph glyph-name="idotaccent.smcp" unicode="&#xf625;" horiz-adv-x="436" 
d="M143 0v1135h150v-1135h-150zM125 1271v193h190v-193h-190z" />
    <glyph glyph-name="dotlessi.smcp" unicode="&#xf626;" horiz-adv-x="436" 
d="M143 0v1135h150v-1135h-150z" />
    <glyph glyph-name="oslash.smcp" unicode="&#xf627;" horiz-adv-x="1130" 
d="M207 -88l-92 55l98 154q-23 31 -40 65t-30 72q-23 74 -34 155.5t-11 153.5q0 73 11 154t34 156q30 97 96 164.5t151.5 94.5t174.5 27q85 0 152.5 -20t120.5 -56l86 136l92 -56l-101 -153q25 -31 42.5 -65t29.5 -72q23 -75 34 -156t11 -154q0 -72 -11 -153.5t-34 -155.5
q-31 -100 -96 -166.5t-151 -93.5t-175 -27q-85 0 -152.5 20.5t-119.5 55.5zM565 98q84 0 151.5 40t98.5 114q35 86 45 158t10 157q0 100 -12 167.5t-37 131.5l-448 -698q37 -34 87 -52t105 -18zM309 268l449 699q-37 34 -87 51.5t-106 17.5q-83 0 -151 -39.5t-99 -113.5
q-38 -91 -46.5 -156.5t-8.5 -159.5q0 -114 13 -179.5t36 -119.5z" />
    <glyph glyph-name="thorn.smcp" unicode="&#xf628;" horiz-adv-x="950" 
d="M143 0v1135h146v-191h233q130 0 216.5 -55.5t113.5 -135t27 -151.5q0 -75 -21.5 -138t-69 -108.5t-122 -70.5t-179.5 -25h-198v-260h-146zM289 379h200q110 0 170 54t60 171q0 83 -32.5 134.5t-92 69t-127.5 17.5h-178v-446z" />
    <glyph glyph-name="tbar.smcp" unicode="&#xf629;" horiz-adv-x="883" 
d="M367 0v519h-299v129h299v360h-349v127h846v-127h-348v-360h298v-129h-298v-519h-149z" />
    <glyph glyph-name="kgreenlandic.smcp" unicode="&#xf62a;" horiz-adv-x="985" 
d="M143 0v1135h150v-560l487 560h170l-381 -437l416 -698h-180l-336 582l-176 -191v-391h-150z" />
    <glyph glyph-name="lslash.smcp" unicode="&#xf62b;" horiz-adv-x="834" 
d="M143 0v432l-110 -110v159l110 111v543h150v-392l194 195v-160l-194 -194v-457h520v-127h-670z" />
    <glyph glyph-name="ampersand.smcp" unicode="&#xf62c;" horiz-adv-x="1098" 
d="M444 -29q-71 0 -137 19.5t-117 58t-81.5 96t-30.5 134.5q0 88 30 152.5t89 115.5q46 43 143 104q-44 54 -73.5 103.5t-38.5 86.5t-9 72q0 82 42.5 143t108 84t130.5 23q94 0 159 -32t91 -83t26 -102q0 -74 -33 -130.5t-92 -103t-123 -85.5q35 -47 258 -301
q29 52 43 113.5t19 109.5l137 -37q-14 -68 -40.5 -146t-63.5 -147q29 -31 62.5 -56t62.5 -34q30 -10 98 -10v-119q-43 -3 -89.5 -1t-84.5 17q-31 13 -61 34t-68 59q-58 -59 -126.5 -90.5t-126.5 -39.5t-104 -8zM461 92q60 0 115 19.5t88.5 47.5t48.5 46q-169 195 -299 356
q-64 -40 -109 -80q-48 -42 -65 -90t-17 -96q0 -44 16 -81t46 -64t74.5 -42.5t101.5 -15.5zM453 717q78 47 121 90t55 77t12 58q0 53 -39 86t-102 33q-68 0 -110 -35.5t-42 -101.5q0 -30 9 -57t23.5 -52.5t33.5 -49.5t39 -48z" />
    <glyph glyph-name="fi.smcp" unicode="&#xf62d;" horiz-adv-x="1270" 
d="M143 0v1135h650v-127h-500v-349h475v-129h-475v-530h-150zM977 0v1135h150v-1135h-150z" />
    <glyph glyph-name="fl.smcp" unicode="&#xf62e;" horiz-adv-x="1667" 
d="M143 0v1135h650v-127h-500v-349h475v-129h-475v-530h-150zM977 0v1135h150v-1008h520v-127h-670z" />
    <glyph glyph-name="ff.smcp" unicode="&#xf62f;" horiz-adv-x="1668" 
d="M143 0v1135h650v-127h-500v-349h475v-129h-475v-530h-150zM977 0v1135h650v-127h-500v-349h475v-129h-475v-530h-150z" />
    <glyph glyph-name="ffi.smcp" unicode="&#xf630;" horiz-adv-x="2104" 
d="M1811 0v1135h150v-1135h-150zM143 0v1135h650v-127h-500v-349h475v-129h-475v-530h-150zM977 0v1135h650v-127h-500v-349h475v-129h-475v-530h-150z" />
    <glyph glyph-name="ffl.smcp" unicode="&#xf631;" horiz-adv-x="2502" 
d="M143 0v1135h650v-127h-500v-349h475v-129h-475v-530h-150zM977 0v1135h650v-127h-500v-349h475v-129h-475v-530h-150zM1811 0v1135h150v-1008h520v-127h-670z" />
    <glyph glyph-name="fb.smcp" unicode="&#xf632;" horiz-adv-x="1868" 
d="M143 0v1135h650v-127h-500v-349h475v-129h-475v-530h-150zM977 0v1135h428q72 0 134 -18t107.5 -54.5t71 -91.5t25.5 -129q0 -85 -39.5 -149t-136.5 -107q88 -26 135 -73t60.5 -103t13.5 -105q0 -63 -20.5 -118.5t-64 -97t-110.5 -65.5t-159 -24h-445zM1123 119h250
q99 0 154.5 27.5t72 78t16.5 103.5q0 99 -63.5 144.5t-183.5 45.5h-246v-399zM1123 637h260q67 0 117 30t71 76t21 93q0 64 -27.5 105.5t-79 58t-110.5 16.5h-252v-379z" />
    <glyph glyph-name="fj.smcp" unicode="&#xf633;" horiz-adv-x="1349" 
d="M143 0v1135h650v-127h-500v-349h475v-129h-475v-530h-150zM872 -25q-70 0 -125 13.5t-87 32.5t-52 38q-25 23 -44.5 53t-33.5 76l135 58q22 -66 56.5 -99t71 -40t73.5 -7q43 0 77 11.5t56 29.5q38 32 52.5 93.5t14.5 181.5v719h150v-721q0 -107 -8.5 -174.5t-31 -110
t-54.5 -72.5q-44 -38 -104 -60t-146 -22z" />
    <glyph glyph-name="fk.smcp" unicode="&#xf634;" horiz-adv-x="1819" 
d="M143 0v1135h650v-127h-500v-349h475v-129h-475v-530h-150zM977 0v1135h150v-560l487 560h170l-381 -437l416 -698h-180l-336 582l-176 -191v-391h-150z" />
    <glyph glyph-name="ft.smcp" unicode="&#xf635;" horiz-adv-x="1717" 
d="M143 0v1135h650v-127h-500v-349h475v-129h-475v-530h-150zM1201 0v1008h-349v127h846v-127h-348v-1008h-149z" />
    <glyph glyph-name="fh.smcp" unicode="&#xf636;" horiz-adv-x="1921" 
d="M143 0v1135h650v-127h-500v-349h475v-129h-475v-530h-150zM977 0v1135h150v-457h502v457h149v-1135h-149v549h-502v-549h-150z" />
    <glyph glyph-name="germandbls.smcp" unicode="&#xf637;" horiz-adv-x="1982" 
d="M1487 -29q-86 0 -153.5 17.5t-119.5 49t-89.5 76.5t-63.5 99l135 63q30 -60 75.5 -104t101 -60t112.5 -16q82 0 143 23.5t88 67.5t27 96q0 61 -32 98.5t-91 62.5q-54 23 -121 43.5t-133 44.5q-65 25 -122.5 57.5t-94.5 76.5q-31 37 -45.5 83t-14.5 93q0 103 52 178.5
t142 109t195 33.5q120 0 205 -33t129 -82t70 -96l-127 -67q-61 104 -130.5 130.5t-137.5 26.5q-66 0 -117.5 -16t-83.5 -51q-28 -31 -36.5 -62t-8.5 -71q0 -57 48.5 -101t123 -72t145.5 -48q140 -44 212.5 -88t102 -108t29.5 -138q0 -56 -21 -112t-70 -101.5t-128 -74
t-196 -28.5zM496 -29q-86 0 -153.5 17.5t-119.5 49t-89.5 76.5t-63.5 99l135 63q30 -60 75.5 -104t101 -60t112.5 -16q82 0 143 23.5t88 67.5t27 96q0 61 -32 98.5t-91 62.5q-54 23 -121 43.5t-133 44.5q-65 25 -122.5 57.5t-94.5 76.5q-31 37 -45.5 83t-14.5 93
q0 103 52 178.5t142 109t195 33.5q120 0 205 -33t129 -82t70 -96l-127 -67q-61 104 -130.5 130.5t-137.5 26.5q-66 0 -117.5 -16t-83.5 -51q-28 -31 -36.5 -62t-8.5 -71q0 -57 48.5 -101t123 -72t145.5 -48q140 -44 212.5 -88t102 -108t29.5 -138q0 -56 -21 -112t-70 -101.5
t-128 -74t-196 -28.5z" />
    <glyph glyph-name="euro.smcp" unicode="&#xf638;" horiz-adv-x="1012" 
d="M605 -29q-105 0 -179 34t-123.5 92t-76.5 135t-37 163h-129l51 117h68v123h-119l51 115h78q17 145 81.5 242.5t161.5 134t201 36.5q92 0 161.5 -26.5t111 -64.5t59.5 -68l-78 -130q-31 54 -71.5 91.5t-90 54t-100.5 16.5q-65 0 -109.5 -13t-76.5 -42q-38 -35 -62.5 -93
t-29.5 -138h485l-51 -115h-442v-123h393l-51 -117h-332q6 -75 30 -133.5t56 -95.5q31 -35 78 -50.5t106 -15.5q78 0 138 41t89 119l127 -57q-30 -74 -82 -128.5t-127 -79t-159 -24.5z" />
    <glyph glyph-name="dollar.smcp" unicode="&#xf639;" horiz-adv-x="1012" 
d="M442 -188v161q-84 8 -145 32.5t-107 68.5q-31 29 -54 64t-45 81l127 57q27 -60 64 -100t78 -56t82 -22v447q-27 8 -86.5 34t-92 44t-49.5 32q-42 32 -68 88t-26 127q0 66 25 119t61 86q44 40 99.5 61t136.5 27v97h116v-97q121 -8 200 -59.5t130 -151.5l-127 -61
q-29 59 -62.5 90t-71 44.5t-69.5 18.5v-391q22 -8 47 -19t50.5 -22.5t49.5 -23.5t42 -23q69 -40 107 -106.5t38 -163.5q0 -105 -48.5 -180.5t-126 -107.5t-159.5 -36v-159h-116zM558 96q91 6 137 51.5t46 145.5q0 65 -22.5 107t-72.5 71q-39 23 -88 41v-416zM442 688v356
q-44 -3 -79.5 -16t-55.5 -33q-23 -21 -33 -51t-10 -67q0 -54 20.5 -89.5t62.5 -58.5q33 -18 95 -41z" />
    <glyph glyph-name="cent.smcp" unicode="&#xf63a;" horiz-adv-x="1012" 
d="M488 -217v190q-117 13 -183.5 68t-97.5 141q-22 63 -27.5 117.5t-5.5 110.5q0 57 7.5 115t27.5 112q25 66 66.5 112t97.5 68.5t115 28.5v164h112v-164q108 -11 171.5 -62t94.5 -143l-129 -39q-23 60 -56.5 88.5t-80.5 36.5v-633q53 8 89 37.5t61 89.5l127 -45
q-34 -85 -101.5 -140t-175.5 -63v-190h-112zM488 96v631q-45 -9 -76.5 -31.5t-49 -64.5t-27 -89.5t-9.5 -131.5q0 -80 8 -130t25 -87q18 -41 51 -64t78 -33z" />
    <glyph glyph-name="sterling.smcp" unicode="&#xf63b;" horiz-adv-x="1012" 
d="M133 0v111q109 82 164 141t66.5 100t11.5 74q0 20 -19 66h-207v118h136q-26 29 -49.5 61.5t-41.5 66t-29 67.5t-11 67q0 67 21 116.5t63 86.5q46 44 115.5 66t172.5 22q93 0 166.5 -22.5t124.5 -75.5q32 -34 54.5 -77.5t31.5 -88.5l-149 -33q-19 65 -48 102.5t-79.5 54.5
t-106.5 17q-68 0 -110 -15t-64 -38q-39 -42 -39 -104q0 -40 15 -77.5t36 -68t39 -49.5q27 -33 64 -78h325v-118h-268q8 -22 8 -50q0 -69 -23.5 -125.5t-70.5 -103.5t-100 -90h561v-123h-760z" />
    <glyph glyph-name="yen.smcp" unicode="&#xf63c;" horiz-adv-x="1012" 
d="M417 0v254h-289v111h289v94l-6 14h-283v109h225l-295 553h164l281 -539l291 539h159l-309 -553h238v-109h-301l-6 -14v-94h307v-111h-307v-254h-158z" />
    <glyph glyph-name="florin.smcp" unicode="&#xf63d;" horiz-adv-x="1012" 
d="M23 -309l27 123q14 -2 20 -2h12q82 0 113.5 30t50.5 123l146 717h-115l25 113h114l27 123q14 61 38 107t62 77q50 38 107.5 51.5t109.5 13.5q27 0 107 -8l-25 -121q-36 6 -78 6q-34 0 -62 -5.5t-54 -28.5q-19 -16 -34 -48.5t-28 -91.5l-16 -75h198l-24 -113h-199
l-145 -729q-16 -74 -39.5 -122.5t-58.5 -80.5q-39 -32 -94.5 -45.5t-131.5 -13.5h-53z" />
    <glyph glyph-name="exclam.smcp" unicode="&#xf63e;" horiz-adv-x="586" 
d="M203 0v187h180v-187h-180zM227 316l-15 819h161l-16 -819h-130z" />
    <glyph glyph-name="question.smcp" unicode="&#xf63f;" horiz-adv-x="904" 
d="M309 0v187h180v-187h-180zM90 856q3 39 22 87t60.5 91t109.5 72t169 29q64 0 123.5 -13.5t105.5 -44.5t74 -80t28 -121q0 -75 -33.5 -129t-86.5 -96l-79 -65q-53 -42 -82 -99t-29 -141v-30h-143v21q0 94 27.5 162.5t90.5 124.5l94 83q26 23 44 43.5t29 41t15.5 42
t4.5 46.5q0 17 -7.5 43.5t-27.5 52t-56.5 43.5t-94.5 18q-66 0 -107.5 -18.5t-66 -47t-35.5 -63.5t-15 -68z" />
    <glyph glyph-name="ordfeminine.smcp" unicode="&#xf640;" horiz-adv-x="660" 
d="M134 436h-119l241 687h130l259 -687h-128l-59 163h-269zM222 697h200l-103 286z" />
    <glyph glyph-name="ordmasculine.smcp" unicode="&#xf641;" horiz-adv-x="713" 
d="M356 414q-54 0 -96.5 12.5t-74 35t-53 54t-34.5 70.5q-15 46 -21.5 93t-6.5 95t6.5 95t21.5 94q19 61 58 100t92 55.5t108 16.5q74 0 131 -26.5t86.5 -67t42.5 -78.5q16 -47 21.5 -94t5.5 -95t-6 -95t-23 -93q-24 -60 -66 -102t-91.5 -56t-100.5 -14zM356 508
q57 0 89.5 22.5t46.5 59.5q30 82 30 184q0 92 -30 182q-21 52 -60.5 67t-75.5 15q-57 0 -89 -22t-46 -60q-31 -86 -31 -182q0 -112 31 -184q34 -82 135 -82z" />
    <glyph glyph-name="questiondown.smcp" unicode="&#xf642;" horiz-adv-x="904" 
d="M595 1135v-187h-180v187h180zM814 279q-3 -39 -22 -87t-60.5 -91t-109.5 -72t-169 -29q-64 0 -123.5 13.5t-105.5 44.5t-74 80t-28 121q0 75 33.5 129t86.5 96l79 65q53 42 82 99t29 141v30h143v-21q0 -94 -27.5 -162.5t-90.5 -124.5l-94 -83q-26 -23 -44 -43.5t-29 -41
t-15.5 -42t-4.5 -46.5q0 -17 7.5 -43.5t27.5 -52t56.5 -43.5t94.5 -18q66 0 107.5 18.5t66 47t35.5 63.5t15 68z" />
    <glyph glyph-name="exclamdown.smcp" unicode="&#xf643;" horiz-adv-x="586" 
d="M383 1135v-187h-180v187h180zM359 819l15 -819h-161l16 819h130z" />
    <glyph glyph-name="abreve.smcp" unicode="&#xf644;" horiz-adv-x="1026" 
d="M18 0l394 1135h172l424 -1135h-162l-107 299h-473l-100 -299h-148zM305 414h393l-202 571zM504 1221q-62 0 -108.5 17.5t-78.5 49t-51.5 75t-27.5 96.5h121q11 -71 46.5 -103t98.5 -32q62 0 97.5 32t46.5 103h118q-5 -57 -24.5 -99.5t-57.5 -74.5q-70 -64 -180 -64z" />
    <glyph glyph-name="amacron.smcp" unicode="&#xf645;" horiz-adv-x="1026" 
d="M18 0l394 1135h172l424 -1135h-162l-107 299h-473l-100 -299h-148zM305 414h393l-202 571zM184 1296v131h625v-131h-625z" />
    <glyph glyph-name="aogonek.smcp" unicode="&#xf646;" horiz-adv-x="1026" 
d="M18 0l394 1135h172l424 -1135h-162l-107 299h-473l-100 -299h-148zM305 414h393l-202 571zM1048 -371q-25 -11 -60 -20.5t-83 -9.5q-43 0 -75 12t-53.5 33.5t-32 50.5t-10.5 63q0 29 8 57.5t22 50.5q21 35 48.5 70.5t50.5 63.5h139q-17 -16 -40 -40t-43 -52.5t-34 -60.5
t-14 -64q0 -33 19.5 -51.5t57.5 -18.5q24 0 48.5 7t51.5 19v-110z" />
    <glyph glyph-name="agrave.smcp" unicode="&#xf647;" horiz-adv-x="1026" 
d="M18 0l394 1135h172l424 -1135h-162l-107 299h-473l-100 -299h-148zM305 414h393l-202 571zM475 1259l-215 260h217l105 -260h-107z" />
    <glyph glyph-name="aacute.smcp" unicode="&#xf648;" horiz-adv-x="1026" 
d="M18 0l394 1135h172l424 -1135h-162l-107 299h-473l-100 -299h-148zM305 414h393l-202 571zM455 1259l104 260h217l-215 -260h-106z" />
    <glyph glyph-name="acircumflex.smcp" unicode="&#xf649;" horiz-adv-x="1026" 
d="M18 0l394 1135h172l424 -1135h-162l-107 299h-473l-100 -299h-148zM305 414h393l-202 571zM238 1257l194 260h162l189 -260h-150l-119 170l-125 -170h-151z" />
    <glyph glyph-name="atilde.smcp" unicode="&#xf64a;" horiz-adv-x="1026" 
d="M18 0l394 1135h172l424 -1135h-162l-107 299h-473l-100 -299h-148zM305 414h393l-202 571zM215 1270q0 106 43 145q23 22 47 31.5t53 9.5q25 0 63.5 -9.5t88.5 -31.5q42 -18 69 -26.5t39 -8.5q20 0 34.5 16.5t20.5 61.5h101q0 -95 -39 -141q-20 -23 -44 -35t-54 -12
q-28 0 -64.5 9.5t-81.5 29.5q-89 39 -115 39q-23 0 -38 -16.5t-21 -61.5h-102z" />
    <glyph glyph-name="adieresis.smcp" unicode="&#xf64b;" horiz-adv-x="1026" 
d="M18 0l394 1135h172l424 -1135h-162l-107 299h-473l-100 -299h-148zM305 414h393l-202 571zM273 1281v174h145v-174h-145zM582 1281v174h143v-174h-143z" />
    <glyph glyph-name="aring.smcp" unicode="&#xf64c;" horiz-adv-x="1026" 
d="M18 0l375 1083q-37 25 -59.5 63.5t-22.5 86.5q0 37 13 69.5t41 57.5q27 29 62 41t75 12q74 0 131 -51q57 -54 57 -129q0 -37 -12.5 -68t-40.5 -59q-31 -24 -33 -25l404 -1081h-162l-107 299h-473l-100 -299h-148zM305 414h393l-202 571zM502 1135q33 0 58 17t35.5 38
t10.5 41q0 22 -8.5 39.5t-22.5 29.5q-32 31 -73 31q-20 0 -39.5 -7t-36.5 -24q-15 -11 -22 -29t-7 -40q0 -42 30 -69t75 -27z" />
    <glyph glyph-name="cacute.smcp" unicode="&#xf64d;" horiz-adv-x="985" 
d="M551 -29q-126 0 -212.5 41t-140 117.5t-77 187t-23.5 250.5q0 159 30.5 272t89.5 185t145.5 105.5t199.5 33.5q150 0 240.5 -61.5t132.5 -173.5l-145 -58q-32 91 -88 127.5t-140 36.5q-74 0 -130 -23t-94 -77.5t-57.5 -144t-19.5 -222.5q0 -121 16 -209t50.5 -145.5
t89 -85t131.5 -27.5q69 0 122.5 21.5t85.5 65.5t48 98l139 -56q-30 -91 -88.5 -151t-139 -83.5t-165.5 -23.5zM484 1259l104 260h217l-215 -260h-106z" />
    <glyph glyph-name="ccaron.smcp" unicode="&#xf64e;" horiz-adv-x="985" 
d="M551 -29q-126 0 -212.5 41t-140 117.5t-77 187t-23.5 250.5q0 159 30.5 272t89.5 185t145.5 105.5t199.5 33.5q150 0 240.5 -61.5t132.5 -173.5l-145 -58q-32 91 -88 127.5t-140 36.5q-74 0 -130 -23t-94 -77.5t-57.5 -144t-19.5 -222.5q0 -121 16 -209t50.5 -145.5
t89 -85t131.5 -27.5q69 0 122.5 21.5t85.5 65.5t48 98l139 -56q-30 -91 -88.5 -151t-139 -83.5t-165.5 -23.5zM491 1257l-190 260h149l121 -170l123 170h150l-191 -260h-162z" />
    <glyph glyph-name="cdotaccent.smcp" unicode="&#xf64f;" horiz-adv-x="985" 
d="M551 -29q-126 0 -212.5 41t-140 117.5t-77 187t-23.5 250.5q0 159 30.5 272t89.5 185t145.5 105.5t199.5 33.5q150 0 240.5 -61.5t132.5 -173.5l-145 -58q-32 91 -88 127.5t-140 36.5q-74 0 -130 -23t-94 -77.5t-57.5 -144t-19.5 -222.5q0 -121 16 -209t50.5 -145.5
t89 -85t131.5 -27.5q69 0 122.5 21.5t85.5 65.5t48 98l139 -56q-30 -91 -88.5 -151t-139 -83.5t-165.5 -23.5zM464 1271v193h190v-193h-190z" />
    <glyph glyph-name="ccircumflex.smcp" unicode="&#xf650;" horiz-adv-x="985" 
d="M551 -29q-126 0 -212.5 41t-140 117.5t-77 187t-23.5 250.5q0 159 30.5 272t89.5 185t145.5 105.5t199.5 33.5q150 0 240.5 -61.5t132.5 -173.5l-145 -58q-32 91 -88 127.5t-140 36.5q-74 0 -130 -23t-94 -77.5t-57.5 -144t-19.5 -222.5q0 -121 16 -209t50.5 -145.5
t89 -85t131.5 -27.5q69 0 122.5 21.5t85.5 65.5t48 98l139 -56q-30 -91 -88.5 -151t-139 -83.5t-165.5 -23.5zM293 1257l194 260h162l189 -260h-150l-119 170l-125 -170h-151z" />
    <glyph glyph-name="ccedilla.smcp" unicode="&#xf651;" horiz-adv-x="985" 
d="M551 -29q-126 0 -212.5 41t-140 117.5t-77 187t-23.5 250.5q0 159 30.5 272t89.5 185t145.5 105.5t199.5 33.5q150 0 240.5 -61.5t132.5 -173.5l-145 -58q-32 91 -88 127.5t-140 36.5q-74 0 -130 -23t-94 -77.5t-57.5 -144t-19.5 -222.5q0 -121 16 -209t50.5 -145.5
t89 -85t131.5 -27.5q69 0 122.5 21.5t85.5 65.5t48 98l139 -56q-30 -91 -88.5 -151t-139 -83.5t-165.5 -23.5zM434 -403q-21 0 -47 4l6 94q60 0 98.5 6t63.5 18q45 22 45 62q0 32 -35.5 49.5t-124.5 17.5l53 175h117l-41 -119q54 -3 96.5 -20.5t62 -49t19.5 -67.5
q0 -82 -81 -125q-41 -23 -99 -34t-133 -11z" />
    <glyph glyph-name="dcaron.smcp" unicode="&#xf652;" horiz-adv-x="1069" 
d="M143 0v1135h289q151 0 254 -34.5t166.5 -102t91 -167t27.5 -229.5q0 -118 -17.5 -214t-55.5 -166t-89 -113q-57 -50 -140 -79.5t-202 -29.5h-324zM293 125h121q121 0 175 17t97 55q45 40 73 103.5t38 141t10 160.5q0 120 -23 198t-75 128q-47 45 -117 63.5t-178 18.5
h-121v-885zM436 1257l-190 260h149l121 -170l123 170h150l-191 -260h-162z" />
    <glyph glyph-name="dcroat.smcp" unicode="&#xf653;" horiz-adv-x="1069" 
d="M143 0v539h-108v120h108v476h289q151 0 254 -34.5t166.5 -102t91 -167t27.5 -229.5q0 -118 -17.5 -214t-55.5 -166t-89 -113q-57 -50 -140 -79.5t-202 -29.5h-324zM293 125h121q121 0 175 17t97 55q45 40 73 103.5t38 141t10 160.5q0 120 -23 198t-75 128
q-47 45 -117 63.5t-178 18.5h-121v-351h229v-120h-229v-414z" />
    <glyph glyph-name="egrave.smcp" unicode="&#xf654;" horiz-adv-x="897" 
d="M143 0v1135h674v-127h-524v-361h500v-127h-500v-393h536v-127h-686zM502 1259l-215 260h217l105 -260h-107z" />
    <glyph glyph-name="eacute.smcp" unicode="&#xf655;" horiz-adv-x="897" 
d="M143 0v1135h674v-127h-524v-361h500v-127h-500v-393h536v-127h-686zM414 1259l104 260h217l-215 -260h-106z" />
    <glyph glyph-name="ecircumflex.smcp" unicode="&#xf656;" horiz-adv-x="897" 
d="M143 0v1135h674v-127h-524v-361h500v-127h-500v-393h536v-127h-686zM230 1257l194 260h162l189 -260h-150l-119 170l-125 -170h-151z" />
    <glyph glyph-name="edieresis.smcp" unicode="&#xf657;" horiz-adv-x="897" 
d="M143 0v1135h674v-127h-524v-361h500v-127h-500v-393h536v-127h-686zM273 1281v174h145v-174h-145zM582 1281v174h143v-174h-143z" />
    <glyph glyph-name="ecaron.smcp" unicode="&#xf658;" horiz-adv-x="897" 
d="M143 0v1135h674v-127h-524v-361h500v-127h-500v-393h536v-127h-686zM411 1257l-190 260h149l121 -170l123 170h150l-191 -260h-162z" />
    <glyph glyph-name="edotaccent.smcp" unicode="&#xf659;" horiz-adv-x="897" 
d="M143 0v1135h674v-127h-524v-361h500v-127h-500v-393h536v-127h-686zM412 1271v193h190v-193h-190z" />
    <glyph glyph-name="emacron.smcp" unicode="&#xf65a;" horiz-adv-x="897" 
d="M143 0v1135h674v-127h-524v-361h500v-127h-500v-393h536v-127h-686zM172 1296v131h625v-131h-625z" />
    <glyph glyph-name="eogonek.smcp" unicode="&#xf65b;" horiz-adv-x="897" 
d="M143 0v1135h674v-127h-524v-361h500v-127h-500v-393h536v-127h-686zM620 -371q-25 -11 -60 -20.5t-83 -9.5q-43 0 -75 12t-53.5 33.5t-32 50.5t-10.5 63q0 29 8 57.5t22 50.5q21 35 48.5 70.5t50.5 63.5h139q-17 -16 -40 -40t-43 -52.5t-34 -60.5t-14 -64
q0 -33 19.5 -51.5t57.5 -18.5q24 0 48.5 7t51.5 19v-110z" />
    <glyph glyph-name="ebreve.smcp" unicode="&#xf65c;" horiz-adv-x="897" 
d="M143 0v1135h674v-127h-524v-361h500v-127h-500v-393h536v-127h-686zM480 1251q-62 0 -108.5 17.5t-78.5 49t-51.5 75t-27.5 96.5h121q11 -71 46.5 -103t98.5 -32q62 0 97.5 32t46.5 103h118q-5 -57 -24.5 -99.5t-57.5 -74.5q-70 -64 -180 -64z" />
    <glyph glyph-name="gbreve.smcp" unicode="&#xf65d;" horiz-adv-x="1065" 
d="M543 -29q-87 0 -152.5 20.5t-113.5 57t-81 87.5t-55 112q-27 76 -35 159.5t-8 159.5q0 84 11.5 167t33.5 151q20 60 53.5 110.5t83.5 88t119.5 58.5t161.5 21q150 0 240.5 -59.5t132.5 -171.5l-146 -58q-42 104 -101.5 133t-129.5 29q-81 0 -144.5 -34.5t-97.5 -108.5
q-28 -60 -41.5 -133.5t-13.5 -196.5q0 -96 7.5 -159.5t20 -99.5t25.5 -66q32 -76 95 -108t147 -32q73 0 132.5 26t84.5 75.5t25 107.5v123h-250v127h397v-557h-133v76q-95 -105 -268 -105zM563 1221q-62 0 -108.5 17.5t-78.5 49t-51.5 75t-27.5 96.5h121q11 -71 46.5 -103
t98.5 -32q62 0 97.5 32t46.5 103h118q-5 -57 -24.5 -99.5t-57.5 -74.5q-70 -64 -180 -64z" />
    <glyph glyph-name="gcommaaccent.smcp" unicode="&#xf65e;" horiz-adv-x="1065" 
d="M543 -29q-87 0 -152.5 20.5t-113.5 57t-81 87.5t-55 112q-27 76 -35 159.5t-8 159.5q0 84 11.5 167t33.5 151q20 60 53.5 110.5t83.5 88t119.5 58.5t161.5 21q150 0 240.5 -59.5t132.5 -171.5l-146 -58q-42 104 -101.5 133t-129.5 29q-81 0 -144.5 -34.5t-97.5 -108.5
q-28 -60 -41.5 -133.5t-13.5 -196.5q0 -96 7.5 -159.5t20 -99.5t25.5 -66q32 -76 95 -108t147 -32q73 0 132.5 26t84.5 75.5t25 107.5v123h-250v127h397v-557h-133v76q-95 -105 -268 -105zM417 -433q-21 0 -47 4l6 94q60 0 98.5 6t63.5 18q45 22 45 62q0 32 -35.5 49.5
t-124.5 17.5l29 95q42 0 84.5 -3t92 -22t75.5 -58.5t26 -92.5q0 -82 -81 -125q-41 -23 -99 -34t-133 -11z" />
    <glyph glyph-name="gdotaccent.smcp" unicode="&#xf65f;" horiz-adv-x="1065" 
d="M543 -29q-87 0 -152.5 20.5t-113.5 57t-81 87.5t-55 112q-27 76 -35 159.5t-8 159.5q0 84 11.5 167t33.5 151q20 60 53.5 110.5t83.5 88t119.5 58.5t161.5 21q150 0 240.5 -59.5t132.5 -171.5l-146 -58q-42 104 -101.5 133t-129.5 29q-81 0 -144.5 -34.5t-97.5 -108.5
q-28 -60 -41.5 -133.5t-13.5 -196.5q0 -96 7.5 -159.5t20 -99.5t25.5 -66q32 -76 95 -108t147 -32q73 0 132.5 26t84.5 75.5t25 107.5v123h-250v127h397v-557h-133v76q-95 -105 -268 -105zM487 1271v193h190v-193h-190z" />
    <glyph glyph-name="gcircumflex.smcp" unicode="&#xf660;" horiz-adv-x="1065" 
d="M543 -29q-87 0 -152.5 20.5t-113.5 57t-81 87.5t-55 112q-27 76 -35 159.5t-8 159.5q0 84 11.5 167t33.5 151q20 60 53.5 110.5t83.5 88t119.5 58.5t161.5 21q150 0 240.5 -59.5t132.5 -171.5l-146 -58q-42 104 -101.5 133t-129.5 29q-81 0 -144.5 -34.5t-97.5 -108.5
q-28 -60 -41.5 -133.5t-13.5 -196.5q0 -96 7.5 -159.5t20 -99.5t25.5 -66q32 -76 95 -108t147 -32q73 0 132.5 26t84.5 75.5t25 107.5v123h-250v127h397v-557h-133v76q-95 -105 -268 -105zM286 1257l194 260h162l189 -260h-150l-119 170l-125 -170h-151z" />
    <glyph glyph-name="hcircumflex.smcp" unicode="&#xf661;" horiz-adv-x="1087" 
d="M143 0v1135h150v-457h502v457h149v-1135h-149v549h-502v-549h-150zM269 1257l194 260h162l189 -260h-150l-119 170l-125 -170h-151z" />
    <glyph glyph-name="igrave.smcp" unicode="&#xf662;" horiz-adv-x="436" 
d="M143 0v1135h150v-1135h-150zM191 1259l-215 260h217l105 -260h-107z" />
    <glyph glyph-name="iacute.smcp" unicode="&#xf663;" horiz-adv-x="436" 
d="M143 0v1135h150v-1135h-150zM161 1259l104 260h217l-215 -260h-106z" />
    <glyph glyph-name="icircumflex.smcp" unicode="&#xf664;" horiz-adv-x="436" 
d="M143 0v1135h150v-1135h-150zM-48 1257l194 260h162l189 -260h-150l-119 170l-125 -170h-151z" />
    <glyph glyph-name="idieresis.smcp" unicode="&#xf665;" horiz-adv-x="436" 
d="M143 0v1135h150v-1135h-150zM-7 1281v174h145v-174h-145zM302 1281v174h143v-174h-143z" />
    <glyph glyph-name="imacron.smcp" unicode="&#xf666;" horiz-adv-x="436" 
d="M143 0v1135h150v-1135h-150zM-89 1296v131h625v-131h-625z" />
    <glyph glyph-name="iogonek.smcp" unicode="&#xf667;" horiz-adv-x="436" 
d="M340 -371q-25 -11 -60 -20.5t-83 -9.5q-43 0 -75 12t-53.5 33.5t-32 50.5t-10.5 63q0 29 8 57.5t22 50.5q21 35 48.5 70.5t50.5 63.5h-12v1135h150v-1135q-17 -16 -39.5 -40t-42.5 -52.5t-34 -60.5t-14 -64q0 -33 19.5 -51.5t57.5 -18.5q24 0 48.5 7t51.5 19v-110z" />
    <glyph glyph-name="itilde.smcp" unicode="&#xf668;" horiz-adv-x="436" 
d="M143 0v1135h150v-1135h-150zM-59 1290q0 106 43 145q23 22 47 31.5t53 9.5q25 0 63.5 -9.5t88.5 -31.5q42 -18 69 -26.5t39 -8.5q20 0 34.5 16.5t20.5 61.5h101q0 -95 -39 -141q-20 -23 -44 -35t-54 -12q-28 0 -64.5 9.5t-81.5 29.5q-89 39 -115 39q-23 0 -38 -16.5
t-21 -61.5h-102z" />
    <glyph glyph-name="ibreve.smcp" unicode="&#xf669;" horiz-adv-x="436" 
d="M143 0v1135h150v-1135h-150zM222 1251q-62 0 -108.5 17.5t-78.5 49t-51.5 75t-27.5 96.5h121q11 -71 46.5 -103t98.5 -32q62 0 97.5 32t46.5 103h118q-5 -57 -24.5 -99.5t-57.5 -74.5q-70 -64 -180 -64z" />
    <glyph glyph-name="jcircumflex.smcp" unicode="&#xf66a;" horiz-adv-x="852" 
d="M375 -25q-70 0 -125 13.5t-87 32.5t-52 38q-25 23 -44.5 53t-33.5 76l135 58q22 -66 56.5 -99t71 -40t73.5 -7q43 0 77 11.5t56 29.5q38 32 52.5 93.5t14.5 181.5v719h150v-721q0 -107 -8.5 -174.5t-31 -110t-54.5 -72.5q-44 -38 -104 -60t-146 -22zM372 1257l194 260
h162l189 -260h-150l-119 170l-125 -170h-151z" />
    <glyph glyph-name="kcommaaccent.smcp" unicode="&#xf66b;" horiz-adv-x="985" 
d="M143 0v1135h150v-560l487 560h170l-381 -437l416 -698h-180l-336 582l-176 -191v-391h-150zM379 -433q-21 0 -47 4l6 94q60 0 98.5 6t63.5 18q45 22 45 62q0 32 -35.5 49.5t-124.5 17.5l29 95q42 0 84.5 -3t92 -22t75.5 -58.5t26 -92.5q0 -82 -81 -125q-41 -23 -99 -34
t-133 -11z" />
    <glyph glyph-name="lacute.smcp" unicode="&#xf66c;" horiz-adv-x="834" 
d="M143 0v1135h150v-1008h520v-127h-670zM161 1259l104 260h217l-215 -260h-106z" />
    <glyph glyph-name="lcaron.smcp" unicode="&#xf66d;" horiz-adv-x="834" 
d="M143 0v1135h150v-1008h520v-127h-670zM482 778v361h160l-49 -361h-111z" />
    <glyph glyph-name="lcommaaccent.smcp" unicode="&#xf66e;" horiz-adv-x="834" 
d="M143 0v1135h150v-1008h520v-127h-670zM344 -433q-21 0 -47 4l6 94q60 0 98.5 6t63.5 18q45 22 45 62q0 32 -35.5 49.5t-124.5 17.5l29 95q42 0 84.5 -3t92 -22t75.5 -58.5t26 -92.5q0 -82 -81 -125q-41 -23 -99 -34t-133 -11z" />
    <glyph glyph-name="ldot.smcp" unicode="&#xf66f;" horiz-adv-x="834" 
d="M143 0v1135h150v-1008h520v-127h-670zM536 516v232h192v-232h-192z" />
    <glyph glyph-name="nacute.smcp" unicode="&#xf670;" horiz-adv-x="1077" 
d="M143 0v1135h183l465 -926v926h143v-1135h-172l-475 942v-942h-144zM484 1259l104 260h217l-215 -260h-106z" />
    <glyph glyph-name="napostrophe.smcp" unicode="&#xf671;" horiz-adv-x="1221" 
d="M287 0v1135h183l465 -926v926h143v-1135h-172l-475 942v-942h-144zM2 1002v89q44 9 66 29q24 23 32.5 55t8.5 76v15h-88v209h192v-224q0 -137 -72 -197q-26 -24 -60.5 -36.5t-78.5 -15.5z" />
    <glyph glyph-name="ntilde.smcp" unicode="&#xf672;" horiz-adv-x="1077" 
d="M143 0v1135h183l465 -926v926h143v-1135h-172l-475 942v-942h-144zM277 1290q0 106 43 145q23 22 47 31.5t53 9.5q25 0 63.5 -9.5t88.5 -31.5q42 -18 69 -26.5t39 -8.5q20 0 34.5 16.5t20.5 61.5h101q0 -95 -39 -141q-20 -23 -44 -35t-54 -12q-28 0 -64.5 9.5t-81.5 29.5
q-89 39 -115 39q-23 0 -38 -16.5t-21 -61.5h-102z" />
    <glyph glyph-name="ncaron.smcp" unicode="&#xf673;" horiz-adv-x="1077" 
d="M143 0v1135h183l465 -926v926h143v-1135h-172l-475 942v-942h-144zM469 1257l-190 260h149l121 -170l123 170h150l-191 -260h-162z" />
    <glyph glyph-name="ncommaaccent.smcp" unicode="&#xf674;" horiz-adv-x="1077" 
d="M143 0v1135h183l465 -926v926h143v-1135h-172l-475 942v-942h-144zM422 -433q-21 0 -47 4l6 94q60 0 98.5 6t63.5 18q45 22 45 62q0 32 -35.5 49.5t-124.5 17.5l29 95q42 0 84.5 -3t92 -22t75.5 -58.5t26 -92.5q0 -82 -81 -125q-41 -23 -99 -34t-133 -11z" />
    <glyph glyph-name="ograve.smcp" unicode="&#xf675;" horiz-adv-x="1130" 
d="M565 -29q-89 0 -158.5 22t-121.5 60t-87.5 90.5t-54.5 114.5q-23 74 -34 155.5t-11 153.5q0 73 11 154t34 156q30 97 96 164.5t151.5 94.5t174.5 27q126 0 219.5 -46t138.5 -112.5t64 -127.5q23 -75 34 -156t11 -154q0 -72 -11 -153.5t-34 -155.5q-31 -100 -96 -166.5
t-151 -93.5t-175 -27zM565 98q84 0 151.5 40t98.5 114q35 86 45 158t10 157q0 114 -13 178.5t-42 137.5q-31 74 -98.5 113.5t-151.5 39.5q-83 0 -151 -39.5t-99 -113.5q-38 -91 -46.5 -156.5t-8.5 -159.5q0 -64 4 -110t11.5 -82t17.5 -65t22 -58q31 -74 99 -114t151 -40z
M522 1259l-215 260h217l105 -260h-107z" />
    </font>
</defs>
</svg>
